<svg width="247" height="135" viewBox="0 0 247 135" fill="none" xmlns="http://www.w3.org/2000/svg">
<g clip-path="url(#clip0_435_695)">
<path d="M45.8891 70.6379C44.2983 70.6379 42.6714 70.4206 40.9842 69.986C39.297 69.5514 37.7303 69.0444 36.2601 68.4528C34.7898 67.8613 33.5003 67.3905 32.4036 67.0041C30.4031 66.2798 28.5351 65.5917 26.7997 64.9035C25.0643 64.2275 23.8351 63.8049 23.112 63.6601C19.4484 62.7184 16.8573 62.2476 15.3509 62.2476C15.0858 62.4408 14.8447 62.5977 14.6158 62.7305C14.3868 62.8633 14.1458 62.9478 13.8806 62.984C13.7722 63.0202 13.5914 63.0444 13.3745 63.0444C12.6996 63.0444 12.3501 62.815 12.3501 62.3683C12.3501 62.1027 12.555 61.8371 12.9768 61.5715C13.2781 61.4146 13.6275 61.3301 14.0252 61.318C14.4229 61.306 14.8327 61.2697 15.2424 61.2335C16.1101 60.473 16.9296 59.5072 17.7009 58.3361C18.4722 57.1651 19.0386 56.2717 19.3761 55.6681C19.6773 55.1369 19.9666 54.6178 20.2558 54.1108C20.545 53.6037 20.8343 53.0967 21.1356 52.6017C20.533 52.7466 19.9063 52.8915 19.2676 53.0243C18.6289 53.1571 18.0022 53.2174 17.3996 53.2174C16.303 53.2174 15.3147 52.988 14.4229 52.5414C13.5311 52.0826 13.0973 51.2496 13.0973 50.0424C13.0973 49.2456 13.4468 48.5092 14.1458 47.8331C14.8447 47.1571 15.5678 46.807 16.3271 46.807C16.785 46.807 17.0019 47.0001 17.0019 47.3744C17.0019 47.6037 16.8332 47.7124 16.4958 47.7124C16.074 47.7124 15.7004 47.9659 15.3629 48.4488C15.0255 48.9438 14.8568 49.4508 14.8568 49.982C14.8568 50.3563 14.9773 50.7305 15.2304 51.0927C15.4714 51.4548 15.9053 51.6722 16.5078 51.7446C17.0742 51.8532 17.6768 51.9136 18.3155 51.9136C19.4122 51.9136 20.5209 51.7687 21.6538 51.4548C22.184 50.3925 22.6781 49.3422 23.1602 48.3039C23.6302 47.2657 24.1002 46.2275 24.5461 45.2134C25.4861 43.1369 26.4502 41.1088 27.4384 39.141C28.4146 37.1732 29.3787 35.4106 30.3308 33.8653C31.2708 32.32 32.1264 31.1611 32.8857 30.4005C34.3198 29.0363 35.766 28.0705 37.2242 27.5031C38.6824 26.9357 39.9839 26.646 41.165 26.646C41.394 26.646 41.6229 26.646 41.8399 26.6701C42.0688 26.6943 42.2737 26.7184 42.4665 26.7546C43.8645 26.984 44.8407 27.4669 45.4071 28.2033C45.9735 28.9398 46.2627 29.821 46.2627 30.8472C46.2627 31.3784 46.2025 31.9216 46.094 32.4891C45.5999 34.8673 44.6117 37.1007 43.1173 39.1893C41.6229 41.2657 39.8273 43.149 37.7062 44.8392C35.5852 46.5172 33.3316 47.9538 30.9333 49.1249C28.5351 50.2959 26.2092 51.153 23.9435 51.6842C23.4494 52.5172 22.9312 53.3381 22.3889 54.147C21.8466 54.9559 21.244 55.7647 20.6053 56.5615C20.2317 57.1289 19.6773 57.8532 18.9663 58.7466C18.2432 59.64 17.5081 60.4609 16.7609 61.2094C17.2912 61.2456 17.8696 61.2939 18.4843 61.3542C19.1109 61.4146 19.7738 61.4991 20.4968 61.6078C23.6302 62.1027 26.7756 62.8271 29.9331 63.7929C33.0905 64.7587 36.2119 65.64 39.3091 66.4367C40.1768 66.6661 41.4181 66.9438 43.0209 67.2939C44.6237 67.6319 46.1302 67.8009 47.5281 67.8009C48.9261 67.8009 49.9263 67.5595 50.6494 67.0645C51.2158 66.7265 51.5051 66.2556 51.5051 65.652C51.5051 65.1933 51.3002 64.819 50.8784 64.5172C50.6494 64.3241 50.541 64.1792 50.541 64.0585C50.541 63.6842 50.7699 63.6239 51.2158 63.8895C51.7099 64.2275 52.0594 64.6259 52.2643 65.0846C52.4692 65.5434 52.5776 66.0142 52.5776 66.4971C52.5776 67.0645 52.4692 67.5836 52.2643 68.0544C52.0594 68.5253 51.8064 68.8633 51.5051 69.0444C49.9504 70.1068 48.1066 70.6379 45.9494 70.6379H45.8891ZM24.751 50.3804C28.9449 48.5695 32.6205 46.3482 35.8021 43.7406C38.9716 41.1329 41.4904 37.6923 43.3342 33.4186C43.9368 32.0907 44.2381 30.9438 44.2381 29.9538C44.2381 29.1571 43.9971 28.5414 43.5029 28.0826C43.2378 27.7446 42.804 27.5756 42.2014 27.5756C40.9601 27.5756 39.6706 28.0102 38.345 28.8794C37.2121 29.7124 36.1395 30.811 35.1393 32.1752C34.139 33.5394 33.199 34.976 32.3313 36.485C31.4636 37.9941 30.6923 39.4307 30.0415 40.7707C29.3787 42.1108 28.8244 43.1852 28.3664 43.982C28.0651 44.5856 27.6072 45.479 26.9805 46.65C26.3538 47.821 25.6066 49.0766 24.7389 50.3925L24.751 50.3804Z" fill="white"/>
<path d="M42.8279 62.1752C41.1287 62.1752 39.6584 61.7769 38.4051 60.9801C37.1517 60.1833 36.5371 58.976 36.5371 57.3463C36.5371 56.4771 36.8022 55.4147 37.3325 54.1712C37.7061 53.302 38.4051 52.3 39.4294 51.1652C40.4538 50.0304 41.6348 48.9197 42.9967 47.8453C44.3585 46.7708 45.7323 45.8775 47.1303 45.1773C48.5282 44.4771 49.7936 44.127 50.9265 44.127C51.3362 44.127 51.7219 44.1873 52.0593 44.296C52.698 44.5253 53.1439 44.8875 53.385 45.3704C53.626 45.8533 53.7585 46.3724 53.7585 46.9036C53.7585 47.3986 53.6862 47.8694 53.5296 48.3161C53.3729 48.7748 53.1921 49.1732 52.9632 49.5113C52.2883 50.5374 51.3121 51.4428 50.0467 52.2396C48.7813 53.0364 47.4918 53.6521 46.1903 54.1109C44.8887 54.5696 43.8162 54.8352 42.9846 54.9076H42.8761C42.382 54.9076 42.141 54.7628 42.141 54.4489C42.141 54.2557 42.2856 54.1591 42.599 54.1591C43.5028 54.0867 44.6477 53.6642 46.0216 52.8795C47.3954 52.1068 48.6126 51.298 49.6731 50.465C50.1311 50.0907 50.6613 49.5595 51.288 48.8714C51.9147 48.1954 52.228 47.5314 52.228 46.8915C52.228 46.2155 51.9026 45.8654 51.2639 45.8654C50.9265 45.8654 50.577 45.9378 50.2154 46.0948C49.8539 46.2517 49.5647 46.3604 49.3357 46.4328C48.239 46.964 47.0339 47.7849 45.7082 48.8956C44.3826 50.0062 43.1895 51.2618 42.1049 52.638C41.0323 54.0143 40.2851 55.4147 39.8633 56.8151C39.7548 57.1169 39.6705 57.4066 39.6343 57.6964C39.5982 57.974 39.5741 58.2517 39.5741 58.5173C39.5741 59.4227 39.8633 60.0746 40.4538 60.4489C41.0443 60.8231 41.7433 61.0163 42.5749 61.0163C43.8162 61.0163 45.1056 60.7386 46.4313 60.1954C47.757 59.6521 49.0344 58.9398 50.2877 58.0706C51.5411 57.2014 52.6739 56.2598 53.7103 55.2577C54.7468 54.2557 55.6265 53.2779 56.3496 52.3362C56.4581 52.1913 56.5906 52.0948 56.7473 52.0827C56.904 52.0706 56.9883 52.0827 57.0365 52.1672C57.1811 52.2034 57.2655 52.3121 57.2655 52.4811C57.2655 52.6501 57.2293 52.807 57.157 52.964C56.0965 54.4368 54.8311 55.8734 53.3367 57.2738C51.8424 58.6742 50.2034 59.8332 48.4077 60.7628C46.6121 61.6923 44.7562 62.1511 42.8279 62.1511V62.1752Z" fill="white"/>
<path d="M86.6711 64.795C84.5139 64.795 82.7182 64.3845 81.2841 63.5515C79.85 62.7185 78.9944 61.4389 78.7292 59.6884V59.3503C78.4279 59.7729 78.0785 60.2558 77.6808 60.8232C77.2831 61.3906 76.8733 61.8735 76.4395 62.2719C76.0056 62.6703 75.5597 62.8634 75.1138 62.8634C75.0415 62.8634 74.8246 62.8272 74.463 62.7548C74.1015 62.6823 73.7641 62.5857 73.4387 62.4771C73.1133 62.3684 72.9325 62.2356 72.8964 62.0787C72.7879 61.3544 72.9566 60.3282 73.4387 58.9882C73.9087 57.6481 74.5353 56.1632 75.3066 54.5334C76.0779 52.9037 76.8974 51.2859 77.741 49.6562C78.5967 48.0264 79.38 46.5656 80.091 45.2618C80.8021 43.958 81.3203 42.968 81.6216 42.2799C81.8505 41.8694 81.9952 41.5193 82.0795 41.2296C82.1518 40.9519 82.188 40.7346 82.188 40.5777C82.188 40.3483 82.1518 40.1672 82.0795 40.0103C82.1518 39.5515 82.429 38.9479 82.899 38.1994C83.369 37.4389 83.9595 36.6904 84.6826 35.9298C85.3937 35.1692 86.177 34.5415 87.0085 34.0344C87.8401 33.5274 88.6114 33.2739 89.3345 33.2739C89.5634 33.2739 89.9129 33.3342 90.3829 33.467C90.8529 33.5998 91.3109 33.8051 91.7447 34.0586C92.1786 34.3242 92.4558 34.6984 92.5642 35.1934C92.6004 35.302 92.6245 35.4228 92.6245 35.5314C92.6245 35.6401 92.5883 35.7004 92.516 35.7004C92.4437 35.7004 92.3353 35.6763 92.2027 35.6159C92.0701 35.5556 91.9617 35.5314 91.8894 35.5314C91.0217 35.5314 90.0816 35.954 89.0573 36.7749C88.0329 37.6079 86.9844 38.7185 85.9119 40.1189C84.8393 41.5193 83.7908 43.0525 82.7664 44.7185C81.7421 46.3845 80.778 48.0626 79.85 49.7407C78.9221 51.4187 78.1267 52.9761 77.4397 54.3886C76.7649 55.801 76.2346 56.9479 75.8489 57.8171C75.5477 58.6501 75.391 59.2296 75.391 59.5797C75.391 60.1109 75.5959 60.3765 76.0177 60.3765C76.5479 60.3765 77.1143 60.0143 77.7169 59.302C78.1267 58.8071 78.5244 58.3483 78.8738 57.9137C79.2354 57.4791 79.5487 57.298 79.8139 57.3705C80.3441 57.3705 80.7057 57.5153 80.8864 57.793C81.0793 58.0707 81.1877 58.4087 81.2239 58.7829C81.26 59.1572 81.2962 59.5073 81.3323 59.8091C81.5975 60.9801 82.2121 61.958 83.1762 62.7306C84.1403 63.5033 85.4901 63.8896 87.2255 63.8896C89.0814 63.8896 90.7324 63.5878 92.2147 62.9841C93.685 62.3805 94.854 61.5354 95.7217 60.461C96.5894 59.3866 97.0233 58.1672 97.0233 56.8031C97.0233 55.8614 96.7943 54.8715 96.3484 53.8212C95.9025 52.7709 95.1794 51.7326 94.1912 50.6703C93.3596 49.6924 92.4317 48.7628 91.4194 47.8936C90.395 47.0244 89.5152 46.2155 88.7801 45.4791C88.045 44.7427 87.6714 44.1149 87.6714 43.5837C87.6714 43.125 87.9727 42.7266 88.5752 42.3644C89.1778 42.0022 89.6719 41.8212 90.0455 41.8212C90.9132 41.8212 92.0219 41.6521 93.3596 41.3141C94.6973 40.9761 96.0832 40.5053 97.5294 39.9258C98.9635 39.3342 100.277 38.6823 101.47 37.9701C102.663 37.2578 103.543 36.5334 104.109 35.8091C104.447 35.3986 104.724 34.9519 104.929 34.4811C105.134 34.0103 105.242 33.5395 105.242 33.0928C105.242 32.3684 104.929 31.7165 104.302 31.1371C103.676 30.5455 102.627 30.123 101.157 29.8574C100.747 29.7487 100.253 29.6642 99.6866 29.628C99.1202 29.5918 98.5176 29.5676 97.8789 29.5676C95.9507 29.5676 93.7212 29.7487 91.1904 30.1109C88.6596 30.4731 86.0926 30.9922 83.4895 31.6682C80.8864 32.3443 78.4521 33.2014 76.1864 34.2276C73.9207 35.2538 72.0648 36.4369 70.6066 37.7769C69.1484 39.1169 68.3289 40.6018 68.1481 42.2316C68.0758 43.1733 68.2927 43.8976 68.823 44.3926C69.3532 44.8876 69.9799 45.2497 70.691 45.5033C71.402 45.7447 71.9684 45.9861 72.3902 46.2155C72.7276 46.3725 72.8964 46.5173 72.8964 46.6743C72.8964 46.8674 72.6915 46.964 72.2697 46.964C71.8117 46.964 71.2453 46.8554 70.5704 46.626C69.8956 46.3966 69.2207 46.0465 68.5579 45.5757C67.895 45.1049 67.3527 44.5254 66.943 43.8493C66.5332 43.1733 66.3766 42.3765 66.485 41.4711C66.485 41.3986 66.4609 41.2538 66.4248 41.0485C66.3886 40.8433 66.3645 40.6743 66.3645 40.5656C66.473 39.3584 66.9912 38.1994 67.9191 37.1008C68.8471 36.0022 69.9438 35.0002 71.2092 34.0948C72.4746 33.1894 73.6556 32.4288 74.7523 31.8252C75.9574 31.1853 77.4156 30.5817 79.1149 30.0385C80.8141 29.4952 82.6339 29.0123 84.5862 28.5898C86.5265 28.1793 88.5029 27.8413 90.5034 27.5998C92.504 27.3584 94.3719 27.2256 96.1073 27.2256C97.9512 27.2256 99.5781 27.3825 100.976 27.6843C102.868 28.0948 104.314 28.8433 105.339 29.8936C106.363 30.956 106.869 32.127 106.869 33.4067C106.833 34.8071 106.411 36.0264 105.592 37.0646C104.784 38.1028 103.736 38.9841 102.446 39.7085C101.157 40.4328 99.771 41.0244 98.2886 41.4952C96.7943 41.966 95.3361 42.3161 93.9019 42.5455C92.4678 42.7749 91.2145 42.9077 90.166 42.9439C91.7568 43.8855 93.3235 44.9358 94.8902 46.0948C96.4568 47.2538 97.7584 48.5093 98.7948 49.8614C99.8312 51.2256 100.349 52.7226 100.349 54.3403C100.349 55.2457 100.145 56.1874 99.7589 57.1532C99.3733 58.1189 98.7345 59.1451 97.8668 60.2437C96.734 61.6441 95.1553 62.7548 93.1427 63.5878C91.1181 64.4208 88.9609 64.8312 86.659 64.8312L86.6711 64.795Z" fill="white"/>
<path d="M109.038 61.9578C107.978 61.9578 107.05 61.7164 106.266 61.2214C104.941 60.4246 104.29 58.988 104.29 56.9116C104.29 56.0423 104.435 55.0403 104.748 53.9055C105.013 52.9639 105.483 51.9256 106.158 50.815C106.833 49.7043 107.64 48.6299 108.568 47.6037C109.496 46.5776 110.509 45.7446 111.593 45.1047C112.69 44.4649 113.787 44.1389 114.883 44.1389C115.341 44.1389 115.739 44.1993 116.076 44.3079C116.534 44.4528 116.92 44.7305 117.233 45.1289C117.559 45.5273 117.715 46.0343 117.715 46.6379C117.715 47.2778 117.559 47.6399 117.233 47.7124C116.908 47.7848 116.751 47.7124 116.751 47.483C116.751 47.4105 116.751 47.3381 116.775 47.2536C116.787 47.1812 116.799 47.1208 116.799 47.0846C116.799 46.7828 116.715 46.5051 116.546 46.2637C116.378 46.0222 116.064 45.8894 115.606 45.8894C115.004 45.8894 114.257 46.2154 113.365 46.8552C112.473 47.4951 111.569 48.3643 110.641 49.4387C109.713 50.5132 108.906 51.6963 108.207 52.988C107.508 54.2798 107.05 55.5594 106.821 56.8512C106.785 57.0444 106.749 57.2134 106.736 57.3945C106.712 57.5635 106.712 57.7445 106.712 57.9377C106.712 58.8069 106.917 59.5313 107.303 60.1228C107.701 60.7144 108.327 61.0041 109.195 61.0041C110.255 61.0041 111.268 60.5936 112.256 59.7848C113.232 58.9759 114.112 57.9981 114.895 56.8633C115.667 55.7285 116.245 54.7264 116.619 53.8572C116.92 53.1812 117.125 52.5896 117.245 52.0947C117.366 51.5997 117.414 51.1892 117.414 50.8512C117.414 50.5494 117.39 50.2838 117.33 50.0544C117.269 49.825 117.209 49.6439 117.137 49.487C117.065 49.2576 117.028 49.0886 117.028 48.98C117.028 48.6782 117.149 48.4367 117.402 48.2435C117.643 48.0504 117.908 47.9538 118.161 47.9538C118.39 47.9538 118.631 48.0262 118.896 48.1832C119.198 48.2556 119.607 48.316 120.138 48.3522C120.668 48.3884 121.234 48.4126 121.837 48.4126C122.476 48.4126 123.126 48.3884 123.789 48.3522C124.452 48.316 125.03 48.2435 125.513 48.1228C125.585 48.0866 125.705 48.0625 125.85 48.0625C126.115 48.0625 126.248 48.1349 126.248 48.2918C126.248 48.4488 126.115 48.5695 125.85 48.6902C124.524 49.2938 123.343 49.6198 122.307 49.656C121.27 49.6922 120.367 49.7164 119.619 49.7164C119.692 50.658 119.487 51.6721 118.993 52.7466C118.499 53.821 117.992 54.7747 117.462 55.6077C116.823 56.5494 116.088 57.5152 115.257 58.5051C114.425 59.4951 113.497 60.316 112.485 60.9679C111.461 61.6319 110.316 61.9578 109.026 61.9578H109.038Z" fill="white"/>
<path d="M121.729 62.0667C121.464 62.0667 121.391 61.9339 121.5 61.6683C121.608 61.439 121.825 60.9198 122.126 60.111C122.428 59.3021 122.777 58.3243 123.175 57.1895C123.572 56.0547 123.982 54.8836 124.392 53.6764C124.802 52.4691 125.199 51.3343 125.549 50.272C125.91 49.2096 126.2 48.3766 126.429 47.773C126.501 47.5436 126.573 47.2176 126.658 46.783C126.73 46.3484 126.899 45.95 127.14 45.5878C127.381 45.2257 127.815 45.0446 128.417 45.0446C129.55 45.0446 130.116 45.3102 130.116 45.8414C130.116 46.0345 130.02 46.3484 129.827 46.8072C129.369 47.8333 128.887 49.0043 128.357 50.3323C127.827 51.6603 127.357 52.9037 126.947 54.0748C126.525 55.2458 126.212 56.1512 125.983 56.8031C126.356 56.272 126.971 55.5235 127.827 54.5335C128.682 53.5557 129.634 52.4933 130.683 51.3585C131.731 50.2237 132.84 49.1251 133.997 48.0627C135.154 47.0003 136.226 46.1432 137.227 45.4792C138.227 44.8152 139.083 44.4893 139.806 44.4893C140.71 44.4893 141.168 44.9842 141.168 45.9621C141.168 46.3001 141.071 46.8192 140.878 47.4953C140.541 48.4369 140.107 49.3544 139.577 50.2478C139.046 51.1412 138.576 52.0707 138.167 53.0607C137.444 54.8353 137.034 56.272 136.925 57.3705C136.889 57.5154 136.865 57.6603 136.865 57.7931V58.2156C136.865 59.7247 137.371 60.4852 138.396 60.4852C138.962 60.4852 139.721 60.1472 140.661 59.4591C141.601 58.783 142.578 57.9621 143.578 57.0204C144.578 56.0788 145.482 55.1613 146.265 54.2679C147.061 53.3746 147.603 52.7106 147.904 52.2518C148.013 52.1432 148.133 52.0828 148.242 52.0828C148.386 52.0828 148.519 52.1432 148.615 52.2518C148.712 52.3605 148.724 52.5174 148.639 52.7106C148.302 53.3504 147.723 54.1593 146.916 55.1251C146.109 56.0909 145.205 57.0567 144.229 58.0225C143.24 58.9883 142.288 59.8092 141.336 60.4852C140.77 60.8595 140.071 61.2096 139.239 61.5114C138.408 61.8132 137.576 61.946 136.745 61.9098C135.684 61.8011 134.937 61.4269 134.479 60.7991C134.021 60.1714 133.804 59.4229 133.804 58.5536C133.804 57.5275 134.009 56.441 134.395 55.2941C134.792 54.1351 135.238 53.0486 135.72 52.0345C136.214 51.0084 136.612 50.2357 136.913 49.7045C137.215 49.1009 137.371 48.6301 137.371 48.2921C137.371 47.9903 137.239 47.8333 136.974 47.8333C136.709 47.8333 136.311 48.0023 135.781 48.3404C135.25 48.6784 134.539 49.2699 133.623 50.1029C132.792 50.8273 131.9 51.7569 130.96 52.9158C130.02 54.0748 129.104 55.2579 128.212 56.4651C127.32 57.6724 126.549 58.7106 125.886 59.5798C125.224 60.449 124.766 60.9561 124.5 61.113C124.308 61.2217 123.886 61.4148 123.223 61.6804C122.56 61.946 122.066 62.0788 121.717 62.0788L121.729 62.0667Z" fill="white"/>
<path d="M147.277 62.0664C146.976 62.0664 146.904 61.9336 147.048 61.668C147.121 61.4387 147.326 60.8713 147.639 59.9658C147.964 59.0604 148.35 57.9618 148.796 56.6701C149.254 55.3904 149.724 54.0745 150.206 52.7224C150.7 51.3823 151.146 50.1751 151.568 49.1248C151.303 49.4628 150.893 49.9578 150.351 50.5976C149.808 51.2375 149.23 51.9256 148.627 52.6379C148.025 53.3622 147.458 53.9779 146.928 54.5091C146.82 54.6177 146.735 54.6781 146.699 54.6781C146.591 54.6781 146.53 54.5694 146.53 54.3401C146.53 53.8813 146.639 53.4709 146.868 53.0966C147.699 52.0342 148.507 51.0443 149.278 50.1147C150.049 49.1851 150.76 48.3039 151.399 47.4709C151.025 47.2415 150.833 46.9638 150.833 46.6137C150.833 46.0825 151.098 45.8169 151.628 45.8169C151.857 45.8169 152.026 45.8532 152.134 45.9256C152.17 45.9618 152.206 45.986 152.243 45.986C152.279 45.986 152.315 46.0222 152.351 46.0946C152.544 45.829 152.701 45.5876 152.833 45.3582C152.966 45.1288 153.086 44.8874 153.207 44.6218C153.351 44.2837 153.665 43.6318 154.147 42.666C154.617 41.7002 155.207 40.5534 155.93 39.2375C156.641 37.9095 157.473 36.5453 158.389 35.1208C159.317 33.7083 160.317 32.3803 161.39 31.1489C162.462 29.9175 163.583 28.9276 164.728 28.167C165.885 27.4065 167.054 27.0322 168.271 27.0322C168.416 27.0322 168.572 27.0322 168.729 27.0564C168.874 27.0805 169.03 27.1047 169.187 27.1409C170.127 27.334 170.79 27.66 171.163 28.1308C171.537 28.6016 171.73 29.157 171.73 29.8089C171.73 30.2676 171.645 30.7505 171.477 31.2576C171.308 31.7646 171.067 32.2717 170.766 32.7666C170.006 34.0946 169.006 35.4226 167.765 36.7626C166.524 38.1026 165.126 39.4306 163.595 40.7344C162.065 42.0383 160.534 43.3059 159.003 44.5373C157.473 45.7686 156.051 46.9276 154.725 48.0262C153.821 49.9578 153.122 51.6721 152.628 53.157C152.134 54.654 151.761 55.8491 151.495 56.7546C151.905 56.2234 152.532 55.4749 153.363 54.4849C154.195 53.5071 155.135 52.4447 156.195 51.3099C157.256 50.1751 158.353 49.0886 159.486 48.0503C160.618 47.0121 161.691 46.155 162.715 45.491C163.74 44.827 164.607 44.501 165.318 44.501C166.222 44.501 166.68 44.9719 166.68 45.9135C166.68 46.8552 166.355 47.821 165.716 48.9196C165.077 50.0181 164.547 50.9477 164.125 51.6962C163.595 52.7948 163.173 53.8451 162.848 54.8471C162.522 55.8491 162.33 56.6701 162.257 57.3099C162.221 57.4548 162.197 57.5996 162.197 57.7324V58.155C162.197 59.664 162.727 60.4246 163.788 60.4246C164.354 60.4246 165.114 60.0866 166.054 59.3984C166.994 58.7224 167.958 57.9014 168.946 56.9598C169.934 56.0181 170.826 55.1006 171.633 54.2073C172.441 53.3139 172.995 52.6499 173.308 52.1912C173.417 52.0825 173.549 52.0222 173.706 52.0222C173.863 52.0222 173.971 52.0825 174.044 52.1912C174.116 52.2998 174.116 52.4568 174.044 52.6499C173.67 53.2898 173.08 54.0986 172.284 55.0644C171.489 56.0302 170.609 56.996 169.621 57.9618C168.633 58.9276 167.68 59.7485 166.728 60.4246C166.234 60.7988 165.608 61.1369 164.836 61.4145C164.065 61.7043 163.294 61.8371 162.547 61.8371C161.944 61.8371 161.353 61.6922 160.787 61.3783C160.221 61.0765 159.811 60.5091 159.546 59.6761C159.437 59.3381 159.377 58.8672 159.377 58.2636V57.6721C159.377 57.4668 159.401 57.2495 159.437 57.0202C159.582 55.8129 159.992 54.5332 160.655 53.1932C161.317 51.8531 161.932 50.6459 162.498 49.5956C162.643 49.2938 162.776 49.0282 162.872 48.7988C162.968 48.5694 163.017 48.3884 163.017 48.2314C163.017 47.9296 162.884 47.7727 162.619 47.7727C162.354 47.7727 161.944 47.9417 161.378 48.2797C160.811 48.6177 160.052 49.2093 159.112 50.0423C158.28 50.7666 157.401 51.6962 156.473 52.8552C155.545 54.0141 154.641 55.1972 153.749 56.4045C152.857 57.6117 152.086 58.6499 151.423 59.5191C150.76 60.3884 150.302 60.8954 150.037 61.0523C149.844 61.161 149.411 61.3542 148.736 61.6198C148.061 61.8853 147.567 62.0181 147.265 62.0181L147.277 62.0664ZM155.834 45.491C157.34 44.4648 158.991 43.1972 160.763 41.664C162.535 40.1308 164.21 38.489 165.776 36.7264C167.343 34.9638 168.536 33.2978 169.368 31.7043C169.826 30.835 170.043 30.1107 170.043 29.5433C170.043 28.9035 169.753 28.5775 169.187 28.5775C168.922 28.5775 168.62 28.6499 168.283 28.7827C167.946 28.9155 167.548 29.157 167.09 29.495C164.559 31.4628 162.426 33.8049 160.691 36.5091C158.955 39.2133 157.328 42.2073 155.822 45.503L155.834 45.491Z" fill="white"/>
<path d="M177.587 62.1752C175.887 62.1752 174.417 61.7769 173.164 60.9801C171.911 60.1833 171.296 58.976 171.296 57.3463C171.296 56.4771 171.561 55.4147 172.091 54.1712C172.465 53.302 173.164 52.3 174.188 51.1652C175.213 50.0304 176.394 48.9197 177.755 47.8453C179.117 46.7708 180.491 45.8775 181.889 45.1773C183.287 44.4771 184.552 44.127 185.685 44.127C186.095 44.127 186.481 44.1873 186.818 44.296C187.457 44.5253 187.903 44.8875 188.144 45.3704C188.385 45.8533 188.517 46.3724 188.517 46.9036C188.517 47.3986 188.445 47.8694 188.288 48.3161C188.132 48.7748 187.951 49.1732 187.722 49.5113C187.047 50.5374 186.071 51.4428 184.806 52.2396C183.54 53.0364 182.251 53.6521 180.949 54.1109C179.648 54.5696 178.575 54.8352 177.743 54.9076H177.635C177.141 54.9076 176.9 54.7628 176.9 54.4489C176.9 54.2557 177.044 54.1591 177.358 54.1591C178.262 54.0867 179.406 53.6642 180.78 52.8795C182.154 52.1068 183.371 51.298 184.432 50.465C184.89 50.0907 185.42 49.5595 186.047 48.8714C186.673 48.1954 186.987 47.5314 186.987 46.8915C186.987 46.2155 186.661 45.8654 186.023 45.8654C185.685 45.8654 185.336 45.9378 184.974 46.0948C184.613 46.2517 184.323 46.3604 184.094 46.4328C182.998 46.964 181.793 47.7849 180.467 48.8956C179.141 50.0062 177.948 51.2618 176.864 52.638C175.791 54.0143 175.044 55.4147 174.622 56.8151C174.514 57.1169 174.429 57.4066 174.393 57.6964C174.357 57.974 174.333 58.2517 174.333 58.5173C174.333 59.4227 174.622 60.0746 175.213 60.4489C175.803 60.8231 176.502 61.0163 177.334 61.0163C178.575 61.0163 179.864 60.7386 181.19 60.1954C182.516 59.6521 183.793 58.9398 185.047 58.0706C186.3 57.2014 187.433 56.2598 188.469 55.2577C189.506 54.2557 190.385 53.2779 191.108 52.3362C191.217 52.1913 191.349 52.0948 191.506 52.0827C191.663 52.0706 191.747 52.0827 191.795 52.1672C191.94 52.2034 192.024 52.3121 192.024 52.4811C192.024 52.6501 191.988 52.807 191.916 52.964C190.855 54.4368 189.59 55.8734 188.096 57.2738C186.601 58.6742 184.962 59.8332 183.167 60.7628C181.371 61.6923 179.515 62.1511 177.587 62.1511V62.1752Z" fill="white"/>
<path d="M205.45 61.8976C204.775 61.8976 204.16 61.7527 203.642 61.4388C203.112 61.137 202.714 60.5696 202.449 59.7366C202.413 59.5435 202.364 59.3262 202.304 59.0847C202.244 58.8433 202.22 58.5777 202.22 58.3242C202.22 57.4187 202.34 56.3926 202.593 55.2578C202.834 54.123 203.112 53.1813 203.413 52.4207C203.256 52.5294 202.991 52.9157 202.618 53.5556C202.244 54.1954 201.762 54.9439 201.208 55.801C200.641 56.6582 200.002 57.5032 199.303 58.3604C198.604 59.2175 197.845 59.9177 197.038 60.461C196.23 61.0042 195.363 61.2819 194.459 61.2819C193.856 61.2819 193.133 61.1129 192.277 60.7749C191.422 60.4368 190.819 59.966 190.434 59.3503C190.06 58.7467 189.867 57.9861 189.867 57.0807C189.867 55.9821 190.108 54.7869 190.602 53.4831C191.096 52.1793 191.711 50.96 192.47 49.8252C192.735 49.4509 193.037 48.9922 193.374 48.461C193.712 47.9298 194.049 47.471 194.399 47.0726C194.748 46.6743 194.989 46.457 195.134 46.4207C195.592 46.2759 196.11 46.1914 196.724 46.1914C197.363 46.1914 197.833 46.2638 198.146 46.4207C198.412 46.5294 198.544 46.6743 198.544 46.8191C198.544 47.0123 198.388 47.2537 198.086 47.5555C197.664 47.9298 197.098 48.4972 196.387 49.2578C195.664 50.0183 194.965 50.9238 194.266 51.9861C193.567 53.0485 192.988 54.2195 192.543 55.4992C192.169 56.5254 191.976 57.4067 191.976 58.1672C191.976 59.4952 192.506 60.1471 193.567 60.1471C194.471 60.1471 195.435 59.7729 196.459 59.0123C197.484 58.2517 198.472 57.3342 199.436 56.2356C200.4 55.137 201.268 54.0505 202.039 52.9761C202.81 51.9016 203.401 51.0324 203.823 50.3926C204.196 49.8614 204.63 49.1853 205.1 48.3523C205.57 47.5193 206.04 46.7105 206.486 45.9137C206.932 45.1169 207.293 44.5374 207.559 44.1511C207.824 44.1511 208.234 44.1994 208.776 44.296C209.318 44.3926 209.8 44.5495 210.198 44.7789C210.596 45.0083 210.692 45.2859 210.511 45.636C210.282 46.0103 209.933 46.6018 209.463 47.3986C208.993 48.1954 208.523 48.9922 208.053 49.8131C207.583 50.6219 207.209 51.2739 206.944 51.7688C206.04 53.5073 205.45 55.3785 205.184 57.3825C205.148 57.5274 205.124 57.6723 205.124 57.805V58.2276C205.124 59.7366 205.63 60.4972 206.655 60.4972C207.221 60.4972 207.98 60.1592 208.92 59.471C209.86 58.795 210.837 57.9741 211.837 57.0324C212.837 56.0908 213.741 55.1733 214.56 54.2799C215.368 53.3865 215.922 52.7226 216.236 52.2638C216.308 52.1551 216.428 52.0948 216.573 52.0948C216.718 52.0948 216.85 52.1551 216.947 52.2638C217.043 52.3725 217.031 52.5294 216.923 52.7225C216.585 53.3624 216.007 54.1712 215.199 55.137C214.392 56.1028 213.488 57.0686 212.512 58.0344C211.524 59.0002 210.571 59.8211 209.619 60.4972C209.125 60.8714 208.511 61.2095 207.751 61.4871C206.992 61.7769 206.245 61.9097 205.486 61.9097L205.45 61.8976Z" fill="white"/>
<path d="M222.779 62.0062C222.141 62.0062 221.574 61.8613 221.08 61.5837C220.586 61.2939 220.249 60.7628 220.056 59.966C219.947 59.5555 219.887 59.133 219.887 58.7225C219.887 57.5877 220.176 56.477 220.767 55.4026C221.357 54.3282 222.044 53.3261 222.828 52.3966C223.623 51.467 224.298 50.6823 224.864 50.0424C225.166 49.7406 225.515 49.3422 225.913 48.8473C226.311 48.3523 226.503 47.8694 226.503 47.3744C226.503 47.0726 226.347 46.7829 226.045 46.4931C225.744 46.2034 225.19 46.0102 224.406 45.9016C223.948 45.8292 223.527 45.7567 223.129 45.7084C222.731 45.6601 222.322 45.6239 221.912 45.6239C220.851 47.0605 219.827 48.5092 218.827 49.97C217.826 51.4308 216.754 52.8553 215.621 54.2557C215.356 54.5213 215.127 54.6541 214.946 54.6541C214.717 54.6541 214.609 54.5455 214.609 54.3161C214.609 54.0867 214.717 53.8573 214.946 53.64C216.983 51.141 218.742 48.473 220.213 45.636C220.02 45.636 219.743 45.636 219.357 45.6119C218.971 45.5877 218.682 45.5636 218.453 45.5273C218.188 45.4549 217.983 45.3342 217.826 45.1893C217.67 45.0445 217.597 44.8875 217.597 44.7306C217.597 44.5012 217.694 44.3684 217.887 44.3322C218.381 44.1873 218.911 43.9579 219.477 43.6561C220.044 43.3543 220.574 42.9559 221.068 42.4609C221.598 41.9298 222.093 41.3744 222.538 40.7829C222.996 40.1913 223.346 39.7567 223.611 39.4549C223.876 39.2618 224.153 39.1772 224.467 39.1772C224.659 39.1772 224.84 39.2376 225.009 39.3463C225.178 39.4549 225.262 39.636 225.262 39.8533C225.262 40.1189 225.154 40.4569 224.925 40.8795C224.587 41.4106 224.214 41.9901 223.816 42.642C223.418 43.2939 223.057 43.8734 222.707 44.4046C223.382 44.4408 224.069 44.477 224.744 44.5133C225.419 44.5495 226.118 44.5736 226.841 44.5736C227.214 44.5736 227.588 44.5736 227.95 44.5495C228.311 44.5253 228.673 44.5253 229.058 44.5253C230.191 44.5253 230.758 44.8151 230.758 45.3825C230.758 45.7567 230.553 46.2275 230.167 46.7708C229.769 47.3261 229.287 47.9177 228.721 48.5575C227.431 50.0304 226.347 51.5877 225.431 53.2054C224.527 54.8352 223.924 56.0787 223.623 56.9479C223.322 57.8533 223.165 58.5414 223.165 58.9881C223.165 59.8935 223.527 60.3523 224.238 60.3523C224.876 60.3523 225.66 60.0263 226.588 59.3865C227.516 58.7467 228.468 57.962 229.444 57.0324C230.42 56.1028 231.312 55.1974 232.107 54.304C232.903 53.4106 233.469 52.7467 233.807 52.2879C233.879 52.1793 233.999 52.1189 234.144 52.1189C234.289 52.1189 234.421 52.1793 234.542 52.3121C234.65 52.4449 234.65 52.6018 234.542 52.795C234.12 53.4348 233.517 54.2436 232.734 55.2094C231.939 56.1752 231.059 57.129 230.071 58.0706C229.094 59.0123 228.13 59.8332 227.178 60.5092C226.684 60.8835 226.021 61.2336 225.166 61.5595C224.31 61.8855 223.515 62.0424 222.755 62.0424L222.779 62.0062Z" fill="white"/>
<path d="M94.9984 84.0743C93.6487 84.0743 91.9374 83.9174 90.1899 83.3259C86.4178 82.0462 83.9834 79.2816 83.887 79.1729L83.2122 78.4003L84.2245 78.1951C84.3691 78.1589 87.9845 77.4466 91.7566 78.7142C95.5287 79.9939 97.9631 82.7585 98.0595 82.8671L98.7344 83.6397L97.722 83.845C97.6377 83.857 96.5651 84.0743 95.0105 84.0743H94.9984ZM85.6345 79.2092C86.6107 80.0784 88.3461 81.4305 90.5635 82.179C92.793 82.9275 94.9864 82.9154 96.2879 82.8067C95.3118 81.9375 93.5764 80.5854 91.3589 79.8369C89.1414 79.0884 86.936 79.1005 85.6345 79.2092Z" fill="white"/>
<path d="M107.496 84.8712L106.483 84.6659C106.339 84.6418 103 83.9536 100.229 81.5029C97.4567 79.0522 96.3721 75.8048 96.3239 75.672L95.9985 74.6941L97.0108 74.8993C97.1555 74.9235 100.494 75.6116 103.266 78.0623C106.037 80.513 107.122 83.7605 107.17 83.8933L107.496 84.8712ZM97.9388 76.4084C98.4691 77.507 99.4573 79.2092 101.024 80.5975C102.603 81.9979 104.41 82.7706 105.567 83.1448C105.037 82.0462 104.049 80.344 102.482 78.9557C100.916 77.5673 99.0957 76.7947 97.9509 76.4084H97.9388Z" fill="white"/>
<path d="M116.739 86.1992L115.727 85.994C115.618 85.9698 113.027 85.4386 110.87 83.5432C108.725 81.6479 107.881 79.1247 107.845 79.0282L107.52 78.0503L108.532 78.2555C108.641 78.2797 111.244 78.7988 113.389 80.7062C115.534 82.6016 116.378 85.1247 116.414 85.2334L116.739 86.2113V86.1992ZM109.496 79.8008C109.918 80.6217 110.629 81.7203 111.665 82.6499C112.714 83.5674 113.895 84.1348 114.751 84.4608C114.329 83.6519 113.618 82.5412 112.581 81.6117C111.533 80.6942 110.352 80.1268 109.496 79.8008Z" fill="white"/>
<path d="M95.9985 95.0001L96.3239 94.0222C96.3721 93.8894 97.4567 90.6419 100.229 88.1912C103 85.7405 106.351 85.0644 106.483 85.0282L107.496 84.823L107.17 85.8009C107.122 85.9337 106.037 89.1811 103.266 91.6319C100.494 94.0826 97.1434 94.7586 97.0108 94.7948L95.9985 95.0001ZM105.555 86.5373C104.41 86.9236 102.591 87.6962 101.024 89.0846C99.4573 90.4729 98.457 92.1872 97.9388 93.2737C99.0837 92.8874 100.903 92.1147 102.47 90.7264C104.037 89.3381 105.037 87.6238 105.555 86.5373Z" fill="white"/>
<path d="M107.532 93.5512L107.857 92.5734C107.893 92.4647 108.737 89.9537 110.882 88.0583C113.027 86.1629 115.63 85.6317 115.739 85.6076L116.751 85.4023L116.426 86.3802C116.39 86.4889 115.546 88.9999 113.401 90.9074C111.256 92.8028 108.653 93.3339 108.544 93.3581L107.532 93.5633V93.5512ZM114.775 87.1529C113.919 87.4667 112.726 88.0341 111.689 88.9637C110.641 89.8812 109.942 90.9919 109.52 91.8128C110.376 91.4869 111.569 90.9315 112.605 90.0019C113.654 89.0844 114.353 87.9738 114.775 87.1529Z" fill="white"/>
<path d="M120.451 86.839C112.148 86.839 97.4932 83.676 96.7942 83.5312L96.987 82.6257C97.1798 82.674 116.812 86.8994 123.5 85.7042L123.669 86.6217C122.777 86.7786 121.692 86.8511 120.463 86.8511L120.451 86.839Z" fill="white"/>
<path d="M152.001 84.0743C150.435 84.0743 149.362 83.857 149.29 83.8449L148.278 83.6397L148.952 82.867C149.049 82.7463 151.483 79.9817 155.255 78.7141C159.027 77.4344 162.631 78.1588 162.787 78.195L163.8 78.4002L163.125 79.1729C163.028 79.2936 160.594 82.0582 156.822 83.3258C155.075 83.9173 153.363 84.0743 152.014 84.0743H152.001ZM150.712 82.8067C152.014 82.9153 154.219 82.9274 156.436 82.1789C158.654 81.4304 160.401 80.0904 161.365 79.2091C160.064 79.1004 157.858 79.0884 155.641 79.8369C153.411 80.5854 151.676 81.9375 150.712 82.8067Z" fill="white"/>
<path d="M139.504 84.8712L139.83 83.8933C139.878 83.7605 140.962 80.513 143.734 78.0623C146.506 75.6116 149.856 74.9355 149.989 74.8993L151.001 74.6941L150.676 75.672C150.628 75.8048 149.543 79.0522 146.771 81.5029C143.999 83.9536 140.649 84.6297 140.516 84.6659L139.504 84.8712ZM149.073 76.4084C147.928 76.7947 146.108 77.5673 144.53 78.9557C142.963 80.344 141.963 82.0583 141.444 83.1448C142.601 82.7585 144.409 81.9858 145.976 80.5975C147.554 79.1971 148.543 77.4949 149.073 76.4084Z" fill="white"/>
<path d="M130.261 86.1993L130.586 85.2214C130.622 85.1128 131.466 82.6017 133.611 80.6943C135.756 78.7989 138.359 78.2677 138.468 78.2436L139.48 78.0383L139.155 79.0162C139.119 79.1249 138.275 81.6359 136.13 83.5313C133.985 85.4267 131.382 85.9578 131.273 85.982L130.261 86.1872V86.1993ZM137.504 79.8009C136.648 80.1269 135.455 80.6822 134.418 81.6118C133.37 82.5293 132.671 83.6399 132.249 84.4609C133.105 84.147 134.298 83.5796 135.334 82.65C136.383 81.7325 137.082 80.6218 137.504 79.8009Z" fill="white"/>
<path d="M151.001 95.0001L149.989 94.7948C149.844 94.7707 146.506 94.0826 143.734 91.6319C140.962 89.1811 139.878 85.9337 139.83 85.8009L139.504 84.823L140.516 85.0282C140.661 85.0524 143.999 85.7405 146.771 88.1912C149.543 90.6419 150.628 93.8894 150.676 94.0222L151.001 95.0001ZM141.444 86.5373C141.975 87.6359 142.963 89.3381 144.53 90.7264C146.096 92.1147 147.916 92.8874 149.061 93.2737C148.531 92.1751 147.542 90.4729 145.976 89.0846C144.409 87.6962 142.589 86.9236 141.444 86.5373Z" fill="white"/>
<path d="M139.468 93.5513L138.456 93.3461C138.347 93.322 135.744 92.8029 133.599 90.8954C131.454 89 130.61 86.4769 130.574 86.3683L130.249 85.3904L131.261 85.5956C131.37 85.6198 133.961 86.1509 136.118 88.0463C138.263 89.9417 139.107 92.4648 139.143 92.5614L139.468 93.5393V93.5513ZM132.225 87.153C132.647 87.9618 133.358 89.0725 134.394 90.0021C135.443 90.9196 136.624 91.487 137.48 91.8129C137.058 90.992 136.347 89.8934 135.31 88.9638C134.262 88.0463 133.081 87.4789 132.225 87.153Z" fill="white"/>
<path d="M126.549 86.839C134.852 86.839 149.507 83.676 150.206 83.5312L150.013 82.6257C149.82 82.674 130.189 86.8994 123.5 85.7042L123.331 86.6217C124.223 86.7786 125.308 86.8511 126.537 86.8511L126.549 86.839Z" fill="white"/>
<path d="M122.03 36.2433C121.897 36.2433 121.777 36.2312 121.644 36.2433C118.872 36.6779 116.956 35.1326 115.185 33.37C113.377 31.5833 112.726 29.3378 112.823 26.8268C112.847 26.0541 113.124 25.7644 113.883 25.7644C119.427 25.7644 124.971 25.7644 130.502 25.7644C131.225 25.7644 131.936 25.9696 132.659 25.9696C133.623 25.9696 134.491 26.1749 134.925 27.0924C135.395 28.0823 135.311 29.1568 134.575 29.9777C134.057 30.5572 133.358 31.2332 132.647 31.3539C130.671 31.6799 129.369 32.8509 128.044 34.2151C126.393 35.9173 125.103 36.2312 122.018 36.2433H122.03ZM132.286 27.0199C132.141 27.1286 131.551 27.3459 131.406 27.7201C131.105 28.4928 131.02 29.362 130.912 30.2071C130.888 30.364 131.093 30.69 131.237 30.7141C132.262 30.8952 133.744 29.9173 134.045 28.9032C134.371 27.8288 133.816 27.0682 132.286 27.0079V27.0199Z" fill="white"/>
<path d="M118.776 7.54715C119.27 7.54715 119.764 7.523 120.246 7.54715C121.042 7.60751 121.536 7.3057 121.741 6.50892C121.849 6.06224 122.066 5.65178 122.319 4.98779C122.572 5.59141 122.801 5.97773 122.898 6.40027C123.127 7.31777 123.693 7.63166 124.585 7.54715C124.995 7.51093 125.428 7.54715 125.838 7.54715C125.886 7.63166 125.923 7.71616 125.971 7.81274C125.573 8.1387 125.224 8.53709 124.79 8.79061C124.115 9.17693 123.946 9.65983 124.175 10.3721C124.332 10.8429 124.404 11.35 124.549 11.9777C124.284 11.857 124.127 11.8208 124.006 11.7363C122.882 10.9878 121.729 10.9958 120.548 11.7604C120.451 11.8208 120.331 11.8449 120.15 11.9053C120.307 11.024 120.74 10.1065 120.499 9.43045C120.282 8.79061 119.342 8.41636 118.716 7.92139C118.74 7.80067 118.764 7.67995 118.788 7.55922L118.776 7.54715Z" fill="white"/>
<path d="M122.078 39.0681C119.234 38.9595 116.426 38.8025 113.678 38.0782C113.184 37.9454 112.726 37.716 112.268 37.4987C112.16 37.4504 112.063 37.1969 112.1 37.0883C112.136 36.9796 112.353 36.8589 112.485 36.871C112.774 36.8951 113.064 37.0038 113.365 37.052C115.522 37.3297 117.667 37.7281 119.824 37.8247C123.705 38.0058 127.586 37.9454 131.394 36.9796C131.647 36.9192 131.96 37.1124 132.249 37.1848C132.057 37.3901 131.912 37.704 131.671 37.7764C130.984 38.0058 130.285 38.2351 129.574 38.3196C127.079 38.6094 124.585 38.8267 122.078 39.0681Z" fill="white"/>
<path d="M122.596 16.1667C122.379 16.9032 121.946 17.6396 122.03 18.3036C122.114 18.9555 122.741 19.535 123.078 20.1627C123.464 20.8871 123.38 21.4907 122.681 22.0581C121.958 22.6496 121.054 23.1446 121.054 24.4726C120.524 23.3861 120.632 22.8187 121.379 22.034C122.094 21.2774 122.191 20.4404 121.668 19.5229C120.933 18.2191 121.235 17.0601 122.584 16.1667H122.596Z" fill="white"/>
</g>
<path d="M9.9 117.256C9.852 117.712 9.816 118.156 9.792 118.588C9.78 119.008 9.774 119.332 9.774 119.56C9.774 119.788 9.78 120.004 9.792 120.208C9.804 120.412 9.816 120.58 9.828 120.712H9.414C9.33 119.944 9.198 119.338 9.018 118.894C8.85 118.45 8.592 118.138 8.244 117.958C7.908 117.766 7.434 117.67 6.822 117.67H5.58C5.196 117.67 4.902 117.706 4.698 117.778C4.506 117.838 4.374 117.97 4.302 118.174C4.23 118.366 4.194 118.672 4.194 119.092V128.164C4.194 128.572 4.23 128.878 4.302 129.082C4.374 129.286 4.506 129.424 4.698 129.496C4.902 129.556 5.196 129.586 5.58 129.586H6.75C7.434 129.586 7.974 129.478 8.37 129.262C8.778 129.046 9.084 128.692 9.288 128.2C9.504 127.708 9.666 127.036 9.774 126.184H10.188C10.152 126.532 10.134 126.988 10.134 127.552C10.134 127.792 10.14 128.14 10.152 128.596C10.176 129.052 10.212 129.52 10.26 130C9.648 129.976 8.958 129.964 8.19 129.964C7.422 129.952 6.738 129.946 6.138 129.946C5.862 129.946 5.508 129.946 5.076 129.946C4.644 129.946 4.176 129.952 3.672 129.964C3.18 129.964 2.676 129.97 2.16 129.982C1.656 129.982 1.17 129.988 0.702 130V129.64C1.11 129.616 1.416 129.568 1.62 129.496C1.824 129.424 1.956 129.28 2.016 129.064C2.088 128.848 2.124 128.524 2.124 128.092V119.164C2.124 118.72 2.088 118.396 2.016 118.192C1.956 117.976 1.818 117.832 1.602 117.76C1.398 117.676 1.098 117.628 0.702 117.616V117.256C1.17 117.268 1.656 117.28 2.16 117.292C2.676 117.292 3.18 117.298 3.672 117.31C4.176 117.31 4.644 117.31 5.076 117.31C5.508 117.31 5.862 117.31 6.138 117.31C6.69 117.31 7.314 117.31 8.01 117.31C8.718 117.298 9.348 117.28 9.9 117.256ZM6.912 123.412C6.912 123.412 6.912 123.472 6.912 123.592C6.912 123.712 6.912 123.772 6.912 123.772H3.654C3.654 123.772 3.654 123.712 3.654 123.592C3.654 123.472 3.654 123.412 3.654 123.412H6.912ZM7.434 121.036C7.386 121.72 7.362 122.242 7.362 122.602C7.374 122.962 7.38 123.292 7.38 123.592C7.38 123.892 7.386 124.222 7.398 124.582C7.41 124.942 7.44 125.464 7.488 126.148H7.074C7.014 125.752 6.936 125.374 6.84 125.014C6.744 124.642 6.57 124.342 6.318 124.114C6.078 123.886 5.7 123.772 5.184 123.772V123.412C5.568 123.412 5.868 123.334 6.084 123.178C6.312 123.022 6.486 122.818 6.606 122.566C6.726 122.314 6.81 122.056 6.858 121.792C6.918 121.516 6.972 121.264 7.02 121.036H7.434ZM19.9482 120.712V121.072C19.7202 121.108 19.5042 121.228 19.3002 121.432C19.1082 121.624 18.9282 121.96 18.7602 122.44L15.9162 130.072C15.8202 130.072 15.7182 130.072 15.6102 130.072C15.5142 130.072 15.4182 130.072 15.3222 130.072L12.0462 122.098C11.8542 121.63 11.6622 121.348 11.4702 121.252C11.2902 121.144 11.1342 121.09 11.0022 121.09V120.712C11.2902 120.736 11.5842 120.76 11.8842 120.784C12.1962 120.796 12.5382 120.802 12.9102 120.802C13.2822 120.802 13.6722 120.796 14.0802 120.784C14.5002 120.76 14.8902 120.736 15.2502 120.712V121.09C14.9622 121.09 14.7042 121.108 14.4762 121.144C14.2602 121.18 14.1162 121.288 14.0442 121.468C13.9842 121.636 14.0262 121.93 14.1702 122.35L16.3842 127.93L16.2402 128.074L18.0942 123.16C18.2742 122.68 18.3462 122.296 18.3102 122.008C18.2742 121.708 18.1482 121.486 17.9322 121.342C17.7162 121.186 17.4042 121.096 16.9962 121.072V120.712C17.2002 120.724 17.3862 120.736 17.5542 120.748C17.7342 120.748 17.9022 120.754 18.0582 120.766C18.2262 120.766 18.4002 120.766 18.5802 120.766C18.8442 120.766 19.0902 120.76 19.3182 120.748C19.5582 120.736 19.7682 120.724 19.9482 120.712ZM24.743 120.46C25.799 120.46 26.627 120.778 27.227 121.414C27.827 122.05 28.127 123.058 28.127 124.438H21.917L21.881 124.096H26.219C26.231 123.508 26.183 122.968 26.075 122.476C25.967 121.972 25.799 121.57 25.571 121.27C25.343 120.97 25.043 120.82 24.671 120.82C24.155 120.82 23.705 121.096 23.321 121.648C22.949 122.188 22.721 123.058 22.637 124.258L22.691 124.348C22.679 124.516 22.667 124.702 22.655 124.906C22.643 125.098 22.637 125.29 22.637 125.482C22.637 126.31 22.763 127.006 23.015 127.57C23.267 128.134 23.597 128.56 24.005 128.848C24.413 129.124 24.827 129.262 25.247 129.262C25.571 129.262 25.883 129.214 26.183 129.118C26.495 129.01 26.789 128.836 27.065 128.596C27.341 128.344 27.587 128.002 27.803 127.57L28.163 127.714C28.019 128.122 27.797 128.524 27.497 128.92C27.197 129.316 26.813 129.64 26.345 129.892C25.877 130.132 25.331 130.252 24.707 130.252C23.867 130.252 23.135 130.066 22.511 129.694C21.887 129.31 21.407 128.764 21.071 128.056C20.735 127.348 20.567 126.508 20.567 125.536C20.567 124.468 20.741 123.556 21.089 122.8C21.437 122.044 21.923 121.468 22.547 121.072C23.183 120.664 23.915 120.46 24.743 120.46ZM35.1277 120.46C35.4757 120.46 35.7697 120.532 36.0097 120.676C36.2617 120.82 36.4477 121.006 36.5677 121.234C36.6997 121.45 36.7657 121.696 36.7657 121.972C36.7657 122.32 36.6577 122.62 36.4417 122.872C36.2377 123.112 35.9617 123.232 35.6137 123.232C35.3137 123.232 35.0557 123.142 34.8397 122.962C34.6357 122.782 34.5337 122.536 34.5337 122.224C34.5337 121.96 34.5997 121.738 34.7317 121.558C34.8757 121.366 35.0377 121.216 35.2177 121.108C35.0977 121.012 34.9537 120.97 34.7857 120.982C34.4617 120.994 34.1617 121.102 33.8857 121.306C33.6097 121.498 33.3757 121.75 33.1837 122.062C32.9917 122.362 32.8417 122.686 32.7337 123.034C32.6257 123.382 32.5717 123.706 32.5717 124.006V128.146C32.5717 128.734 32.7337 129.13 33.0577 129.334C33.3817 129.526 33.8317 129.622 34.4077 129.622V130C34.1317 129.988 33.7357 129.976 33.2197 129.964C32.7157 129.94 32.1817 129.928 31.6177 129.928C31.1857 129.928 30.7537 129.94 30.3217 129.964C29.8897 129.976 29.5597 129.988 29.3317 130V129.622C29.7997 129.622 30.1297 129.532 30.3217 129.352C30.5257 129.172 30.6277 128.83 30.6277 128.326V122.674C30.6277 122.134 30.5377 121.738 30.3577 121.486C30.1777 121.222 29.8357 121.09 29.3317 121.09V120.712C29.7157 120.748 30.0877 120.766 30.4477 120.766C30.8557 120.766 31.2337 120.748 31.5817 120.712C31.9417 120.664 32.2717 120.598 32.5717 120.514V122.584C32.7157 122.236 32.9077 121.9 33.1477 121.576C33.3877 121.252 33.6757 120.988 34.0117 120.784C34.3477 120.568 34.7197 120.46 35.1277 120.46ZM45.9844 120.712V121.072C45.7564 121.108 45.5464 121.228 45.3544 121.432C45.1624 121.624 44.9764 121.96 44.7964 122.44L41.9884 129.964L41.5564 130.396L38.0464 122.098C37.8184 121.63 37.5964 121.348 37.3804 121.252C37.1764 121.144 37.0024 121.09 36.8584 121.09V120.712C37.1584 120.748 37.4764 120.778 37.8124 120.802C38.1484 120.814 38.4964 120.82 38.8564 120.82C39.2644 120.82 39.6724 120.808 40.0804 120.784C40.5004 120.76 40.8904 120.736 41.2504 120.712V121.09C40.9624 121.09 40.7044 121.114 40.4764 121.162C40.2604 121.198 40.1164 121.312 40.0444 121.504C39.9844 121.684 40.0444 121.996 40.2244 122.44L42.4564 127.93L42.3304 127.984L44.1484 123.16C44.3284 122.68 44.4004 122.296 44.3644 122.008C44.3284 121.708 44.2024 121.486 43.9864 121.342C43.7704 121.186 43.4524 121.096 43.0324 121.072V120.712C43.2364 120.724 43.4224 120.736 43.5904 120.748C43.7704 120.748 43.9444 120.754 44.1124 120.766C44.2804 120.766 44.4484 120.766 44.6164 120.766C44.8804 120.766 45.1264 120.76 45.3544 120.748C45.5944 120.736 45.8044 120.724 45.9844 120.712ZM41.9884 129.964L41.3404 131.656C41.2204 131.956 41.0944 132.208 40.9624 132.412C40.8424 132.616 40.7104 132.784 40.5664 132.916C40.3864 133.084 40.1644 133.204 39.9004 133.276C39.6364 133.348 39.3724 133.384 39.1084 133.384C38.8564 133.384 38.6164 133.336 38.3884 133.24C38.1724 133.156 37.9924 133.024 37.8484 132.844C37.7044 132.664 37.6324 132.442 37.6324 132.178C37.6324 131.866 37.7344 131.614 37.9384 131.422C38.1424 131.23 38.4124 131.134 38.7484 131.134C39.0484 131.134 39.3004 131.212 39.5044 131.368C39.7084 131.536 39.8104 131.776 39.8104 132.088C39.8104 132.304 39.7504 132.49 39.6304 132.646C39.5224 132.802 39.3784 132.922 39.1984 133.006C39.2344 133.018 39.2704 133.024 39.3064 133.024C39.3424 133.024 39.3724 133.024 39.3964 133.024C39.7324 133.024 40.0324 132.91 40.2964 132.682C40.5604 132.466 40.7824 132.112 40.9624 131.62L41.6104 129.892L41.9884 129.964ZM54.8592 115.888V128.038C54.8592 128.578 54.9492 128.98 55.1292 129.244C55.3212 129.496 55.6632 129.622 56.1552 129.622V130C55.7832 129.964 55.4112 129.946 55.0392 129.946C54.6312 129.946 54.2472 129.964 53.8872 130C53.5392 130.036 53.2152 130.102 52.9152 130.198V118.048C52.9152 117.508 52.8192 117.112 52.6272 116.86C52.4472 116.596 52.1112 116.464 51.6192 116.464V116.086C52.0032 116.122 52.3752 116.14 52.7352 116.14C53.1312 116.14 53.5092 116.122 53.8692 116.086C54.2292 116.038 54.5592 115.972 54.8592 115.888ZM50.8092 120.46C51.3372 120.46 51.8172 120.574 52.2492 120.802C52.6932 121.03 53.0052 121.414 53.1852 121.954L52.9692 122.152C52.8012 121.72 52.5552 121.408 52.2312 121.216C51.9072 121.012 51.5412 120.91 51.1332 120.91C50.4492 120.91 49.8912 121.276 49.4592 122.008C49.0272 122.728 48.8172 123.844 48.8292 125.356C48.8292 126.352 48.9132 127.168 49.0812 127.804C49.2492 128.428 49.4952 128.89 49.8192 129.19C50.1552 129.49 50.5572 129.64 51.0252 129.64C51.4932 129.64 51.9132 129.442 52.2852 129.046C52.6692 128.65 52.8972 128.08 52.9692 127.336L53.1312 127.714C53.0112 128.53 52.7232 129.16 52.2672 129.604C51.8112 130.036 51.1992 130.252 50.4312 130.252C49.6992 130.252 49.0512 130.078 48.4872 129.73C47.9352 129.37 47.5092 128.83 47.2092 128.11C46.9092 127.378 46.7592 126.46 46.7592 125.356C46.7592 124.264 46.9392 123.358 47.2992 122.638C47.6712 121.906 48.1632 121.36 48.7752 121C49.3872 120.64 50.0652 120.46 50.8092 120.46ZM59.5377 130.126C59.0337 130.126 58.6017 130.03 58.2417 129.838C57.8817 129.646 57.6117 129.382 57.4317 129.046C57.2517 128.71 57.1617 128.326 57.1617 127.894C57.1617 127.366 57.2817 126.94 57.5217 126.616C57.7617 126.28 58.0677 126.01 58.4397 125.806C58.8237 125.602 59.2257 125.434 59.6457 125.302C60.0777 125.158 60.4797 125.026 60.8517 124.906C61.2357 124.774 61.5477 124.624 61.7877 124.456C62.0397 124.288 62.1657 124.066 62.1657 123.79V122.566C62.1657 122.134 62.0937 121.792 61.9497 121.54C61.8177 121.276 61.6317 121.09 61.3917 120.982C61.1637 120.874 60.8877 120.82 60.5637 120.82C60.2877 120.82 59.9937 120.862 59.6817 120.946C59.3697 121.018 59.1237 121.168 58.9437 121.396C59.2077 121.468 59.4237 121.612 59.5917 121.828C59.7717 122.032 59.8617 122.29 59.8617 122.602C59.8617 122.938 59.7477 123.202 59.5197 123.394C59.3037 123.586 59.0277 123.682 58.6917 123.682C58.3197 123.682 58.0437 123.568 57.8637 123.34C57.6837 123.1 57.5937 122.824 57.5937 122.512C57.5937 122.188 57.6717 121.924 57.8277 121.72C57.9957 121.516 58.2117 121.324 58.4757 121.144C58.7637 120.952 59.1297 120.79 59.5737 120.658C60.0297 120.526 60.5337 120.46 61.0857 120.46C61.6017 120.46 62.0457 120.52 62.4177 120.64C62.8017 120.748 63.1197 120.928 63.3717 121.18C63.6717 121.456 63.8697 121.804 63.9657 122.224C64.0617 122.632 64.1097 123.13 64.1097 123.718V128.686C64.1097 128.986 64.1457 129.202 64.2177 129.334C64.3017 129.454 64.4337 129.514 64.6137 129.514C64.7337 129.514 64.8477 129.484 64.9557 129.424C65.0757 129.364 65.2137 129.274 65.3697 129.154L65.5497 129.46C65.2977 129.664 65.0397 129.826 64.7757 129.946C64.5237 130.066 64.1997 130.126 63.8037 130.126C63.4197 130.126 63.1077 130.066 62.8677 129.946C62.6277 129.826 62.4477 129.652 62.3277 129.424C62.2197 129.196 62.1657 128.914 62.1657 128.578C61.8537 129.082 61.4817 129.466 61.0497 129.73C60.6177 129.994 60.1137 130.126 59.5377 130.126ZM60.4017 129.262C60.7377 129.262 61.0497 129.166 61.3377 128.974C61.6377 128.782 61.9137 128.494 62.1657 128.11V124.528C62.0337 124.72 61.8417 124.888 61.5897 125.032C61.3377 125.164 61.0677 125.302 60.7797 125.446C60.4917 125.59 60.2157 125.758 59.9517 125.95C59.6997 126.13 59.4897 126.364 59.3217 126.652C59.1537 126.94 59.0697 127.306 59.0697 127.75C59.0697 128.218 59.1897 128.59 59.4297 128.866C59.6697 129.13 59.9937 129.262 60.4017 129.262ZM74.4785 120.712V121.072C74.2505 121.108 74.0405 121.228 73.8485 121.432C73.6565 121.624 73.4705 121.96 73.2905 122.44L70.4825 129.964L70.0505 130.396L66.5405 122.098C66.3125 121.63 66.0905 121.348 65.8745 121.252C65.6705 121.144 65.4965 121.09 65.3525 121.09V120.712C65.6525 120.748 65.9705 120.778 66.3065 120.802C66.6425 120.814 66.9905 120.82 67.3505 120.82C67.7585 120.82 68.1665 120.808 68.5745 120.784C68.9945 120.76 69.3845 120.736 69.7445 120.712V121.09C69.4565 121.09 69.1985 121.114 68.9705 121.162C68.7545 121.198 68.6105 121.312 68.5385 121.504C68.4785 121.684 68.5385 121.996 68.7185 122.44L70.9505 127.93L70.8245 127.984L72.6425 123.16C72.8225 122.68 72.8945 122.296 72.8585 122.008C72.8225 121.708 72.6965 121.486 72.4805 121.342C72.2645 121.186 71.9465 121.096 71.5265 121.072V120.712C71.7305 120.724 71.9165 120.736 72.0845 120.748C72.2645 120.748 72.4385 120.754 72.6065 120.766C72.7745 120.766 72.9425 120.766 73.1105 120.766C73.3745 120.766 73.6205 120.76 73.8485 120.748C74.0885 120.736 74.2985 120.724 74.4785 120.712ZM70.4825 129.964L69.8345 131.656C69.7145 131.956 69.5885 132.208 69.4565 132.412C69.3365 132.616 69.2045 132.784 69.0605 132.916C68.8805 133.084 68.6585 133.204 68.3945 133.276C68.1305 133.348 67.8665 133.384 67.6025 133.384C67.3505 133.384 67.1105 133.336 66.8825 133.24C66.6665 133.156 66.4865 133.024 66.3425 132.844C66.1985 132.664 66.1265 132.442 66.1265 132.178C66.1265 131.866 66.2285 131.614 66.4325 131.422C66.6365 131.23 66.9065 131.134 67.2425 131.134C67.5425 131.134 67.7945 131.212 67.9985 131.368C68.2025 131.536 68.3045 131.776 68.3045 132.088C68.3045 132.304 68.2445 132.49 68.1245 132.646C68.0165 132.802 67.8725 132.922 67.6925 133.006C67.7285 133.018 67.7645 133.024 67.8005 133.024C67.8365 133.024 67.8665 133.024 67.8905 133.024C68.2265 133.024 68.5265 132.91 68.7905 132.682C69.0545 132.466 69.2765 132.112 69.4565 131.62L70.1045 129.892L70.4825 129.964ZM86.8011 130V129.64C87.2091 129.616 87.5151 129.568 87.7191 129.496C87.9231 129.424 88.0551 129.28 88.1151 129.064C88.1871 128.848 88.2231 128.524 88.2231 128.092V119.164C88.2231 118.72 88.1871 118.396 88.1151 118.192C88.0551 117.976 87.9171 117.832 87.7011 117.76C87.4971 117.676 87.1971 117.628 86.8011 117.616V117.256C87.1011 117.268 87.4731 117.28 87.9171 117.292C88.3731 117.304 88.8231 117.31 89.2671 117.31C89.7711 117.31 90.2391 117.304 90.6711 117.292C91.1031 117.28 91.4511 117.268 91.7151 117.256V117.616C91.3191 117.628 91.0191 117.676 90.8151 117.76C90.6111 117.832 90.4731 117.976 90.4011 118.192C90.3291 118.396 90.2931 118.72 90.2931 119.164V128.092C90.2931 128.524 90.3291 128.848 90.4011 129.064C90.4731 129.28 90.6111 129.424 90.8151 129.496C91.0191 129.568 91.3191 129.616 91.7151 129.64V130C91.4511 129.976 91.1031 129.964 90.6711 129.964C90.2391 129.952 89.7711 129.946 89.2671 129.946C88.8231 129.946 88.3731 129.952 87.9171 129.964C87.4731 129.964 87.1011 129.976 86.8011 130ZM79.2411 130V129.64C79.6491 129.616 79.9551 129.568 80.1591 129.496C80.3631 129.424 80.4951 129.28 80.5551 129.064C80.6271 128.848 80.6631 128.524 80.6631 128.092V119.164C80.6631 118.72 80.6271 118.396 80.5551 118.192C80.4951 117.976 80.3571 117.832 80.1411 117.76C79.9371 117.676 79.6371 117.628 79.2411 117.616V117.256C79.5171 117.268 79.8711 117.28 80.3031 117.292C80.7471 117.304 81.2211 117.31 81.7251 117.31C82.1811 117.31 82.6251 117.304 83.0571 117.292C83.5011 117.28 83.8671 117.268 84.1551 117.256V117.616C83.7591 117.628 83.4591 117.676 83.2551 117.76C83.0511 117.832 82.9131 117.976 82.8411 118.192C82.7691 118.396 82.7331 118.72 82.7331 119.164V128.092C82.7331 128.524 82.7691 128.848 82.8411 129.064C82.9131 129.28 83.0511 129.424 83.2551 129.496C83.4591 129.568 83.7591 129.616 84.1551 129.64V130C83.8671 129.976 83.5011 129.964 83.0571 129.964C82.6251 129.952 82.1811 129.946 81.7251 129.946C81.2211 129.946 80.7471 129.952 80.3031 129.964C79.8711 129.964 79.5171 129.976 79.2411 130ZM81.9231 123.772V123.412H89.0331V123.772H81.9231ZM95.3619 130.126C94.8579 130.126 94.4259 130.03 94.0659 129.838C93.7059 129.646 93.4359 129.382 93.2559 129.046C93.0759 128.71 92.9859 128.326 92.9859 127.894C92.9859 127.366 93.1059 126.94 93.3459 126.616C93.5859 126.28 93.8919 126.01 94.2639 125.806C94.6479 125.602 95.0499 125.434 95.4699 125.302C95.9019 125.158 96.3039 125.026 96.6759 124.906C97.0599 124.774 97.3719 124.624 97.6119 124.456C97.8639 124.288 97.9899 124.066 97.9899 123.79V122.566C97.9899 122.134 97.9179 121.792 97.7739 121.54C97.6419 121.276 97.4559 121.09 97.2159 120.982C96.9879 120.874 96.7119 120.82 96.3879 120.82C96.1119 120.82 95.8179 120.862 95.5059 120.946C95.1939 121.018 94.9479 121.168 94.7679 121.396C95.0319 121.468 95.2479 121.612 95.4159 121.828C95.5959 122.032 95.6859 122.29 95.6859 122.602C95.6859 122.938 95.5719 123.202 95.3439 123.394C95.1279 123.586 94.8519 123.682 94.5159 123.682C94.1439 123.682 93.8679 123.568 93.6879 123.34C93.5079 123.1 93.4179 122.824 93.4179 122.512C93.4179 122.188 93.4959 121.924 93.6519 121.72C93.8199 121.516 94.0359 121.324 94.2999 121.144C94.5879 120.952 94.9539 120.79 95.3979 120.658C95.8539 120.526 96.3579 120.46 96.9099 120.46C97.4259 120.46 97.8699 120.52 98.2419 120.64C98.6259 120.748 98.9439 120.928 99.1959 121.18C99.4959 121.456 99.6939 121.804 99.7899 122.224C99.8859 122.632 99.9339 123.13 99.9339 123.718V128.686C99.9339 128.986 99.9699 129.202 100.042 129.334C100.126 129.454 100.258 129.514 100.438 129.514C100.558 129.514 100.672 129.484 100.78 129.424C100.9 129.364 101.038 129.274 101.194 129.154L101.374 129.46C101.122 129.664 100.864 129.826 100.6 129.946C100.348 130.066 100.024 130.126 99.6279 130.126C99.2439 130.126 98.9319 130.066 98.6919 129.946C98.4519 129.826 98.2719 129.652 98.1519 129.424C98.0439 129.196 97.9899 128.914 97.9899 128.578C97.6779 129.082 97.3059 129.466 96.8739 129.73C96.4419 129.994 95.9379 130.126 95.3619 130.126ZM96.2259 129.262C96.5619 129.262 96.8739 129.166 97.1619 128.974C97.4619 128.782 97.7379 128.494 97.9899 128.11V124.528C97.8579 124.72 97.6659 124.888 97.4139 125.032C97.1619 125.164 96.8919 125.302 96.6039 125.446C96.3159 125.59 96.0399 125.758 95.7759 125.95C95.5239 126.13 95.3139 126.364 95.1459 126.652C94.9779 126.94 94.8939 127.306 94.8939 127.75C94.8939 128.218 95.0139 128.59 95.2539 128.866C95.4939 129.13 95.8179 129.262 96.2259 129.262ZM105.044 120.514V131.548C105.044 132.076 105.194 132.43 105.494 132.61C105.794 132.79 106.208 132.88 106.736 132.88V133.258C106.46 133.246 106.076 133.228 105.584 133.204C105.092 133.192 104.564 133.186 104 133.186C103.604 133.186 103.214 133.192 102.83 133.204C102.446 133.228 102.152 133.246 101.948 133.258V132.88C102.368 132.88 102.662 132.796 102.83 132.628C103.01 132.472 103.1 132.172 103.1 131.728V122.674C103.1 122.134 103.01 121.738 102.83 121.486C102.65 121.222 102.308 121.09 101.804 121.09V120.712C102.188 120.748 102.56 120.766 102.92 120.766C103.316 120.766 103.694 120.748 104.054 120.712C104.414 120.664 104.744 120.598 105.044 120.514ZM107.906 120.46C108.53 120.46 109.088 120.634 109.58 120.982C110.084 121.318 110.48 121.816 110.768 122.476C111.056 123.136 111.2 123.958 111.2 124.942C111.2 125.662 111.116 126.346 110.948 126.994C110.78 127.63 110.522 128.194 110.174 128.686C109.838 129.166 109.412 129.55 108.896 129.838C108.38 130.114 107.768 130.252 107.06 130.252C106.532 130.252 106.064 130.138 105.656 129.91C105.26 129.682 104.978 129.394 104.81 129.046L104.99 128.794C105.146 129.094 105.362 129.34 105.638 129.532C105.926 129.724 106.28 129.82 106.7 129.82C107.324 129.82 107.81 129.622 108.158 129.226C108.518 128.818 108.77 128.272 108.914 127.588C109.058 126.892 109.13 126.106 109.13 125.23C109.13 124.246 109.058 123.454 108.914 122.854C108.77 122.242 108.554 121.798 108.266 121.522C107.978 121.234 107.63 121.09 107.222 121.09C106.682 121.09 106.19 121.306 105.746 121.738C105.314 122.17 105.05 122.818 104.954 123.682L104.774 123.304C104.93 122.404 105.29 121.708 105.854 121.216C106.43 120.712 107.114 120.46 107.906 120.46ZM115.608 120.514V131.548C115.608 132.076 115.758 132.43 116.058 132.61C116.358 132.79 116.772 132.88 117.3 132.88V133.258C117.024 133.246 116.64 133.228 116.148 133.204C115.656 133.192 115.128 133.186 114.564 133.186C114.168 133.186 113.778 133.192 113.394 133.204C113.01 133.228 112.716 133.246 112.512 133.258V132.88C112.932 132.88 113.226 132.796 113.394 132.628C113.574 132.472 113.664 132.172 113.664 131.728V122.674C113.664 122.134 113.574 121.738 113.394 121.486C113.214 121.222 112.872 121.09 112.368 121.09V120.712C112.752 120.748 113.124 120.766 113.484 120.766C113.88 120.766 114.258 120.748 114.618 120.712C114.978 120.664 115.308 120.598 115.608 120.514ZM118.47 120.46C119.094 120.46 119.652 120.634 120.144 120.982C120.648 121.318 121.044 121.816 121.332 122.476C121.62 123.136 121.764 123.958 121.764 124.942C121.764 125.662 121.68 126.346 121.512 126.994C121.344 127.63 121.086 128.194 120.738 128.686C120.402 129.166 119.976 129.55 119.46 129.838C118.944 130.114 118.332 130.252 117.624 130.252C117.096 130.252 116.628 130.138 116.22 129.91C115.824 129.682 115.542 129.394 115.374 129.046L115.554 128.794C115.71 129.094 115.926 129.34 116.202 129.532C116.49 129.724 116.844 129.82 117.264 129.82C117.888 129.82 118.374 129.622 118.722 129.226C119.082 128.818 119.334 128.272 119.478 127.588C119.622 126.892 119.694 126.106 119.694 125.23C119.694 124.246 119.622 123.454 119.478 122.854C119.334 122.242 119.118 121.798 118.83 121.522C118.542 121.234 118.194 121.09 117.786 121.09C117.246 121.09 116.754 121.306 116.31 121.738C115.878 122.17 115.614 122.818 115.518 123.682L115.338 123.304C115.494 122.404 115.854 121.708 116.418 121.216C116.994 120.712 117.678 120.46 118.47 120.46ZM125.201 116.176C125.573 116.176 125.885 116.296 126.137 116.536C126.389 116.764 126.515 117.052 126.515 117.4C126.515 117.748 126.389 118.042 126.137 118.282C125.885 118.51 125.573 118.624 125.201 118.624C124.829 118.624 124.517 118.51 124.265 118.282C124.013 118.042 123.887 117.748 123.887 117.4C123.887 117.052 124.013 116.764 124.265 116.536C124.517 116.296 124.829 116.176 125.201 116.176ZM126.281 120.514V128.326C126.281 128.83 126.377 129.172 126.569 129.352C126.773 129.532 127.109 129.622 127.577 129.622V130C127.373 129.988 127.055 129.976 126.623 129.964C126.203 129.94 125.771 129.928 125.327 129.928C124.907 129.928 124.475 129.94 124.031 129.964C123.587 129.976 123.257 129.988 123.041 130V129.622C123.509 129.622 123.839 129.532 124.031 129.352C124.235 129.172 124.337 128.83 124.337 128.326V122.674C124.337 122.134 124.247 121.738 124.067 121.486C123.887 121.222 123.545 121.09 123.041 121.09V120.712C123.425 120.748 123.797 120.766 124.157 120.766C124.565 120.766 124.943 120.748 125.291 120.712C125.651 120.664 125.981 120.598 126.281 120.514ZM134.701 120.46C135.181 120.46 135.571 120.526 135.871 120.658C136.183 120.778 136.441 120.946 136.645 121.162C136.861 121.39 137.011 121.684 137.095 122.044C137.191 122.404 137.239 122.89 137.239 123.502V128.326C137.239 128.83 137.335 129.172 137.527 129.352C137.731 129.532 138.067 129.622 138.535 129.622V130C138.331 129.988 138.013 129.976 137.581 129.964C137.149 129.94 136.723 129.928 136.303 129.928C135.895 129.928 135.487 129.94 135.079 129.964C134.683 129.976 134.383 129.988 134.179 130V129.622C134.587 129.622 134.875 129.532 135.043 129.352C135.211 129.172 135.295 128.83 135.295 128.326V122.998C135.295 122.65 135.265 122.338 135.205 122.062C135.145 121.774 135.019 121.546 134.827 121.378C134.635 121.198 134.347 121.108 133.963 121.108C133.519 121.108 133.123 121.234 132.775 121.486C132.439 121.738 132.169 122.086 131.965 122.53C131.773 122.962 131.677 123.448 131.677 123.988V128.326C131.677 128.83 131.761 129.172 131.929 129.352C132.109 129.532 132.397 129.622 132.793 129.622V130C132.601 129.988 132.307 129.976 131.911 129.964C131.527 129.94 131.125 129.928 130.705 129.928C130.297 129.928 129.871 129.94 129.427 129.964C128.983 129.976 128.653 129.988 128.437 130V129.622C128.905 129.622 129.235 129.532 129.427 129.352C129.631 129.172 129.733 128.83 129.733 128.326V122.674C129.733 122.134 129.643 121.738 129.463 121.486C129.283 121.222 128.941 121.09 128.437 121.09V120.712C128.821 120.748 129.193 120.766 129.553 120.766C129.961 120.766 130.339 120.748 130.687 120.712C131.047 120.664 131.377 120.598 131.677 120.514V122.476C131.989 121.732 132.415 121.21 132.955 120.91C133.507 120.61 134.089 120.46 134.701 120.46ZM143.747 120.46C144.803 120.46 145.631 120.778 146.231 121.414C146.831 122.05 147.131 123.058 147.131 124.438H140.921L140.885 124.096H145.223C145.235 123.508 145.187 122.968 145.079 122.476C144.971 121.972 144.803 121.57 144.575 121.27C144.347 120.97 144.047 120.82 143.675 120.82C143.159 120.82 142.709 121.096 142.325 121.648C141.953 122.188 141.725 123.058 141.641 124.258L141.695 124.348C141.683 124.516 141.671 124.702 141.659 124.906C141.647 125.098 141.641 125.29 141.641 125.482C141.641 126.31 141.767 127.006 142.019 127.57C142.271 128.134 142.601 128.56 143.009 128.848C143.417 129.124 143.831 129.262 144.251 129.262C144.575 129.262 144.887 129.214 145.187 129.118C145.499 129.01 145.793 128.836 146.069 128.596C146.345 128.344 146.591 128.002 146.807 127.57L147.167 127.714C147.023 128.122 146.801 128.524 146.501 128.92C146.201 129.316 145.817 129.64 145.349 129.892C144.881 130.132 144.335 130.252 143.711 130.252C142.871 130.252 142.139 130.066 141.515 129.694C140.891 129.31 140.411 128.764 140.075 128.056C139.739 127.348 139.571 126.508 139.571 125.536C139.571 124.468 139.745 123.556 140.093 122.8C140.441 122.044 140.927 121.468 141.551 121.072C142.187 120.664 142.919 120.46 143.747 120.46ZM151.719 120.46C152.199 120.46 152.613 120.538 152.961 120.694C153.321 120.838 153.579 120.97 153.735 121.09C154.131 121.402 154.377 121.198 154.473 120.478H154.869C154.845 120.814 154.827 121.222 154.815 121.702C154.803 122.17 154.797 122.794 154.797 123.574H154.401C154.329 123.13 154.203 122.698 154.023 122.278C153.855 121.858 153.603 121.51 153.267 121.234C152.943 120.958 152.517 120.82 151.989 120.82C151.593 120.82 151.263 120.934 150.999 121.162C150.735 121.378 150.603 121.702 150.603 122.134C150.603 122.494 150.711 122.806 150.927 123.07C151.143 123.334 151.419 123.58 151.755 123.808C152.103 124.036 152.475 124.282 152.871 124.546C153.315 124.846 153.711 125.146 154.059 125.446C154.419 125.734 154.701 126.058 154.905 126.418C155.121 126.778 155.229 127.198 155.229 127.678C155.229 128.23 155.079 128.698 154.779 129.082C154.491 129.466 154.107 129.76 153.627 129.964C153.147 130.156 152.619 130.252 152.043 130.252C151.755 130.252 151.485 130.222 151.233 130.162C150.981 130.114 150.747 130.048 150.531 129.964C150.399 129.892 150.267 129.82 150.135 129.748C150.015 129.664 149.895 129.586 149.775 129.514C149.655 129.43 149.547 129.442 149.451 129.55C149.355 129.658 149.283 129.85 149.235 130.126H148.839C148.863 129.742 148.881 129.274 148.893 128.722C148.905 128.17 148.911 127.438 148.911 126.526H149.307C149.391 127.186 149.517 127.768 149.685 128.272C149.853 128.776 150.099 129.172 150.423 129.46C150.759 129.736 151.215 129.874 151.791 129.874C152.019 129.874 152.247 129.826 152.475 129.73C152.703 129.622 152.889 129.454 153.033 129.226C153.189 128.998 153.267 128.692 153.267 128.308C153.267 127.78 153.081 127.348 152.709 127.012C152.349 126.664 151.881 126.298 151.305 125.914C150.897 125.626 150.507 125.344 150.135 125.068C149.775 124.78 149.481 124.462 149.253 124.114C149.025 123.754 148.911 123.328 148.911 122.836C148.911 122.296 149.037 121.852 149.289 121.504C149.553 121.156 149.901 120.898 150.333 120.73C150.765 120.55 151.227 120.46 151.719 120.46ZM159.857 120.46C160.337 120.46 160.751 120.538 161.099 120.694C161.459 120.838 161.717 120.97 161.873 121.09C162.269 121.402 162.515 121.198 162.611 120.478H163.007C162.983 120.814 162.965 121.222 162.953 121.702C162.941 122.17 162.935 122.794 162.935 123.574H162.539C162.467 123.13 162.341 122.698 162.161 122.278C161.993 121.858 161.741 121.51 161.405 121.234C161.081 120.958 160.655 120.82 160.127 120.82C159.731 120.82 159.401 120.934 159.137 121.162C158.873 121.378 158.741 121.702 158.741 122.134C158.741 122.494 158.849 122.806 159.065 123.07C159.281 123.334 159.557 123.58 159.893 123.808C160.241 124.036 160.613 124.282 161.009 124.546C161.453 124.846 161.849 125.146 162.197 125.446C162.557 125.734 162.839 126.058 163.043 126.418C163.259 126.778 163.367 127.198 163.367 127.678C163.367 128.23 163.217 128.698 162.917 129.082C162.629 129.466 162.245 129.76 161.765 129.964C161.285 130.156 160.757 130.252 160.181 130.252C159.893 130.252 159.623 130.222 159.371 130.162C159.119 130.114 158.885 130.048 158.669 129.964C158.537 129.892 158.405 129.82 158.273 129.748C158.153 129.664 158.033 129.586 157.913 129.514C157.793 129.43 157.685 129.442 157.589 129.55C157.493 129.658 157.421 129.85 157.373 130.126H156.977C157.001 129.742 157.019 129.274 157.031 128.722C157.043 128.17 157.049 127.438 157.049 126.526H157.445C157.529 127.186 157.655 127.768 157.823 128.272C157.991 128.776 158.237 129.172 158.561 129.46C158.897 129.736 159.353 129.874 159.929 129.874C160.157 129.874 160.385 129.826 160.613 129.73C160.841 129.622 161.027 129.454 161.171 129.226C161.327 128.998 161.405 128.692 161.405 128.308C161.405 127.78 161.219 127.348 160.847 127.012C160.487 126.664 160.019 126.298 159.443 125.914C159.035 125.626 158.645 125.344 158.273 125.068C157.913 124.78 157.619 124.462 157.391 124.114C157.163 123.754 157.049 123.328 157.049 122.836C157.049 122.296 157.175 121.852 157.427 121.504C157.691 121.156 158.039 120.898 158.471 120.73C158.903 120.55 159.365 120.46 159.857 120.46ZM171.203 116.176C171.575 116.176 171.887 116.296 172.139 116.536C172.391 116.764 172.517 117.052 172.517 117.4C172.517 117.748 172.391 118.042 172.139 118.282C171.887 118.51 171.575 118.624 171.203 118.624C170.831 118.624 170.519 118.51 170.267 118.282C170.015 118.042 169.889 117.748 169.889 117.4C169.889 117.052 170.015 116.764 170.267 116.536C170.519 116.296 170.831 116.176 171.203 116.176ZM172.283 120.514V128.326C172.283 128.83 172.379 129.172 172.571 129.352C172.775 129.532 173.111 129.622 173.579 129.622V130C173.375 129.988 173.057 129.976 172.625 129.964C172.205 129.94 171.773 129.928 171.329 129.928C170.909 129.928 170.477 129.94 170.033 129.964C169.589 129.976 169.259 129.988 169.043 130V129.622C169.511 129.622 169.841 129.532 170.033 129.352C170.237 129.172 170.339 128.83 170.339 128.326V122.674C170.339 122.134 170.249 121.738 170.069 121.486C169.889 121.222 169.547 121.09 169.043 121.09V120.712C169.427 120.748 169.799 120.766 170.159 120.766C170.567 120.766 170.945 120.748 171.293 120.712C171.653 120.664 171.983 120.598 172.283 120.514ZM180.703 120.46C181.183 120.46 181.573 120.526 181.873 120.658C182.185 120.778 182.443 120.946 182.647 121.162C182.863 121.39 183.013 121.684 183.097 122.044C183.193 122.404 183.241 122.89 183.241 123.502V128.326C183.241 128.83 183.337 129.172 183.529 129.352C183.733 129.532 184.069 129.622 184.537 129.622V130C184.333 129.988 184.015 129.976 183.583 129.964C183.151 129.94 182.725 129.928 182.305 129.928C181.897 129.928 181.489 129.94 181.081 129.964C180.685 129.976 180.385 129.988 180.181 130V129.622C180.589 129.622 180.877 129.532 181.045 129.352C181.213 129.172 181.297 128.83 181.297 128.326V122.998C181.297 122.65 181.267 122.338 181.207 122.062C181.147 121.774 181.021 121.546 180.829 121.378C180.637 121.198 180.349 121.108 179.965 121.108C179.521 121.108 179.125 121.234 178.777 121.486C178.441 121.738 178.171 122.086 177.967 122.53C177.775 122.962 177.679 123.448 177.679 123.988V128.326C177.679 128.83 177.763 129.172 177.931 129.352C178.111 129.532 178.399 129.622 178.795 129.622V130C178.603 129.988 178.309 129.976 177.913 129.964C177.529 129.94 177.127 129.928 176.707 129.928C176.299 129.928 175.873 129.94 175.429 129.964C174.985 129.976 174.655 129.988 174.439 130V129.622C174.907 129.622 175.237 129.532 175.429 129.352C175.633 129.172 175.735 128.83 175.735 128.326V122.674C175.735 122.134 175.645 121.738 175.465 121.486C175.285 121.222 174.943 121.09 174.439 121.09V120.712C174.823 120.748 175.195 120.766 175.555 120.766C175.963 120.766 176.341 120.748 176.689 120.712C177.049 120.664 177.379 120.598 177.679 120.514V122.476C177.991 121.732 178.417 121.21 178.957 120.91C179.509 120.61 180.091 120.46 180.703 120.46ZM192.217 130.126C191.713 130.126 191.281 130.03 190.921 129.838C190.561 129.646 190.291 129.382 190.111 129.046C189.931 128.71 189.841 128.326 189.841 127.894C189.841 127.366 189.961 126.94 190.201 126.616C190.441 126.28 190.747 126.01 191.119 125.806C191.503 125.602 191.905 125.434 192.325 125.302C192.757 125.158 193.159 125.026 193.531 124.906C193.915 124.774 194.227 124.624 194.467 124.456C194.719 124.288 194.845 124.066 194.845 123.79V122.566C194.845 122.134 194.773 121.792 194.629 121.54C194.497 121.276 194.311 121.09 194.071 120.982C193.843 120.874 193.567 120.82 193.243 120.82C192.967 120.82 192.673 120.862 192.361 120.946C192.049 121.018 191.803 121.168 191.623 121.396C191.887 121.468 192.103 121.612 192.271 121.828C192.451 122.032 192.541 122.29 192.541 122.602C192.541 122.938 192.427 123.202 192.199 123.394C191.983 123.586 191.707 123.682 191.371 123.682C190.999 123.682 190.723 123.568 190.543 123.34C190.363 123.1 190.273 122.824 190.273 122.512C190.273 122.188 190.351 121.924 190.507 121.72C190.675 121.516 190.891 121.324 191.155 121.144C191.443 120.952 191.809 120.79 192.253 120.658C192.709 120.526 193.213 120.46 193.765 120.46C194.281 120.46 194.725 120.52 195.097 120.64C195.481 120.748 195.799 120.928 196.051 121.18C196.351 121.456 196.549 121.804 196.645 122.224C196.741 122.632 196.789 123.13 196.789 123.718V128.686C196.789 128.986 196.825 129.202 196.897 129.334C196.981 129.454 197.113 129.514 197.293 129.514C197.413 129.514 197.527 129.484 197.635 129.424C197.755 129.364 197.893 129.274 198.049 129.154L198.229 129.46C197.977 129.664 197.719 129.826 197.455 129.946C197.203 130.066 196.879 130.126 196.483 130.126C196.099 130.126 195.787 130.066 195.547 129.946C195.307 129.826 195.127 129.652 195.007 129.424C194.899 129.196 194.845 128.914 194.845 128.578C194.533 129.082 194.161 129.466 193.729 129.73C193.297 129.994 192.793 130.126 192.217 130.126ZM193.081 129.262C193.417 129.262 193.729 129.166 194.017 128.974C194.317 128.782 194.593 128.494 194.845 128.11V124.528C194.713 124.72 194.521 124.888 194.269 125.032C194.017 125.164 193.747 125.302 193.459 125.446C193.171 125.59 192.895 125.758 192.631 125.95C192.379 126.13 192.169 126.364 192.001 126.652C191.833 126.94 191.749 127.306 191.749 127.75C191.749 128.218 191.869 128.59 192.109 128.866C192.349 129.13 192.673 129.262 193.081 129.262ZM209.34 117.004C210.132 117.004 210.78 117.124 211.284 117.364C211.8 117.592 212.256 117.862 212.652 118.174C212.892 118.354 213.072 118.378 213.192 118.246C213.324 118.102 213.414 117.772 213.462 117.256H213.876C213.852 117.712 213.834 118.264 213.822 118.912C213.81 119.548 213.804 120.4 213.804 121.468H213.39C213.306 120.94 213.222 120.508 213.138 120.172C213.066 119.836 212.964 119.548 212.832 119.308C212.712 119.068 212.544 118.834 212.328 118.606C211.98 118.174 211.554 117.862 211.05 117.67C210.546 117.478 210.012 117.382 209.448 117.382C208.836 117.382 208.296 117.538 207.828 117.85C207.36 118.15 206.964 118.582 206.64 119.146C206.328 119.71 206.088 120.376 205.92 121.144C205.752 121.912 205.668 122.752 205.668 123.664C205.668 124.6 205.758 125.452 205.938 126.22C206.118 126.976 206.376 127.63 206.712 128.182C207.06 128.722 207.474 129.142 207.954 129.442C208.446 129.73 208.992 129.874 209.592 129.874C210.084 129.874 210.594 129.778 211.122 129.586C211.65 129.382 212.07 129.076 212.382 128.668C212.718 128.308 212.946 127.906 213.066 127.462C213.198 127.006 213.306 126.388 213.39 125.608H213.804C213.804 126.712 213.81 127.606 213.822 128.29C213.834 128.962 213.852 129.532 213.876 130H213.462C213.414 129.484 213.33 129.16 213.21 129.028C213.102 128.896 212.916 128.914 212.652 129.082C212.208 129.394 211.734 129.67 211.23 129.91C210.738 130.138 210.102 130.252 209.322 130.252C208.134 130.252 207.096 129.994 206.208 129.478C205.32 128.962 204.63 128.218 204.138 127.246C203.646 126.274 203.4 125.104 203.4 123.736C203.4 122.392 203.652 121.216 204.156 120.208C204.672 119.2 205.374 118.414 206.262 117.85C207.15 117.286 208.176 117.004 209.34 117.004ZM223.926 120.514V128.056C223.926 128.596 224.016 128.998 224.196 129.262C224.388 129.514 224.73 129.64 225.222 129.64V130.018C224.85 129.982 224.478 129.964 224.106 129.964C223.71 129.964 223.332 129.982 222.972 130.018C222.612 130.054 222.282 130.12 221.982 130.216V128.254C221.682 128.974 221.262 129.49 220.722 129.802C220.194 130.102 219.636 130.252 219.048 130.252C218.604 130.252 218.226 130.186 217.914 130.054C217.602 129.934 217.344 129.772 217.14 129.568C216.924 129.328 216.774 129.022 216.69 128.65C216.606 128.266 216.564 127.786 216.564 127.21V122.674C216.564 122.134 216.474 121.738 216.294 121.486C216.114 121.222 215.772 121.09 215.268 121.09V120.712C215.652 120.748 216.024 120.766 216.384 120.766C216.78 120.766 217.158 120.748 217.518 120.712C217.878 120.664 218.208 120.598 218.508 120.514V127.714C218.508 128.062 218.532 128.38 218.58 128.668C218.628 128.956 218.742 129.184 218.922 129.352C219.102 129.52 219.39 129.604 219.786 129.604C220.206 129.604 220.578 129.478 220.902 129.226C221.238 128.974 221.502 128.632 221.694 128.2C221.886 127.768 221.982 127.282 221.982 126.742V122.674C221.982 122.134 221.892 121.738 221.712 121.486C221.532 121.222 221.19 121.09 220.686 121.09V120.712C221.07 120.748 221.442 120.766 221.802 120.766C222.198 120.766 222.576 120.748 222.936 120.712C223.296 120.664 223.626 120.598 223.926 120.514ZM229.216 120.514V131.548C229.216 132.076 229.366 132.43 229.666 132.61C229.966 132.79 230.38 132.88 230.908 132.88V133.258C230.632 133.246 230.248 133.228 229.756 133.204C229.264 133.192 228.736 133.186 228.172 133.186C227.776 133.186 227.386 133.192 227.002 133.204C226.618 133.228 226.324 133.246 226.12 133.258V132.88C226.54 132.88 226.834 132.796 227.002 132.628C227.182 132.472 227.272 132.172 227.272 131.728V122.674C227.272 122.134 227.182 121.738 227.002 121.486C226.822 121.222 226.48 121.09 225.976 121.09V120.712C226.36 120.748 226.732 120.766 227.092 120.766C227.488 120.766 227.866 120.748 228.226 120.712C228.586 120.664 228.916 120.598 229.216 120.514ZM232.078 120.46C232.702 120.46 233.26 120.634 233.752 120.982C234.256 121.318 234.652 121.816 234.94 122.476C235.228 123.136 235.372 123.958 235.372 124.942C235.372 125.662 235.288 126.346 235.12 126.994C234.952 127.63 234.694 128.194 234.346 128.686C234.01 129.166 233.584 129.55 233.068 129.838C232.552 130.114 231.94 130.252 231.232 130.252C230.704 130.252 230.236 130.138 229.828 129.91C229.432 129.682 229.15 129.394 228.982 129.046L229.162 128.794C229.318 129.094 229.534 129.34 229.81 129.532C230.098 129.724 230.452 129.82 230.872 129.82C231.496 129.82 231.982 129.622 232.33 129.226C232.69 128.818 232.942 128.272 233.086 127.588C233.23 126.892 233.302 126.106 233.302 125.23C233.302 124.246 233.23 123.454 233.086 122.854C232.942 122.242 232.726 121.798 232.438 121.522C232.15 121.234 231.802 121.09 231.394 121.09C230.854 121.09 230.362 121.306 229.918 121.738C229.486 122.17 229.222 122.818 229.126 123.682L228.946 123.304C229.102 122.404 229.462 121.708 230.026 121.216C230.602 120.712 231.286 120.46 232.078 120.46Z" fill="white"/>
<defs>
<clipPath id="clip0_435_695">
<rect width="222.3" height="90" fill="white" transform="translate(12.3501 5)"/>
</clipPath>
</defs>
</svg>
