<svg width="247" height="100" viewBox="0 0 247 100" fill="none" xmlns="http://www.w3.org/2000/svg">
<g clip-path="url(#clip0_307_775)">
<path d="M45.8891 70.6378C44.2983 70.6378 42.6714 70.4205 40.9842 69.9859C39.297 69.5513 37.7303 69.0443 36.2601 68.4527C34.7898 67.8612 33.5003 67.3903 32.4036 67.004C30.4031 66.2797 28.5351 65.5915 26.7997 64.9034C25.0643 64.2274 23.8351 63.8048 23.112 63.66C19.4484 62.7183 16.8573 62.2475 15.3509 62.2475C15.0858 62.4406 14.8447 62.5976 14.6158 62.7304C14.3868 62.8632 14.1458 62.9477 13.8806 62.9839C13.7722 63.0201 13.5914 63.0443 13.3745 63.0443C12.6996 63.0443 12.3501 62.8149 12.3501 62.3682C12.3501 62.1026 12.555 61.837 12.9768 61.5714C13.2781 61.4145 13.6275 61.33 14.0252 61.3179C14.4229 61.3058 14.8327 61.2696 15.2424 61.2334C16.1101 60.4728 16.9296 59.507 17.7009 58.336C18.4722 57.165 19.0386 56.2716 19.3761 55.668C19.6773 55.1368 19.9666 54.6177 20.2558 54.1107C20.545 53.6036 20.8343 53.0966 21.1356 52.6016C20.533 52.7465 19.9063 52.8913 19.2676 53.0241C18.6289 53.1569 18.0022 53.2173 17.3996 53.2173C16.303 53.2173 15.3147 52.9879 14.4229 52.5412C13.5311 52.0825 13.0973 51.2495 13.0973 50.0423C13.0973 49.2455 13.4468 48.5091 14.1458 47.833C14.8447 47.1569 15.5678 46.8068 16.3271 46.8068C16.785 46.8068 17.0019 47 17.0019 47.3742C17.0019 47.6036 16.8332 47.7123 16.4958 47.7123C16.074 47.7123 15.7004 47.9658 15.3629 48.4487C15.0255 48.9437 14.8568 49.4507 14.8568 49.9819C14.8568 50.3561 14.9773 50.7304 15.2304 51.0926C15.4714 51.4547 15.9053 51.672 16.5078 51.7445C17.0742 51.8531 17.6768 51.9135 18.3155 51.9135C19.4122 51.9135 20.5209 51.7686 21.6538 51.4547C22.184 50.3923 22.6781 49.342 23.1602 48.3038C23.6302 47.2656 24.1002 46.2274 24.5461 45.2133C25.4861 43.1368 26.4502 41.1086 27.4384 39.1408C28.4146 37.173 29.3787 35.4105 30.3308 33.8652C31.2708 32.3199 32.1264 31.161 32.8857 30.4004C34.3198 29.0362 35.766 28.0704 37.2242 27.503C38.6824 26.9356 39.9839 26.6459 41.165 26.6459C41.394 26.6459 41.6229 26.6459 41.8399 26.67C42.0688 26.6942 42.2737 26.7183 42.4665 26.7545C43.8645 26.9839 44.8407 27.4668 45.4071 28.2032C45.9735 28.9396 46.2627 29.8209 46.2627 30.8471C46.2627 31.3783 46.2025 31.9215 46.094 32.4889C45.5999 34.8672 44.6117 37.1006 43.1173 39.1891C41.6229 41.2656 39.8273 43.1489 37.7062 44.839C35.5852 46.5171 33.3316 47.9537 30.9333 49.1247C28.5351 50.2958 26.2092 51.1529 23.9435 51.6841C23.4494 52.5171 22.9312 53.338 22.3889 54.1469C21.8466 54.9557 21.244 55.7646 20.6053 56.5614C20.2317 57.1288 19.6773 57.8531 18.9663 58.7465C18.2432 59.6398 17.5081 60.4608 16.7609 61.2093C17.2912 61.2455 17.8696 61.2938 18.4843 61.3541C19.1109 61.4145 19.7738 61.499 20.4968 61.6076C23.6302 62.1026 26.7756 62.827 29.9331 63.7928C33.0905 64.7585 36.2119 65.6398 39.3091 66.4366C40.1768 66.666 41.4181 66.9437 43.0209 67.2938C44.6237 67.6318 46.1302 67.8008 47.5281 67.8008C48.9261 67.8008 49.9263 67.5593 50.6494 67.0644C51.2158 66.7264 51.5051 66.2555 51.5051 65.6519C51.5051 65.1932 51.3002 64.8189 50.8784 64.5171C50.6494 64.3239 50.541 64.1791 50.541 64.0583C50.541 63.6841 50.7699 63.6237 51.2158 63.8893C51.7099 64.2274 52.0594 64.6257 52.2643 65.0845C52.4692 65.5433 52.5776 66.0141 52.5776 66.497C52.5776 67.0644 52.4692 67.5835 52.2643 68.0543C52.0594 68.5251 51.8064 68.8632 51.5051 69.0443C49.9504 70.1066 48.1066 70.6378 45.9494 70.6378H45.8891ZM24.751 50.3803C28.9449 48.5694 32.6205 46.3481 35.8021 43.7404C38.9716 41.1328 41.4904 37.6922 43.3342 33.4185C43.9368 32.0905 44.2381 30.9437 44.2381 29.9537C44.2381 29.1569 43.9971 28.5412 43.5029 28.0825C43.2378 27.7445 42.804 27.5755 42.2014 27.5755C40.9601 27.5755 39.6706 28.0101 38.345 28.8793C37.2121 29.7123 36.1395 30.8109 35.1393 32.175C34.139 33.5392 33.199 34.9759 32.3313 36.4849C31.4636 37.994 30.6923 39.4306 30.0415 40.7706C29.3787 42.1107 28.8244 43.1851 28.3664 43.9819C28.0651 44.5855 27.6072 45.4789 26.9805 46.6499C26.3538 47.8209 25.6066 49.0765 24.7389 50.3923L24.751 50.3803Z" fill="#5C3A27"/>
<path d="M42.8279 62.1751C41.1287 62.1751 39.6584 61.7767 38.4051 60.9799C37.1517 60.1832 36.5371 58.9759 36.5371 57.3461C36.5371 56.4769 36.8022 55.4146 37.3325 54.1711C37.7061 53.3019 38.4051 52.2999 39.4294 51.1651C40.4538 50.0303 41.6348 48.9196 42.9967 47.8451C44.3585 46.7707 45.7323 45.8773 47.1303 45.1771C48.5282 44.4769 49.7936 44.1268 50.9265 44.1268C51.3362 44.1268 51.7219 44.1872 52.0593 44.2958C52.698 44.5252 53.1439 44.8874 53.385 45.3703C53.626 45.8532 53.7585 46.3723 53.7585 46.9035C53.7585 47.3985 53.6862 47.8693 53.5296 48.316C53.3729 48.7747 53.1921 49.1731 52.9632 49.5111C52.2883 50.5373 51.3121 51.4427 50.0467 52.2395C48.7813 53.0363 47.4918 53.652 46.1903 54.1107C44.8887 54.5695 43.8162 54.8351 42.9846 54.9075H42.8761C42.382 54.9075 42.141 54.7626 42.141 54.4488C42.141 54.2556 42.2856 54.159 42.599 54.159C43.5028 54.0866 44.6477 53.6641 46.0216 52.8793C47.3954 52.1067 48.6126 51.2979 49.6731 50.4649C50.1311 50.0906 50.6613 49.5594 51.288 48.8713C51.9147 48.1952 52.228 47.5313 52.228 46.8914C52.228 46.2154 51.9026 45.8653 51.2639 45.8653C50.9265 45.8653 50.577 45.9377 50.2154 46.0946C49.8539 46.2516 49.5647 46.3602 49.3357 46.4327C48.239 46.9639 47.0339 47.7848 45.7082 48.8954C44.3826 50.0061 43.1895 51.2616 42.1049 52.6379C41.0323 54.0142 40.2851 55.4146 39.8633 56.815C39.7548 57.1168 39.6705 57.4065 39.6343 57.6962C39.5982 57.9739 39.5741 58.2516 39.5741 58.5172C39.5741 59.4226 39.8633 60.0745 40.4538 60.4488C41.0443 60.823 41.7433 61.0162 42.5749 61.0162C43.8162 61.0162 45.1056 60.7385 46.4313 60.1952C47.757 59.652 49.0344 58.9397 50.2877 58.0705C51.5411 57.2013 52.6739 56.2596 53.7103 55.2576C54.7468 54.2556 55.6265 53.2777 56.3496 52.3361C56.4581 52.1912 56.5906 52.0946 56.7473 52.0826C56.904 52.0705 56.9883 52.0826 57.0365 52.1671C57.1811 52.2033 57.2655 52.3119 57.2655 52.481C57.2655 52.65 57.2293 52.8069 57.157 52.9639C56.0965 54.4367 54.8311 55.8733 53.3367 57.2737C51.8424 58.6741 50.2034 59.8331 48.4077 60.7626C46.6121 61.6922 44.7562 62.151 42.8279 62.151V62.1751Z" fill="#5C3A27"/>
<path d="M86.6711 64.7948C84.5139 64.7948 82.7182 64.3843 81.2841 63.5513C79.85 62.7183 78.9944 61.4386 78.7292 59.6881V59.3501C78.4279 59.7726 78.0785 60.2555 77.6808 60.8229C77.2831 61.3903 76.8733 61.8732 76.4395 62.2716C76.0056 62.67 75.5597 62.8632 75.1138 62.8632C75.0415 62.8632 74.8246 62.827 74.463 62.7545C74.1015 62.6821 73.7641 62.5855 73.4387 62.4769C73.1133 62.3682 72.9325 62.2354 72.8964 62.0785C72.7879 61.3541 72.9566 60.328 73.4387 58.9879C73.9087 57.6479 74.5353 56.163 75.3066 54.5332C76.0779 52.9034 76.8974 51.2857 77.741 49.6559C78.5967 48.0261 79.38 46.5654 80.091 45.2616C80.8021 43.9577 81.3203 42.9678 81.6216 42.2797C81.8505 41.8692 81.9952 41.5191 82.0795 41.2294C82.1518 40.9517 82.188 40.7344 82.188 40.5775C82.188 40.3481 82.1518 40.167 82.0795 40.01C82.1518 39.5513 82.429 38.9477 82.899 38.1992C83.369 37.4386 83.9595 36.6901 84.6826 35.9296C85.3937 35.169 86.177 34.5412 87.0085 34.0342C87.8401 33.5272 88.6114 33.2736 89.3345 33.2736C89.5634 33.2736 89.9129 33.334 90.3829 33.4668C90.8529 33.5996 91.3109 33.8048 91.7447 34.0583C92.1786 34.3239 92.4558 34.6982 92.5642 35.1931C92.6004 35.3018 92.6245 35.4225 92.6245 35.5312C92.6245 35.6398 92.5883 35.7002 92.516 35.7002C92.4437 35.7002 92.3353 35.676 92.2027 35.6157C92.0701 35.5553 91.9617 35.5312 91.8894 35.5312C91.0217 35.5312 90.0816 35.9537 89.0573 36.7746C88.0329 37.6076 86.9844 38.7183 85.9119 40.1187C84.8393 41.5191 83.7908 43.0523 82.7664 44.7183C81.7421 46.3843 80.778 48.0624 79.85 49.7404C78.9221 51.4185 78.1267 52.9758 77.4397 54.3883C76.7649 55.8008 76.2346 56.9477 75.8489 57.8169C75.5477 58.6499 75.391 59.2294 75.391 59.5795C75.391 60.1107 75.5959 60.3762 76.0177 60.3762C76.5479 60.3762 77.1143 60.0141 77.7169 59.3018C78.1267 58.8068 78.5244 58.3481 78.8738 57.9135C79.2354 57.4789 79.5487 57.2978 79.8139 57.3702C80.3441 57.3702 80.7057 57.5151 80.8864 57.7927C81.0793 58.0704 81.1877 58.4084 81.2239 58.7827C81.26 59.1569 81.2962 59.507 81.3323 59.8088C81.5975 60.9799 82.2121 61.9577 83.1762 62.7304C84.1403 63.503 85.4901 63.8893 87.2255 63.8893C89.0814 63.8893 90.7324 63.5875 92.2147 62.9839C93.685 62.3803 94.854 61.5352 95.7217 60.4608C96.5894 59.3863 97.0233 58.167 97.0233 56.8028C97.0233 55.8612 96.7943 54.8712 96.3484 53.8209C95.9025 52.7706 95.1794 51.7324 94.1912 50.67C93.3596 49.6921 92.4317 48.7626 91.4194 47.8933C90.395 47.0241 89.5152 46.2153 88.7801 45.4789C88.045 44.7424 87.6714 44.1147 87.6714 43.5835C87.6714 43.1247 87.9727 42.7263 88.5752 42.3642C89.1778 42.002 89.6719 41.8209 90.0455 41.8209C90.9132 41.8209 92.0219 41.6519 93.3596 41.3139C94.6973 40.9758 96.0832 40.505 97.5294 39.9255C98.9635 39.334 100.277 38.6821 101.47 37.9698C102.663 37.2575 103.543 36.5332 104.109 35.8088C104.447 35.3984 104.724 34.9517 104.929 34.4809C105.134 34.0101 105.242 33.5392 105.242 33.0925C105.242 32.3682 104.929 31.7163 104.302 31.1368C103.676 30.5453 102.627 30.1227 101.157 29.8571C100.747 29.7485 100.253 29.664 99.6866 29.6278C99.1202 29.5915 98.5176 29.5674 97.8789 29.5674C95.9507 29.5674 93.7212 29.7485 91.1904 30.1107C88.6596 30.4728 86.0926 30.9919 83.4895 31.668C80.8864 32.3441 78.4521 33.2012 76.1864 34.2274C73.9207 35.2535 72.0648 36.4366 70.6066 37.7766C69.1484 39.1167 68.3289 40.6016 68.1481 42.2314C68.0758 43.173 68.2927 43.8974 68.823 44.3923C69.3532 44.8873 69.9799 45.2495 70.691 45.503C71.402 45.7445 71.9684 45.9859 72.3902 46.2153C72.7276 46.3722 72.8964 46.5171 72.8964 46.674C72.8964 46.8672 72.6915 46.9638 72.2697 46.9638C71.8117 46.9638 71.2453 46.8551 70.5704 46.6257C69.8956 46.3964 69.2207 46.0463 68.5579 45.5754C67.895 45.1046 67.3527 44.5251 66.943 43.8491C66.5332 43.173 66.3766 42.3762 66.485 41.4708C66.485 41.3984 66.4609 41.2535 66.4248 41.0483C66.3886 40.843 66.3645 40.674 66.3645 40.5654C66.473 39.3581 66.9912 38.1992 67.9191 37.1006C68.8471 36.002 69.9438 35 71.2092 34.0946C72.4746 33.1891 73.6556 32.4286 74.7523 31.8249C75.9574 31.1851 77.4156 30.5815 79.1149 30.0382C80.8141 29.495 82.6339 29.0121 84.5862 28.5895C86.5265 28.1791 88.5029 27.841 90.5034 27.5996C92.504 27.3581 94.3719 27.2253 96.1073 27.2253C97.9512 27.2253 99.5781 27.3823 100.976 27.6841C102.868 28.0946 104.314 28.843 105.339 29.8934C106.363 30.9557 106.869 32.1268 106.869 33.4064C106.833 34.8068 106.411 36.0261 105.592 37.0644C104.784 38.1026 103.736 38.9839 102.446 39.7082C101.157 40.4326 99.771 41.0241 98.2886 41.495C96.7943 41.9658 95.3361 42.3159 93.9019 42.5453C92.4678 42.7746 91.2145 42.9074 90.166 42.9437C91.7568 43.8853 93.3235 44.9356 94.8902 46.0946C96.4568 47.2535 97.7584 48.509 98.7948 49.8612C99.8312 51.2253 100.349 52.7223 100.349 54.34C100.349 55.2455 100.145 56.1871 99.7589 57.1529C99.3733 58.1187 98.7345 59.1449 97.8668 60.2434C96.734 61.6439 95.1553 62.7545 93.1427 63.5875C91.1181 64.4205 88.9609 64.831 86.659 64.831L86.6711 64.7948Z" fill="#5C3A27"/>
<path d="M109.038 61.9578C107.978 61.9578 107.05 61.7164 106.266 61.2214C104.941 60.4246 104.29 58.988 104.29 56.9116C104.29 56.0423 104.435 55.0403 104.748 53.9055C105.013 52.9639 105.483 51.9256 106.158 50.815C106.833 49.7043 107.64 48.6299 108.568 47.6037C109.496 46.5776 110.509 45.7446 111.593 45.1047C112.69 44.4649 113.787 44.1389 114.883 44.1389C115.341 44.1389 115.739 44.1993 116.076 44.3079C116.534 44.4528 116.92 44.7305 117.233 45.1289C117.559 45.5273 117.715 46.0343 117.715 46.6379C117.715 47.2778 117.559 47.6399 117.233 47.7124C116.908 47.7848 116.751 47.7124 116.751 47.483C116.751 47.4105 116.751 47.3381 116.775 47.2536C116.787 47.1812 116.799 47.1208 116.799 47.0846C116.799 46.7828 116.715 46.5051 116.546 46.2637C116.378 46.0222 116.064 45.8894 115.606 45.8894C115.004 45.8894 114.257 46.2154 113.365 46.8552C112.473 47.4951 111.569 48.3643 110.641 49.4387C109.713 50.5132 108.906 51.6963 108.207 52.988C107.508 54.2798 107.05 55.5594 106.821 56.8512C106.785 57.0444 106.749 57.2134 106.736 57.3945C106.712 57.5635 106.712 57.7445 106.712 57.9377C106.712 58.8069 106.917 59.5313 107.303 60.1228C107.701 60.7144 108.327 61.0041 109.195 61.0041C110.255 61.0041 111.268 60.5936 112.256 59.7848C113.232 58.9759 114.112 57.9981 114.895 56.8633C115.667 55.7285 116.245 54.7264 116.619 53.8572C116.92 53.1812 117.125 52.5896 117.245 52.0947C117.366 51.5997 117.414 51.1892 117.414 50.8512C117.414 50.5494 117.39 50.2838 117.33 50.0544C117.269 49.825 117.209 49.6439 117.137 49.487C117.065 49.2576 117.028 49.0886 117.028 48.98C117.028 48.6782 117.149 48.4367 117.402 48.2435C117.643 48.0504 117.908 47.9538 118.161 47.9538C118.39 47.9538 118.631 48.0262 118.896 48.1832C119.198 48.2556 119.607 48.316 120.138 48.3522C120.668 48.3884 121.234 48.4126 121.837 48.4126C122.476 48.4126 123.126 48.3884 123.789 48.3522C124.452 48.316 125.03 48.2435 125.513 48.1228C125.585 48.0866 125.705 48.0625 125.85 48.0625C126.115 48.0625 126.248 48.1349 126.248 48.2918C126.248 48.4488 126.115 48.5695 125.85 48.6902C124.524 49.2938 123.343 49.6198 122.307 49.656C121.27 49.6922 120.367 49.7164 119.619 49.7164C119.692 50.658 119.487 51.6721 118.993 52.7466C118.499 53.821 117.992 54.7747 117.462 55.6077C116.823 56.5494 116.088 57.5152 115.257 58.5051C114.425 59.4951 113.497 60.316 112.485 60.9679C111.461 61.6319 110.316 61.9578 109.026 61.9578H109.038Z" fill="#5C3A27"/>
<path d="M121.729 62.0665C121.464 62.0665 121.391 61.9337 121.5 61.6681C121.608 61.4387 121.825 60.9196 122.126 60.1107C122.428 59.3019 122.777 58.324 123.175 57.1892C123.572 56.0544 123.982 54.8834 124.392 53.6761C124.802 52.4689 125.199 51.3341 125.549 50.2717C125.91 49.2093 126.2 48.3763 126.429 47.7727C126.501 47.5433 126.573 47.2174 126.658 46.7828C126.73 46.3482 126.899 45.9498 127.14 45.5876C127.381 45.2254 127.815 45.0443 128.417 45.0443C129.55 45.0443 130.116 45.3099 130.116 45.8411C130.116 46.0343 130.02 46.3482 129.827 46.8069C129.369 47.8331 128.887 49.0041 128.357 50.3321C127.827 51.66 127.357 52.9035 126.947 54.0745C126.525 55.2456 126.212 56.151 125.983 56.8029C126.356 56.2717 126.971 55.5232 127.827 54.5333C128.682 53.5554 129.634 52.493 130.683 51.3582C131.731 50.2234 132.84 49.1248 133.997 48.0625C135.154 47.0001 136.226 46.1429 137.227 45.479C138.227 44.815 139.083 44.489 139.806 44.489C140.71 44.489 141.168 44.984 141.168 45.9619C141.168 46.2999 141.071 46.819 140.878 47.4951C140.541 48.4367 140.107 49.3542 139.577 50.2476C139.046 51.1409 138.576 52.0705 138.167 53.0604C137.444 54.8351 137.034 56.2717 136.925 57.3703C136.889 57.5152 136.865 57.66 136.865 57.7928V58.2154C136.865 59.7244 137.371 60.485 138.396 60.485C138.962 60.485 139.721 60.147 140.661 59.4588C141.601 58.7828 142.578 57.9619 143.578 57.0202C144.578 56.0786 145.482 55.161 146.265 54.2677C147.061 53.3743 147.603 52.7103 147.904 52.2516C148.013 52.1429 148.133 52.0826 148.242 52.0826C148.386 52.0826 148.519 52.1429 148.615 52.2516C148.712 52.3602 148.724 52.5172 148.639 52.7103C148.302 53.3502 147.723 54.159 146.916 55.1248C146.109 56.0906 145.205 57.0564 144.229 58.0222C143.24 58.988 142.288 59.8089 141.336 60.485C140.77 60.8592 140.071 61.2093 139.239 61.5111C138.408 61.813 137.576 61.9458 136.745 61.9095C135.684 61.8009 134.937 61.4266 134.479 60.7989C134.021 60.1711 133.804 59.4226 133.804 58.5534C133.804 57.5272 134.009 56.4407 134.395 55.2938C134.792 54.1349 135.238 53.0484 135.72 52.0343C136.214 51.0081 136.612 50.2355 136.913 49.7043C137.215 49.1007 137.371 48.6299 137.371 48.2918C137.371 47.99 137.239 47.8331 136.974 47.8331C136.709 47.8331 136.311 48.0021 135.781 48.3401C135.25 48.6782 134.539 49.2697 133.623 50.1027C132.792 50.827 131.9 51.7566 130.96 52.9156C130.02 54.0745 129.104 55.2576 128.212 56.4649C127.32 57.6721 126.549 58.7103 125.886 59.5796C125.224 60.4488 124.766 60.9558 124.5 61.1128C124.308 61.2214 123.886 61.4146 123.223 61.6802C122.56 61.9458 122.066 62.0786 121.717 62.0786L121.729 62.0665Z" fill="#5C3A27"/>
<path d="M147.277 62.0664C146.976 62.0664 146.904 61.9336 147.048 61.668C147.121 61.4387 147.326 60.8713 147.639 59.9658C147.964 59.0604 148.35 57.9618 148.796 56.6701C149.254 55.3904 149.724 54.0745 150.206 52.7224C150.7 51.3823 151.146 50.1751 151.568 49.1248C151.303 49.4628 150.893 49.9578 150.351 50.5976C149.808 51.2375 149.23 51.9256 148.627 52.6379C148.025 53.3622 147.458 53.9779 146.928 54.5091C146.82 54.6177 146.735 54.6781 146.699 54.6781C146.591 54.6781 146.53 54.5694 146.53 54.3401C146.53 53.8813 146.639 53.4709 146.868 53.0966C147.699 52.0342 148.507 51.0443 149.278 50.1147C150.049 49.1851 150.76 48.3039 151.399 47.4709C151.025 47.2415 150.833 46.9638 150.833 46.6137C150.833 46.0825 151.098 45.8169 151.628 45.8169C151.857 45.8169 152.026 45.8532 152.134 45.9256C152.17 45.9618 152.206 45.986 152.243 45.986C152.279 45.986 152.315 46.0222 152.351 46.0946C152.544 45.829 152.701 45.5876 152.833 45.3582C152.966 45.1288 153.086 44.8874 153.207 44.6218C153.351 44.2837 153.665 43.6318 154.147 42.666C154.617 41.7002 155.207 40.5534 155.93 39.2375C156.641 37.9095 157.473 36.5453 158.389 35.1208C159.317 33.7083 160.317 32.3803 161.39 31.1489C162.462 29.9175 163.583 28.9276 164.728 28.167C165.885 27.4065 167.054 27.0322 168.271 27.0322C168.416 27.0322 168.572 27.0322 168.729 27.0564C168.874 27.0805 169.03 27.1047 169.187 27.1409C170.127 27.334 170.79 27.66 171.163 28.1308C171.537 28.6016 171.73 29.157 171.73 29.8089C171.73 30.2676 171.645 30.7505 171.477 31.2576C171.308 31.7646 171.067 32.2717 170.766 32.7666C170.006 34.0946 169.006 35.4226 167.765 36.7626C166.524 38.1026 165.126 39.4306 163.595 40.7344C162.065 42.0383 160.534 43.3059 159.003 44.5373C157.473 45.7686 156.051 46.9276 154.725 48.0262C153.821 49.9578 153.122 51.6721 152.628 53.157C152.134 54.654 151.761 55.8491 151.495 56.7546C151.905 56.2234 152.532 55.4749 153.363 54.4849C154.195 53.5071 155.135 52.4447 156.195 51.3099C157.256 50.1751 158.353 49.0886 159.486 48.0503C160.618 47.0121 161.691 46.155 162.715 45.491C163.74 44.827 164.607 44.501 165.318 44.501C166.222 44.501 166.68 44.9719 166.68 45.9135C166.68 46.8552 166.355 47.821 165.716 48.9196C165.077 50.0181 164.547 50.9477 164.125 51.6962C163.595 52.7948 163.173 53.8451 162.848 54.8471C162.522 55.8491 162.33 56.6701 162.257 57.3099C162.221 57.4548 162.197 57.5996 162.197 57.7324V58.155C162.197 59.664 162.727 60.4246 163.788 60.4246C164.354 60.4246 165.114 60.0866 166.054 59.3984C166.994 58.7224 167.958 57.9014 168.946 56.9598C169.934 56.0181 170.826 55.1006 171.633 54.2073C172.441 53.3139 172.995 52.6499 173.308 52.1912C173.417 52.0825 173.549 52.0222 173.706 52.0222C173.863 52.0222 173.971 52.0825 174.044 52.1912C174.116 52.2998 174.116 52.4568 174.044 52.6499C173.67 53.2898 173.08 54.0986 172.284 55.0644C171.489 56.0302 170.609 56.996 169.621 57.9618C168.633 58.9276 167.68 59.7485 166.728 60.4246C166.234 60.7988 165.608 61.1369 164.836 61.4145C164.065 61.7043 163.294 61.8371 162.547 61.8371C161.944 61.8371 161.353 61.6922 160.787 61.3783C160.221 61.0765 159.811 60.5091 159.546 59.6761C159.437 59.3381 159.377 58.8672 159.377 58.2636V57.6721C159.377 57.4668 159.401 57.2495 159.437 57.0202C159.582 55.8129 159.992 54.5332 160.655 53.1932C161.317 51.8531 161.932 50.6459 162.498 49.5956C162.643 49.2938 162.776 49.0282 162.872 48.7988C162.968 48.5694 163.017 48.3884 163.017 48.2314C163.017 47.9296 162.884 47.7727 162.619 47.7727C162.354 47.7727 161.944 47.9417 161.378 48.2797C160.811 48.6177 160.052 49.2093 159.112 50.0423C158.28 50.7666 157.401 51.6962 156.473 52.8552C155.545 54.0141 154.641 55.1972 153.749 56.4045C152.857 57.6117 152.086 58.6499 151.423 59.5191C150.76 60.3884 150.302 60.8954 150.037 61.0523C149.844 61.161 149.411 61.3542 148.736 61.6198C148.061 61.8853 147.567 62.0181 147.265 62.0181L147.277 62.0664ZM155.834 45.491C157.34 44.4648 158.991 43.1972 160.763 41.664C162.535 40.1308 164.21 38.489 165.776 36.7264C167.343 34.9638 168.536 33.2978 169.368 31.7043C169.826 30.835 170.043 30.1107 170.043 29.5433C170.043 28.9035 169.753 28.5775 169.187 28.5775C168.922 28.5775 168.62 28.6499 168.283 28.7827C167.946 28.9155 167.548 29.157 167.09 29.495C164.559 31.4628 162.426 33.8049 160.691 36.5091C158.955 39.2133 157.328 42.2073 155.822 45.503L155.834 45.491Z" fill="#5C3A27"/>
<path d="M177.587 62.1751C175.887 62.1751 174.417 61.7767 173.164 60.9799C171.911 60.1832 171.296 58.9759 171.296 57.3461C171.296 56.4769 171.561 55.4146 172.091 54.1711C172.465 53.3019 173.164 52.2999 174.188 51.1651C175.213 50.0303 176.394 48.9196 177.755 47.8451C179.117 46.7707 180.491 45.8773 181.889 45.1771C183.287 44.4769 184.552 44.1268 185.685 44.1268C186.095 44.1268 186.481 44.1872 186.818 44.2958C187.457 44.5252 187.903 44.8874 188.144 45.3703C188.385 45.8532 188.517 46.3723 188.517 46.9035C188.517 47.3985 188.445 47.8693 188.288 48.316C188.132 48.7747 187.951 49.1731 187.722 49.5111C187.047 50.5373 186.071 51.4427 184.806 52.2395C183.54 53.0363 182.251 53.652 180.949 54.1107C179.648 54.5695 178.575 54.8351 177.743 54.9075H177.635C177.141 54.9075 176.9 54.7626 176.9 54.4488C176.9 54.2556 177.044 54.159 177.358 54.159C178.262 54.0866 179.406 53.6641 180.78 52.8793C182.154 52.1067 183.371 51.2979 184.432 50.4649C184.89 50.0906 185.42 49.5594 186.047 48.8713C186.673 48.1952 186.987 47.5313 186.987 46.8914C186.987 46.2154 186.661 45.8653 186.023 45.8653C185.685 45.8653 185.336 45.9377 184.974 46.0946C184.613 46.2516 184.323 46.3602 184.094 46.4327C182.998 46.9639 181.793 47.7848 180.467 48.8954C179.141 50.0061 177.948 51.2616 176.864 52.6379C175.791 54.0142 175.044 55.4146 174.622 56.815C174.514 57.1168 174.429 57.4065 174.393 57.6962C174.357 57.9739 174.333 58.2516 174.333 58.5172C174.333 59.4226 174.622 60.0745 175.213 60.4488C175.803 60.823 176.502 61.0162 177.334 61.0162C178.575 61.0162 179.864 60.7385 181.19 60.1952C182.516 59.652 183.793 58.9397 185.047 58.0705C186.3 57.2013 187.433 56.2596 188.469 55.2576C189.506 54.2556 190.385 53.2777 191.108 52.3361C191.217 52.1912 191.349 52.0946 191.506 52.0826C191.663 52.0705 191.747 52.0826 191.795 52.1671C191.94 52.2033 192.024 52.3119 192.024 52.481C192.024 52.65 191.988 52.8069 191.916 52.9639C190.855 54.4367 189.59 55.8733 188.096 57.2737C186.601 58.6741 184.962 59.8331 183.167 60.7626C181.371 61.6922 179.515 62.151 177.587 62.151V62.1751Z" fill="#5C3A27"/>
<path d="M205.45 61.8975C204.775 61.8975 204.16 61.7526 203.642 61.4387C203.112 61.1369 202.714 60.5695 202.449 59.7365C202.413 59.5434 202.364 59.326 202.304 59.0846C202.244 58.8432 202.22 58.5776 202.22 58.324C202.22 57.4186 202.34 56.3925 202.593 55.2576C202.834 54.1228 203.112 53.1812 203.413 52.4206C203.256 52.5293 202.991 52.9156 202.618 53.5554C202.244 54.1953 201.762 54.9438 201.208 55.8009C200.641 56.658 200.002 57.5031 199.303 58.3603C198.604 59.2174 197.845 59.9176 197.038 60.4609C196.23 61.0041 195.363 61.2818 194.459 61.2818C193.856 61.2818 193.133 61.1128 192.277 60.7747C191.422 60.4367 190.819 59.9659 190.434 59.3502C190.06 58.7466 189.867 57.986 189.867 57.0806C189.867 55.982 190.108 54.7868 190.602 53.483C191.096 52.1792 191.711 50.9599 192.47 49.825C192.735 49.4508 193.037 48.992 193.374 48.4609C193.712 47.9297 194.049 47.4709 194.399 47.0725C194.748 46.6741 194.989 46.4568 195.134 46.4206C195.592 46.2758 196.11 46.1912 196.724 46.1912C197.363 46.1912 197.833 46.2637 198.146 46.4206C198.412 46.5293 198.544 46.6741 198.544 46.819C198.544 47.0122 198.388 47.2536 198.086 47.5554C197.664 47.9297 197.098 48.4971 196.387 49.2576C195.664 50.0182 194.965 50.9236 194.266 51.986C193.567 53.0484 192.988 54.2194 192.543 55.4991C192.169 56.5252 191.976 57.4065 191.976 58.1671C191.976 59.4951 192.506 60.147 193.567 60.147C194.471 60.147 195.435 59.7727 196.459 59.0122C197.484 58.2516 198.472 57.3341 199.436 56.2355C200.4 55.1369 201.268 54.0504 202.039 52.976C202.81 51.9015 203.401 51.0323 203.823 50.3924C204.196 49.8613 204.63 49.1852 205.1 48.3522C205.57 47.5192 206.04 46.7104 206.486 45.9136C206.932 45.1168 207.293 44.5373 207.559 44.151C207.824 44.151 208.234 44.1993 208.776 44.2959C209.318 44.3924 209.8 44.5494 210.198 44.7788C210.596 45.0081 210.692 45.2858 210.511 45.6359C210.282 46.0102 209.933 46.6017 209.463 47.3985C208.993 48.1953 208.523 48.992 208.053 49.813C207.583 50.6218 207.209 51.2737 206.944 51.7687C206.04 53.5071 205.45 55.3784 205.184 57.3824C205.148 57.5273 205.124 57.6721 205.124 57.8049V58.2275C205.124 59.7365 205.63 60.4971 206.655 60.4971C207.221 60.4971 207.98 60.159 208.92 59.4709C209.86 58.7949 210.837 57.9739 211.837 57.0323C212.837 56.0906 213.741 55.1731 214.56 54.2798C215.368 53.3864 215.922 52.7224 216.236 52.2637C216.308 52.155 216.428 52.0947 216.573 52.0947C216.718 52.0947 216.85 52.155 216.947 52.2637C217.043 52.3723 217.031 52.5293 216.923 52.7224C216.585 53.3623 216.007 54.1711 215.199 55.1369C214.392 56.1027 213.488 57.0685 212.512 58.0343C211.524 59.0001 210.571 59.821 209.619 60.4971C209.125 60.8713 208.511 61.2094 207.751 61.487C206.992 61.7768 206.245 61.9096 205.486 61.9096L205.45 61.8975Z" fill="#5C3A27"/>
<path d="M222.779 62.0061C222.141 62.0061 221.574 61.8612 221.08 61.5836C220.586 61.2938 220.249 60.7626 220.056 59.9659C219.947 59.5554 219.887 59.1329 219.887 58.7224C219.887 57.5876 220.176 56.4769 220.767 55.4025C221.357 54.328 222.044 53.326 222.828 52.3964C223.623 51.4669 224.298 50.6822 224.864 50.0423C225.166 49.7405 225.515 49.3421 225.913 48.8471C226.311 48.3522 226.503 47.8693 226.503 47.3743C226.503 47.0725 226.347 46.7828 226.045 46.493C225.744 46.2033 225.19 46.0101 224.406 45.9015C223.948 45.829 223.527 45.7566 223.129 45.7083C222.731 45.66 222.322 45.6238 221.912 45.6238C220.851 47.0604 219.827 48.5091 218.827 49.9699C217.826 51.4306 216.754 52.8552 215.621 54.2556C215.356 54.5212 215.127 54.654 214.946 54.654C214.717 54.654 214.609 54.5453 214.609 54.316C214.609 54.0866 214.717 53.8572 214.946 53.6399C216.983 51.1409 218.742 48.4729 220.213 45.6359C220.02 45.6359 219.743 45.6359 219.357 45.6117C218.971 45.5876 218.682 45.5634 218.453 45.5272C218.188 45.4548 217.983 45.3341 217.826 45.1892C217.67 45.0443 217.597 44.8874 217.597 44.7304C217.597 44.5011 217.694 44.3683 217.887 44.3321C218.381 44.1872 218.911 43.9578 219.477 43.656C220.044 43.3542 220.574 42.9558 221.068 42.4608C221.598 41.9296 222.093 41.3743 222.538 40.7828C222.996 40.1912 223.346 39.7566 223.611 39.4548C223.876 39.2616 224.153 39.1771 224.467 39.1771C224.659 39.1771 224.84 39.2375 225.009 39.3461C225.178 39.4548 225.262 39.6359 225.262 39.8532C225.262 40.1188 225.154 40.4568 224.925 40.8793C224.587 41.4105 224.214 41.99 223.816 42.6419C223.418 43.2938 223.057 43.8733 222.707 44.4045C223.382 44.4407 224.069 44.4769 224.744 44.5131C225.419 44.5494 226.118 44.5735 226.841 44.5735C227.214 44.5735 227.588 44.5735 227.95 44.5494C228.311 44.5252 228.673 44.5252 229.058 44.5252C230.191 44.5252 230.758 44.815 230.758 45.3824C230.758 45.7566 230.553 46.2274 230.167 46.7707C229.769 47.326 229.287 47.9176 228.721 48.5574C227.431 50.0302 226.347 51.5876 225.431 53.2053C224.527 54.8351 223.924 56.0785 223.623 56.9477C223.322 57.8532 223.165 58.5413 223.165 58.988C223.165 59.8934 223.527 60.3522 224.238 60.3522C224.876 60.3522 225.66 60.0262 226.588 59.3864C227.516 58.7465 228.468 57.9618 229.444 57.0323C230.42 56.1027 231.312 55.1972 232.107 54.3039C232.903 53.4105 233.469 52.7465 233.807 52.2878C233.879 52.1791 233.999 52.1188 234.144 52.1188C234.289 52.1188 234.421 52.1791 234.542 52.3119C234.65 52.4447 234.65 52.6017 234.542 52.7948C234.12 53.4347 233.517 54.2435 232.734 55.2093C231.939 56.1751 231.059 57.1288 230.071 58.0705C229.094 59.0121 228.13 59.8331 227.178 60.5091C226.684 60.8834 226.021 61.2335 225.166 61.5594C224.31 61.8854 223.515 62.0423 222.755 62.0423L222.779 62.0061Z" fill="#5C3A27"/>
<path d="M94.9984 84.0745C93.6487 84.0745 91.9374 83.9175 90.1899 83.326C86.4178 82.0463 83.9834 79.2817 83.887 79.1731L83.2122 78.4004L84.2245 78.1952C84.3691 78.159 87.9845 77.4467 91.7566 78.7143C95.5287 79.994 97.9631 82.7586 98.0595 82.8672L98.7344 83.6399L97.722 83.8451C97.6377 83.8572 96.5651 84.0745 95.0105 84.0745H94.9984ZM85.6345 79.2093C86.6107 80.0785 88.3461 81.4306 90.5635 82.1791C92.793 82.9276 94.9864 82.9155 96.2879 82.8069C95.3118 81.9376 93.5764 80.5855 91.3589 79.837C89.1414 79.0886 86.936 79.1006 85.6345 79.2093Z" fill="#6B7A63"/>
<path d="M107.496 84.8712L106.483 84.6659C106.339 84.6418 103 83.9536 100.229 81.5029C97.4567 79.0522 96.3721 75.8048 96.3239 75.672L95.9985 74.6941L97.0108 74.8993C97.1555 74.9235 100.494 75.6116 103.266 78.0623C106.037 80.513 107.122 83.7605 107.17 83.8933L107.496 84.8712ZM97.9388 76.4084C98.4691 77.507 99.4573 79.2092 101.024 80.5975C102.603 81.9979 104.41 82.7706 105.567 83.1448C105.037 82.0462 104.049 80.344 102.482 78.9557C100.916 77.5673 99.0957 76.7947 97.9509 76.4084H97.9388Z" fill="#6B7A63"/>
<path d="M116.739 86.1992L115.727 85.994C115.618 85.9698 113.027 85.4386 110.87 83.5432C108.725 81.6479 107.881 79.1247 107.845 79.0282L107.52 78.0503L108.532 78.2555C108.641 78.2797 111.244 78.7988 113.389 80.7062C115.534 82.6016 116.378 85.1247 116.414 85.2334L116.739 86.2113V86.1992ZM109.496 79.8008C109.918 80.6217 110.629 81.7203 111.665 82.6499C112.714 83.5674 113.895 84.1348 114.751 84.4608C114.329 83.6519 113.618 82.5412 112.581 81.6117C111.533 80.6942 110.352 80.1268 109.496 79.8008Z" fill="#6B7A63"/>
<path d="M95.9985 94.9999L96.3239 94.0221C96.3721 93.8893 97.4567 90.6418 100.229 88.1911C103 85.7404 106.351 85.0643 106.483 85.0281L107.496 84.8229L107.17 85.8007C107.122 85.9335 106.037 89.181 103.266 91.6317C100.494 94.0824 97.1434 94.7585 97.0108 94.7947L95.9985 94.9999ZM105.555 86.5372C104.41 86.9235 102.591 87.6961 101.024 89.0844C99.4573 90.4728 98.457 92.1871 97.9388 93.2736C99.0837 92.8873 100.903 92.1146 102.47 90.7263C104.037 89.338 105.037 87.6237 105.555 86.5372Z" fill="#6B7A63"/>
<path d="M107.532 93.5512L107.857 92.5734C107.893 92.4647 108.737 89.9537 110.882 88.0583C113.027 86.1629 115.63 85.6317 115.739 85.6076L116.751 85.4023L116.426 86.3802C116.39 86.4889 115.546 88.9999 113.401 90.9074C111.256 92.8028 108.653 93.3339 108.544 93.3581L107.532 93.5633V93.5512ZM114.775 87.1529C113.919 87.4667 112.726 88.0341 111.689 88.9637C110.641 89.8812 109.942 90.9919 109.52 91.8128C110.376 91.4869 111.569 90.9315 112.605 90.0019C113.654 89.0844 114.353 87.9738 114.775 87.1529Z" fill="#6B7A63"/>
<path d="M120.451 86.8389C112.148 86.8389 97.4932 83.6759 96.7942 83.531L96.987 82.6256C97.1798 82.6739 116.812 86.8992 123.5 85.7041L123.669 86.6216C122.777 86.7785 121.692 86.851 120.463 86.851L120.451 86.8389Z" fill="#6B7A63"/>
<path d="M152.001 84.0744C150.435 84.0744 149.362 83.8571 149.29 83.845L148.278 83.6398L148.952 82.8672C149.049 82.7464 151.483 79.9819 155.255 78.7143C159.027 77.4346 162.631 78.1589 162.787 78.1951L163.8 78.4004L163.125 79.173C163.028 79.2937 160.594 82.0583 156.822 83.3259C155.075 83.9175 153.363 84.0744 152.014 84.0744H152.001ZM150.712 82.8068C152.014 82.9155 154.219 82.9275 156.436 82.179C158.654 81.4305 160.401 80.0905 161.365 79.2092C160.064 79.1006 157.858 79.0885 155.641 79.837C153.411 80.5855 151.676 81.9376 150.712 82.8068Z" fill="#6B7A63"/>
<path d="M139.504 84.8712L139.83 83.8933C139.878 83.7605 140.962 80.513 143.734 78.0623C146.506 75.6116 149.856 74.9355 149.989 74.8993L151.001 74.6941L150.676 75.672C150.628 75.8048 149.543 79.0522 146.771 81.5029C143.999 83.9536 140.649 84.6297 140.516 84.6659L139.504 84.8712ZM149.073 76.4084C147.928 76.7947 146.108 77.5673 144.53 78.9557C142.963 80.344 141.963 82.0583 141.444 83.1448C142.601 82.7585 144.409 81.9858 145.976 80.5975C147.554 79.1971 148.543 77.4949 149.073 76.4084Z" fill="#6B7A63"/>
<path d="M130.261 86.1992L130.586 85.2213C130.622 85.1127 131.466 82.6016 133.611 80.6941C135.756 78.7988 138.359 78.2676 138.468 78.2434L139.48 78.0382L139.155 79.0161C139.119 79.1247 138.275 81.6358 136.13 83.5312C133.985 85.4265 131.382 85.9577 131.273 85.9819L130.261 86.1871V86.1992ZM137.504 79.8008C136.648 80.1267 135.455 80.6821 134.418 81.6116C133.37 82.5292 132.671 83.6398 132.249 84.4607C133.105 84.1469 134.298 83.5795 135.334 82.6499C136.383 81.7324 137.082 80.6217 137.504 79.8008Z" fill="#6B7A63"/>
<path d="M151.001 94.9999L149.989 94.7947C149.844 94.7706 146.506 94.0824 143.734 91.6317C140.962 89.181 139.878 85.9335 139.83 85.8007L139.504 84.8229L140.516 85.0281C140.661 85.0523 143.999 85.7404 146.771 88.1911C149.543 90.6418 150.628 93.8893 150.676 94.0221L151.001 94.9999ZM141.444 86.5372C141.975 87.6358 142.963 89.338 144.53 90.7263C146.096 92.1146 147.916 92.8873 149.061 93.2736C148.531 92.175 147.542 90.4728 145.976 89.0844C144.409 87.6961 142.589 86.9235 141.444 86.5372Z" fill="#6B7A63"/>
<path d="M139.468 93.5512L138.456 93.346C138.347 93.3219 135.744 92.8027 133.599 90.8953C131.454 88.9999 130.61 86.4768 130.574 86.3681L130.249 85.3903L131.261 85.5955C131.37 85.6196 133.961 86.1508 136.118 88.0462C138.263 89.9416 139.107 92.4647 139.143 92.5613L139.468 93.5392V93.5512ZM132.225 87.1528C132.647 87.9617 133.358 89.0724 134.394 90.0019C135.443 90.9194 136.624 91.4868 137.48 91.8128C137.058 90.9919 136.347 89.8933 135.31 88.9637C134.262 88.0462 133.081 87.4788 132.225 87.1528Z" fill="#6B7A63"/>
<path d="M126.549 86.8389C134.852 86.8389 149.507 83.6759 150.206 83.531L150.013 82.6256C149.82 82.6739 130.189 86.8992 123.5 85.7041L123.331 86.6216C124.223 86.7785 125.308 86.851 126.537 86.851L126.549 86.8389Z" fill="#6B7A63"/>
<path d="M122.03 36.2434C121.897 36.2434 121.777 36.2313 121.644 36.2434C118.872 36.678 116.956 35.1327 115.185 33.3702C113.377 31.5834 112.726 29.338 112.823 26.8269C112.847 26.0543 113.124 25.7645 113.883 25.7645C119.427 25.7645 124.971 25.7645 130.502 25.7645C131.225 25.7645 131.936 25.9698 132.659 25.9698C133.623 25.9698 134.491 26.175 134.925 27.0925C135.395 28.0824 135.311 29.1569 134.575 29.9778C134.057 30.5573 133.358 31.2333 132.647 31.3541C130.671 31.68 129.369 32.851 128.044 34.2152C126.393 35.9174 125.103 36.2313 122.018 36.2434H122.03ZM132.286 27.0201C132.141 27.1287 131.551 27.346 131.406 27.7203C131.105 28.4929 131.02 29.3621 130.912 30.2072C130.888 30.3641 131.093 30.6901 131.237 30.7142C132.262 30.8953 133.744 29.9174 134.045 28.9034C134.371 27.8289 133.816 27.0683 132.286 27.008V27.0201Z" fill="#5C3A27"/>
<path d="M118.776 7.54727C119.27 7.54727 119.764 7.52313 120.246 7.54727C121.042 7.60763 121.536 7.30582 121.741 6.50904C121.849 6.06236 122.066 5.6519 122.319 4.98792C122.572 5.59154 122.801 5.97785 122.898 6.40039C123.127 7.31789 123.693 7.63178 124.585 7.54727C124.995 7.51105 125.428 7.54727 125.838 7.54727C125.886 7.63178 125.923 7.71629 125.971 7.81286C125.573 8.13882 125.224 8.53721 124.79 8.79073C124.115 9.17705 123.946 9.65995 124.175 10.3722C124.332 10.843 124.404 11.3501 124.549 11.9779C124.284 11.8571 124.127 11.8209 124.006 11.7364C122.882 10.9879 121.729 10.996 120.548 11.7606C120.451 11.8209 120.331 11.8451 120.15 11.9054C120.307 11.0241 120.74 10.1066 120.499 9.43057C120.282 8.79073 119.342 8.41649 118.716 7.92152C118.74 7.80079 118.764 7.68007 118.788 7.55934L118.776 7.54727Z" fill="#5C3A27"/>
<path d="M122.078 39.0684C119.234 38.9597 116.426 38.8028 113.678 38.0784C113.184 37.9456 112.726 37.7163 112.268 37.499C112.16 37.4507 112.063 37.1972 112.1 37.0885C112.136 36.9799 112.353 36.8591 112.485 36.8712C112.774 36.8953 113.064 37.004 113.365 37.0523C115.522 37.33 117.667 37.7283 119.824 37.8249C123.705 38.006 127.586 37.9456 131.394 36.9799C131.647 36.9195 131.96 37.1126 132.249 37.1851C132.057 37.3903 131.912 37.7042 131.671 37.7766C130.984 38.006 130.285 38.2354 129.574 38.3199C127.079 38.6096 124.585 38.8269 122.078 39.0684Z" fill="#5C3A27"/>
<path d="M122.596 16.167C122.379 16.9034 121.946 17.6398 122.03 18.3038C122.114 18.9557 122.741 19.5352 123.078 20.163C123.464 20.8873 123.38 21.4909 122.681 22.0583C121.958 22.6499 121.054 23.1449 121.054 24.4728C120.524 23.3863 120.632 22.8189 121.379 22.0342C122.094 21.2777 122.191 20.4406 121.668 19.5231C120.933 18.2193 121.235 17.0604 122.584 16.167H122.596Z" fill="#5C3A27"/>
</g>
<defs>
<clipPath id="clip0_307_775">
<rect width="222.3" height="90" fill="white" transform="translate(12.3501 5)"/>
</clipPath>
</defs>
</svg>
