<svg width="247" height="100" viewBox="0 0 247 100" fill="none" xmlns="http://www.w3.org/2000/svg">
<g clip-path="url(#clip0_21_50)">
<path d="M67.9888 64.6758C66.851 64.6758 65.6873 64.5213 64.4805 64.2122C63.2738 63.9032 62.1532 63.5426 61.1016 63.1219C60.05 62.7013 59.1277 62.3665 58.3433 62.0918C56.9124 61.5767 55.5763 61.0873 54.3351 60.598C53.0938 60.1172 52.2146 59.8168 51.6974 59.7137C49.077 59.0441 47.2238 58.7093 46.1463 58.7093C45.9567 58.8467 45.7843 58.9583 45.6205 59.0527C45.4567 59.1471 45.2843 59.2072 45.0947 59.233C45.0171 59.2588 44.8878 59.2759 44.7327 59.2759C44.25 59.2759 44 59.1128 44 58.7952C44 58.6063 44.1465 58.4174 44.4482 58.2286C44.6637 58.117 44.9137 58.0569 45.1981 58.0483C45.4826 58.0397 45.7757 58.014 46.0687 57.9882C46.6894 57.4474 47.2755 56.7606 47.8272 55.9278C48.3788 55.0951 48.784 54.4598 49.0253 54.0306C49.2408 53.6529 49.4477 53.2837 49.6546 52.9231C49.8614 52.5626 50.0683 52.202 50.2838 51.85C49.8528 51.9531 49.4046 52.0561 48.9477 52.1505C48.4909 52.2449 48.0427 52.2879 47.6117 52.2879C46.8273 52.2879 46.1205 52.1247 45.4826 51.8071C44.8447 51.4809 44.5344 50.8885 44.5344 50.03C44.5344 49.4634 44.7844 48.9398 45.2843 48.459C45.7843 47.9783 46.3015 47.7293 46.8445 47.7293C47.1721 47.7293 47.3272 47.8667 47.3272 48.1328C47.3272 48.2959 47.2065 48.3732 46.9652 48.3732C46.6635 48.3732 46.3963 48.5535 46.1549 48.8968C45.9136 49.2488 45.7929 49.6094 45.7929 49.9871C45.7929 50.2533 45.8791 50.5194 46.0601 50.7769C46.2325 51.0345 46.5428 51.189 46.9738 51.2405C47.3789 51.3178 47.8099 51.3607 48.2668 51.3607C49.0512 51.3607 49.8442 51.2577 50.6545 51.0345C51.0337 50.279 51.3871 49.5321 51.7319 48.7938C52.0681 48.0555 52.4043 47.3172 52.7232 46.5961C53.3955 45.1195 54.0851 43.6773 54.7919 42.2779C55.4901 40.8786 56.1797 39.6252 56.8607 38.5264C57.533 37.4275 58.145 36.6034 58.6881 36.0625C59.7138 35.0924 60.7482 34.4056 61.7912 34.0021C62.8342 33.5987 63.7651 33.3926 64.6098 33.3926C64.7736 33.3926 64.9374 33.3926 65.0925 33.4098C65.2563 33.427 65.4028 33.4441 65.5408 33.4699C66.5407 33.633 67.2389 33.9764 67.644 34.5001C68.0491 35.0237 68.256 35.6504 68.256 36.3801C68.256 36.7579 68.2129 37.1442 68.1353 37.5477C67.7819 39.2389 67.0751 40.8271 66.0062 42.3123C64.9374 43.7889 63.653 45.1281 62.136 46.33C60.6189 47.5233 59.007 48.5449 57.2917 49.3776C55.5763 50.2103 53.9127 50.8199 52.2922 51.1976C51.9388 51.7899 51.5681 52.3737 51.1803 52.9489C50.7924 53.5241 50.3614 54.0993 49.9045 54.6659C49.6373 55.0693 49.2408 55.5844 48.7322 56.2197C48.2151 56.855 47.6893 57.4388 47.1548 57.971C47.5341 57.9968 47.9478 58.0311 48.3875 58.074C48.8357 58.117 49.3098 58.1771 49.827 58.2543C52.0681 58.6063 54.3178 59.1214 56.5762 59.8082C58.8346 60.495 61.0671 61.1217 63.2824 61.6883C63.903 61.8514 64.7908 62.0488 65.9373 62.2978C67.0837 62.5382 68.1612 62.6584 69.1611 62.6584C70.161 62.6584 70.8764 62.4867 71.3936 62.1347C71.7987 61.8943 72.0056 61.5595 72.0056 61.1302C72.0056 60.804 71.859 60.5379 71.5574 60.3233C71.3936 60.1859 71.316 60.0829 71.316 59.997C71.316 59.7309 71.4798 59.688 71.7987 59.8769C72.1521 60.1172 72.4021 60.4005 72.5486 60.7268C72.6952 61.053 72.7727 61.3878 72.7727 61.7312C72.7727 62.1347 72.6952 62.5038 72.5486 62.8386C72.4021 63.1734 72.2211 63.4138 72.0056 63.5426C70.8936 64.2981 69.5748 64.6758 68.0319 64.6758H67.9888ZM52.8697 50.2704C55.8694 48.9827 58.4984 47.4031 60.774 45.5488C63.041 43.6944 64.8426 41.2478 66.1614 38.2087C66.5924 37.2644 66.8079 36.4488 66.8079 35.7449C66.8079 35.1783 66.6355 34.7404 66.2821 34.4142C66.0924 34.1738 65.7821 34.0537 65.3511 34.0537C64.4633 34.0537 63.541 34.3627 62.5928 34.9808C61.7826 35.5732 61.0154 36.3544 60.3 37.3245C59.5845 38.2946 58.9122 39.3162 58.2916 40.3893C57.6709 41.4624 57.1193 42.484 56.6538 43.4369C56.1797 44.3898 55.7832 45.1539 55.4557 45.7205C55.2402 46.1497 54.9126 46.785 54.4644 47.6177C54.0162 48.4504 53.4817 49.3433 52.8611 50.279L52.8697 50.2704Z" fill="#5C3A27"/>
<path d="M65.7993 58.6578C64.5839 58.6578 63.5323 58.3745 62.6359 57.8079C61.7394 57.2413 61.2998 56.3829 61.2998 55.2239C61.2998 54.6058 61.4894 53.8503 61.8687 52.9661C62.1359 52.348 62.6359 51.6354 63.3685 50.8285C64.1012 50.0215 64.946 49.2317 65.92 48.4676C66.894 47.7036 67.8767 47.0683 68.8766 46.5704C69.8765 46.0725 70.7815 45.8235 71.5918 45.8235C71.8849 45.8235 72.1607 45.8664 72.402 45.9437C72.8589 46.1068 73.1778 46.3643 73.3502 46.7077C73.5226 47.0511 73.6174 47.4203 73.6174 47.798C73.6174 48.15 73.5657 48.4848 73.4537 48.8024C73.3416 49.1287 73.2123 49.412 73.0485 49.6523C72.5658 50.3821 71.8676 51.0259 70.9626 51.5925C70.0575 52.1591 69.1352 52.5969 68.2042 52.9232C67.2733 53.2494 66.5061 53.4383 65.9114 53.4898H65.8338C65.4804 53.4898 65.308 53.3867 65.308 53.1635C65.308 53.0262 65.4114 52.9575 65.6355 52.9575C66.282 52.906 67.1009 52.6055 68.0836 52.0475C69.0662 51.4981 69.9368 50.9229 70.6953 50.3305C71.0229 50.0644 71.4022 49.6867 71.8504 49.1973C72.2986 48.7166 72.5227 48.2444 72.5227 47.7894C72.5227 47.3087 72.29 47.0597 71.8331 47.0597C71.5918 47.0597 71.3418 47.1112 71.0832 47.2228C70.8246 47.3344 70.6178 47.4117 70.454 47.4632C69.6696 47.8409 68.8076 48.4247 67.8594 49.2145C66.9113 50.0043 66.0579 50.8971 65.2821 51.8758C64.515 52.8545 63.9805 53.8503 63.6789 54.8462C63.6013 55.0608 63.5409 55.2668 63.5151 55.4729C63.4892 55.6703 63.472 55.8678 63.472 56.0566C63.472 56.7005 63.6789 57.1641 64.1012 57.4302C64.5236 57.6963 65.0235 57.8337 65.6183 57.8337C66.5061 57.8337 67.4285 57.6362 68.3766 57.2499C69.3248 56.8636 70.2385 56.3571 71.1349 55.739C72.0314 55.1209 72.8417 54.4513 73.583 53.7387C74.3243 53.0262 74.9535 52.3308 75.4707 51.6612C75.5483 51.5582 75.6431 51.4895 75.7551 51.4809C75.8672 51.4723 75.9275 51.4809 75.962 51.541C76.0654 51.5668 76.1258 51.644 76.1258 51.7642C76.1258 51.8844 76.0999 51.996 76.0482 52.1076C75.2897 53.155 74.3846 54.1766 73.3157 55.1724C72.2469 56.1682 71.0746 56.9924 69.7903 57.6534C68.5059 58.3144 67.1785 58.6407 65.7993 58.6407V58.6578Z" fill="#5C3A27"/>
<path d="M97.1581 60.5207C95.6151 60.5207 94.3308 60.2289 93.305 59.6365C92.2793 59.0442 91.6673 58.1342 91.4777 56.8894V56.649C91.2622 56.9495 91.0122 57.2928 90.7277 57.6963C90.4433 58.0998 90.1502 58.4432 89.8399 58.7265C89.5296 59.0098 89.2107 59.1472 88.8917 59.1472C88.84 59.1472 88.6849 59.1214 88.4263 59.0699C88.1677 59.0184 87.9263 58.9497 87.6936 58.8725C87.4609 58.7952 87.3316 58.7008 87.3057 58.5892C87.2281 58.0741 87.3488 57.3444 87.6936 56.3914C88.0298 55.4385 88.478 54.3826 89.0296 53.2236C89.5813 52.0647 90.1675 50.9143 90.7708 49.7554C91.3828 48.5964 91.9431 47.5576 92.4517 46.6305C92.9603 45.7033 93.3309 44.9994 93.5464 44.51C93.7102 44.2181 93.8136 43.9692 93.874 43.7631C93.9257 43.5657 93.9515 43.4112 93.9515 43.2996C93.9515 43.1364 93.9257 43.0077 93.874 42.8961C93.9257 42.5698 94.1239 42.1406 94.4601 41.6083C94.7963 41.0675 95.2186 40.5352 95.7358 39.9944C96.2444 39.4535 96.8047 39.0071 97.3994 38.6466C97.9942 38.286 98.5459 38.1057 99.063 38.1057C99.2268 38.1057 99.4768 38.1486 99.813 38.2431C100.149 38.3375 100.477 38.4835 100.787 38.6637C101.097 38.8526 101.296 39.1187 101.373 39.4707C101.399 39.548 101.416 39.6338 101.416 39.7111C101.416 39.7884 101.39 39.8313 101.339 39.8313C101.287 39.8313 101.209 39.8141 101.115 39.7712C101.02 39.7283 100.942 39.7111 100.89 39.7111C100.27 39.7111 99.5975 40.0116 98.8648 40.5953C98.1321 41.1877 97.3822 41.9775 96.615 42.9733C95.8479 43.9692 95.098 45.0594 94.3653 46.2442C93.6326 47.4289 92.943 48.6222 92.2793 49.8155C91.6156 51.0087 91.0467 52.1162 90.5553 53.1206C90.0726 54.125 89.6934 54.9406 89.4175 55.5587C89.202 56.1511 89.09 56.5631 89.09 56.8121C89.09 57.1898 89.2365 57.3787 89.5382 57.3787C89.9175 57.3787 90.3226 57.1212 90.7536 56.6146C91.0467 56.2627 91.3311 55.9364 91.5811 55.6274C91.8397 55.3183 92.0638 55.1896 92.2534 55.2411C92.6327 55.2411 92.8913 55.3441 93.0206 55.5415C93.1585 55.739 93.2361 55.9794 93.2619 56.2455C93.2878 56.5116 93.3137 56.7606 93.3395 56.9752C93.5292 57.8079 93.9688 58.5033 94.6583 59.0527C95.3479 59.6022 96.3133 59.8769 97.5546 59.8769C98.882 59.8769 100.063 59.6623 101.123 59.233C102.175 58.8038 103.011 58.2028 103.632 57.4388C104.252 56.6747 104.562 55.8077 104.562 54.8376C104.562 54.168 104.399 53.464 104.08 52.7171C103.761 51.9702 103.244 51.232 102.537 50.4765C101.942 49.7811 101.278 49.1201 100.554 48.502C99.8216 47.8839 99.1923 47.3087 98.6665 46.785C98.1407 46.2613 97.8735 45.8149 97.8735 45.4372C97.8735 45.111 98.089 44.8277 98.52 44.5701C98.951 44.3126 99.3044 44.1838 99.5716 44.1838C100.192 44.1838 100.985 44.0636 101.942 43.8232C102.899 43.5829 103.89 43.248 104.924 42.836C105.95 42.4153 106.89 41.9517 107.743 41.4452C108.596 40.9387 109.226 40.4236 109.631 39.9085C109.872 39.6167 110.07 39.299 110.217 38.9642C110.364 38.6294 110.441 38.2946 110.441 37.977C110.441 37.4619 110.217 36.9983 109.769 36.5862C109.321 36.1655 108.571 35.8651 107.519 35.6762C107.226 35.599 106.873 35.5389 106.467 35.5131C106.062 35.4873 105.631 35.4702 105.174 35.4702C103.795 35.4702 102.201 35.5989 100.39 35.8565C98.5803 36.114 96.7443 36.4832 94.8825 36.9639C93.0206 37.4447 91.2794 38.0542 89.6589 38.7839C88.0384 39.5136 86.7109 40.355 85.6679 41.3079C84.625 42.2608 84.0388 43.3167 83.9095 44.4757C83.8578 45.1453 84.013 45.6604 84.3922 46.0124C84.7715 46.3643 85.2197 46.6219 85.7283 46.8022C86.2368 46.9739 86.642 47.1456 86.9437 47.3087C87.185 47.4203 87.3057 47.5233 87.3057 47.6349C87.3057 47.7723 87.1592 47.8409 86.8575 47.8409C86.5299 47.8409 86.1248 47.7637 85.6421 47.6006C85.1594 47.4374 84.6767 47.1885 84.2026 46.8537C83.7285 46.5189 83.3406 46.1068 83.0475 45.626C82.7545 45.1453 82.6424 44.5787 82.72 43.9348C82.72 43.8833 82.7027 43.7803 82.6769 43.6344C82.651 43.4884 82.6338 43.3682 82.6338 43.291C82.7114 42.4325 83.082 41.6083 83.7457 40.8271C84.4095 40.0459 85.1939 39.3334 86.0989 38.6895C87.004 38.0456 87.8487 37.5048 88.6331 37.0755C89.4951 36.6205 90.5381 36.1913 91.7535 35.805C92.9689 35.4187 94.2705 35.0753 95.6669 34.7748C97.0546 34.4829 98.4683 34.2425 99.8992 34.0708C101.33 33.8992 102.666 33.8047 103.907 33.8047C105.226 33.8047 106.39 33.9163 107.39 34.1309C108.743 34.4228 109.777 34.9551 110.51 35.702C111.243 36.4574 111.605 37.2902 111.605 38.2002C111.579 39.196 111.277 40.0631 110.691 40.8014C110.114 41.5397 109.364 42.1664 108.441 42.6814C107.519 43.1965 106.528 43.6172 105.468 43.952C104.399 44.2868 103.356 44.5358 102.33 44.6989C101.304 44.862 100.408 44.9564 99.6578 44.9822C100.796 45.6518 101.916 46.3987 103.037 47.2228C104.157 48.047 105.088 48.9398 105.83 49.9013C106.571 50.8714 106.941 51.9359 106.941 53.0863C106.941 53.7301 106.795 54.3998 106.519 55.0865C106.243 55.7733 105.786 56.503 105.166 57.2843C104.356 58.2801 103.226 59.0699 101.787 59.6623C100.339 60.2546 98.7958 60.5465 97.1495 60.5465L97.1581 60.5207Z" fill="#5C3A27"/>
<path d="M113.156 58.5033C112.397 58.5033 111.734 58.3316 111.173 57.9796C110.225 57.413 109.76 56.3915 109.76 54.9149C109.76 54.2967 109.863 53.5842 110.087 52.7772C110.277 52.1076 110.613 51.3693 111.096 50.5795C111.579 49.7897 112.156 49.0257 112.82 48.2959C113.483 47.5662 114.208 46.9739 114.983 46.5189C115.768 46.0639 116.552 45.8321 117.337 45.8321C117.664 45.8321 117.949 45.875 118.19 45.9523C118.517 46.0553 118.793 46.2528 119.017 46.5361C119.25 46.8194 119.362 47.1799 119.362 47.6092C119.362 48.0642 119.25 48.3217 119.017 48.3732C118.785 48.4247 118.673 48.3732 118.673 48.2101C118.673 48.1586 118.673 48.1071 118.69 48.047C118.698 47.9955 118.707 47.9526 118.707 47.9268C118.707 47.7122 118.647 47.5147 118.526 47.343C118.405 47.1713 118.181 47.0769 117.854 47.0769C117.423 47.0769 116.888 47.3087 116.25 47.7637C115.613 48.2187 114.966 48.8368 114.302 49.6008C113.639 50.3649 113.061 51.2062 112.561 52.1248C112.061 53.0434 111.734 53.9534 111.57 54.8719C111.544 55.0093 111.518 55.1295 111.51 55.2583C111.492 55.3784 111.492 55.5072 111.492 55.6446C111.492 56.2627 111.639 56.7778 111.915 57.1984C112.199 57.6191 112.647 57.8251 113.268 57.8251C114.027 57.8251 114.751 57.5332 115.457 56.9581C116.156 56.3829 116.785 55.6875 117.345 54.8805C117.897 54.0735 118.311 53.361 118.578 52.7429C118.793 52.2621 118.94 51.8415 119.026 51.4895C119.112 51.1375 119.147 50.8456 119.147 50.6053C119.147 50.3906 119.129 50.2018 119.086 50.0387C119.043 49.8756 119 49.7468 118.948 49.6352C118.897 49.4721 118.871 49.3519 118.871 49.2746C118.871 49.06 118.957 48.8883 119.138 48.7509C119.31 48.6136 119.5 48.5449 119.681 48.5449C119.845 48.5449 120.017 48.5964 120.207 48.708C120.422 48.7595 120.715 48.8024 121.095 48.8282C121.474 48.854 121.879 48.8711 122.31 48.8711C122.767 48.8711 123.232 48.854 123.707 48.8282C124.181 48.8024 124.594 48.7509 124.939 48.6651C124.991 48.6393 125.077 48.6222 125.181 48.6222C125.37 48.6222 125.465 48.6737 125.465 48.7853C125.465 48.8969 125.37 48.9827 125.181 49.0686C124.232 49.4978 123.388 49.7296 122.646 49.7554C121.905 49.7811 121.259 49.7983 120.724 49.7983C120.776 50.4679 120.629 51.189 120.276 51.9531C119.922 52.7171 119.56 53.3953 119.181 53.9877C118.724 54.6573 118.199 55.3441 117.604 56.0481C117.009 56.752 116.345 57.3358 115.621 57.7994C114.889 58.2715 114.07 58.5033 113.147 58.5033H113.156Z" fill="#5C3A27"/>
<path d="M122.233 58.5806C122.043 58.5806 121.991 58.4862 122.069 58.2973C122.146 58.1342 122.302 57.7651 122.517 57.1899C122.733 56.6147 122.983 55.9193 123.267 55.1123C123.551 54.3054 123.845 53.4726 124.138 52.6142C124.431 51.7557 124.715 50.9487 124.965 50.1932C125.224 49.4378 125.431 48.8454 125.594 48.4162C125.646 48.2531 125.698 48.0213 125.758 47.7122C125.81 47.4032 125.931 47.1199 126.103 46.8623C126.275 46.6048 126.586 46.476 127.017 46.476C127.827 46.476 128.232 46.6649 128.232 47.0426C128.232 47.1799 128.163 47.4032 128.025 47.7294C127.698 48.4591 127.353 49.2918 126.974 50.2361C126.594 51.1805 126.258 52.0647 125.965 52.8975C125.663 53.7302 125.439 54.374 125.275 54.8376C125.543 54.4599 125.982 53.9276 126.594 53.2237C127.206 52.5283 127.887 51.7728 128.637 50.9659C129.387 50.1589 130.18 49.3777 131.008 48.6222C131.835 47.8667 132.602 47.2572 133.318 46.785C134.033 46.3129 134.645 46.0811 135.162 46.0811C135.809 46.0811 136.136 46.4331 136.136 47.1284C136.136 47.3688 136.067 47.738 135.929 48.2187C135.688 48.8883 135.378 49.5408 134.998 50.1761C134.619 50.8113 134.283 51.4724 133.99 52.1763C133.473 53.4383 133.18 54.4599 133.102 55.2411C133.076 55.3441 133.059 55.4471 133.059 55.5416V55.8421C133.059 56.9152 133.421 57.456 134.154 57.456C134.559 57.456 135.102 57.2156 135.774 56.7263C136.447 56.2455 137.145 55.6618 137.86 54.9922C138.576 54.3225 139.222 53.6701 139.782 53.0348C140.351 52.3995 140.739 51.9274 140.955 51.6011C141.032 51.5239 141.119 51.481 141.196 51.481C141.3 51.481 141.394 51.5239 141.463 51.6011C141.532 51.6784 141.541 51.79 141.481 51.9274C141.239 52.3824 140.825 52.9575 140.248 53.6443C139.67 54.3311 139.024 55.0179 138.326 55.7047C137.619 56.3915 136.938 56.9753 136.257 57.456C135.852 57.7221 135.352 57.9711 134.757 58.1857C134.162 58.4003 133.568 58.4948 132.973 58.469C132.214 58.3917 131.68 58.1256 131.352 57.6792C131.025 57.2328 130.87 56.7005 130.87 56.0824C130.87 55.3527 131.016 54.5801 131.292 53.7645C131.576 52.9404 131.895 52.1677 132.24 51.4466C132.594 50.7169 132.878 50.1675 133.094 49.7897C133.309 49.3605 133.421 49.0257 133.421 48.7853C133.421 48.5707 133.326 48.4591 133.137 48.4591C132.947 48.4591 132.663 48.5793 132.283 48.8197C131.904 49.06 131.395 49.4807 130.74 50.073C130.146 50.5881 129.508 51.2492 128.835 52.0733C128.163 52.8974 127.508 53.7388 126.87 54.5973C126.232 55.4557 125.681 56.194 125.206 56.8121C124.732 57.4302 124.405 57.7908 124.215 57.9024C124.077 57.9797 123.776 58.117 123.301 58.3059C122.827 58.4948 122.474 58.5892 122.224 58.5892L122.233 58.5806Z" fill="#5C3A27"/>
<path d="M140.507 58.5806C140.292 58.5806 140.24 58.4861 140.343 58.2973C140.395 58.1341 140.542 57.7307 140.766 57.0868C140.998 56.4429 141.274 55.6617 141.593 54.7431C141.921 53.8331 142.257 52.8974 142.602 51.9359C142.955 50.983 143.274 50.1245 143.576 49.3776C143.386 49.618 143.093 49.97 142.705 50.425C142.317 50.88 141.903 51.3693 141.472 51.8758C141.042 52.3909 140.636 52.8287 140.257 53.2064C140.18 53.2837 140.119 53.3266 140.093 53.3266C140.016 53.3266 139.973 53.2494 139.973 53.0863C139.973 52.76 140.05 52.4681 140.214 52.202C140.809 51.4466 141.386 50.7426 141.938 50.0816C142.49 49.4205 142.998 48.7938 143.455 48.2015C143.188 48.0384 143.05 47.8409 143.05 47.592C143.05 47.2142 143.24 47.0254 143.619 47.0254C143.783 47.0254 143.903 47.0511 143.981 47.1026C144.007 47.1284 144.033 47.1455 144.058 47.1455C144.084 47.1455 144.11 47.1713 144.136 47.2228C144.274 47.0339 144.386 46.8622 144.481 46.6991C144.576 46.536 144.662 46.3643 144.748 46.1755C144.851 45.9351 145.076 45.4715 145.42 44.7847C145.757 44.0979 146.179 43.2824 146.696 42.3466C147.205 41.4023 147.799 40.4322 148.454 39.4192C149.118 38.4148 149.834 37.4704 150.601 36.5948C151.368 35.7191 152.17 35.0152 152.988 34.4743C153.816 33.9335 154.652 33.6673 155.523 33.6673C155.626 33.6673 155.738 33.6673 155.85 33.6845C155.954 33.7017 156.066 33.7189 156.178 33.7446C156.85 33.882 157.324 34.1138 157.591 34.4486C157.859 34.7834 157.997 35.1783 157.997 35.6419C157.997 35.9681 157.936 36.3115 157.816 36.672C157.695 37.0326 157.522 37.3932 157.307 37.7451C156.764 38.6895 156.049 39.6338 155.161 40.5867C154.273 41.5396 153.273 42.484 152.178 43.4111C151.084 44.3383 149.989 45.2397 148.894 46.1154C147.799 46.991 146.782 47.8152 145.834 48.5964C145.188 49.97 144.688 51.189 144.334 52.2449C143.981 53.3095 143.714 54.1594 143.524 54.8032C143.817 54.4255 144.265 53.8932 144.86 53.1893C145.455 52.4939 146.127 51.7384 146.886 50.9315C147.644 50.1245 148.429 49.3518 149.239 48.6136C150.049 47.8753 150.816 47.2657 151.549 46.7936C152.282 46.3214 152.902 46.0896 153.411 46.0896C154.057 46.0896 154.385 46.4244 154.385 47.094C154.385 47.7637 154.152 48.4504 153.695 49.2317C153.238 50.0129 152.859 50.6739 152.558 51.2062C152.178 51.9874 151.877 52.7343 151.644 53.4468C151.411 54.1594 151.273 54.7431 151.221 55.1981C151.196 55.3011 151.178 55.4042 151.178 55.4986V55.7991C151.178 56.8722 151.558 57.413 152.316 57.413C152.721 57.413 153.264 57.1726 153.937 56.6833C154.609 56.2026 155.299 55.6188 156.005 54.9492C156.712 54.2795 157.35 53.6271 157.928 52.9918C158.505 52.3565 158.902 51.8844 159.126 51.5582C159.203 51.4809 159.298 51.438 159.41 51.438C159.522 51.438 159.6 51.4809 159.652 51.5582C159.703 51.6354 159.703 51.747 159.652 51.8844C159.384 52.3394 158.962 52.9146 158.393 53.6013C157.824 54.2881 157.195 54.9749 156.488 55.6617C155.781 56.3485 155.1 56.9323 154.419 57.413C154.066 57.6791 153.618 57.9195 153.066 58.117C152.514 58.323 151.963 58.4174 151.428 58.4174C150.997 58.4174 150.575 58.3144 150.17 58.0912C149.765 57.8766 149.472 57.4731 149.282 56.8808C149.204 56.6404 149.161 56.3056 149.161 55.8763V55.4557C149.161 55.3097 149.179 55.1552 149.204 54.9921C149.308 54.1336 149.601 53.2236 150.075 52.2707C150.549 51.3178 150.989 50.4593 151.394 49.7124C151.497 49.4978 151.592 49.3089 151.661 49.1458C151.73 48.9827 151.764 48.8539 151.764 48.7423C151.764 48.5277 151.67 48.4161 151.48 48.4161C151.29 48.4161 150.997 48.5363 150.592 48.7767C150.187 49.017 149.644 49.4377 148.972 50.0301C148.377 50.5451 147.748 51.2062 147.084 52.0303C146.42 52.8545 145.774 53.6958 145.136 54.5543C144.498 55.4127 143.946 56.151 143.472 56.7692C142.998 57.3873 142.671 57.7478 142.481 57.8594C142.343 57.9367 142.033 58.0741 141.55 58.2629C141.067 58.4518 140.714 58.5462 140.498 58.5462L140.507 58.5806ZM146.627 46.7936C147.705 46.0639 148.885 45.1624 150.153 44.0722C151.42 42.9819 152.618 41.8144 153.738 40.561C154.859 39.3076 155.712 38.1229 156.307 36.9897C156.635 36.3716 156.79 35.8565 156.79 35.453C156.79 34.998 156.583 34.7662 156.178 34.7662C155.988 34.7662 155.773 34.8177 155.531 34.9121C155.29 35.0066 155.006 35.1783 154.678 35.4187C152.868 36.818 151.342 38.4834 150.101 40.4064C148.86 42.3294 147.696 44.4585 146.618 46.8022L146.627 46.7936Z" fill="#5C3A27"/>
<path d="M162.185 58.6578C160.97 58.6578 159.918 58.3745 159.022 57.8079C158.125 57.2413 157.686 56.3829 157.686 55.2239C157.686 54.6058 157.875 53.8503 158.254 52.9661C158.522 52.348 159.022 51.6354 159.754 50.8285C160.487 50.0215 161.332 49.2317 162.306 48.4676C163.28 47.7036 164.262 47.0683 165.262 46.5704C166.262 46.0725 167.167 45.8235 167.978 45.8235C168.271 45.8235 168.546 45.8664 168.788 45.9437C169.245 46.1068 169.564 46.3643 169.736 46.7077C169.908 47.0511 170.003 47.4203 170.003 47.798C170.003 48.15 169.951 48.4848 169.839 48.8024C169.727 49.1287 169.598 49.412 169.434 49.6523C168.952 50.3821 168.253 51.0259 167.348 51.5925C166.443 52.1591 165.521 52.5969 164.59 52.9232C163.659 53.2494 162.892 53.4383 162.297 53.4898H162.22C161.866 53.4898 161.694 53.3867 161.694 53.1635C161.694 53.0262 161.797 52.9575 162.021 52.9575C162.668 52.906 163.487 52.6055 164.469 52.0475C165.452 51.4981 166.323 50.9229 167.081 50.3305C167.409 50.0644 167.788 49.6867 168.236 49.1973C168.684 48.7166 168.908 48.2444 168.908 47.7894C168.908 47.3087 168.676 47.0597 168.219 47.0597C167.978 47.0597 167.728 47.1112 167.469 47.2228C167.21 47.3344 167.003 47.4117 166.84 47.4632C166.055 47.8409 165.193 48.4247 164.245 49.2145C163.297 50.0043 162.444 50.8971 161.668 51.8758C160.901 52.8545 160.366 53.8503 160.065 54.8462C159.987 55.0608 159.927 55.2668 159.901 55.4729C159.875 55.6703 159.858 55.8678 159.858 56.0566C159.858 56.7005 160.065 57.1641 160.487 57.4302C160.909 57.6963 161.409 57.8337 162.004 57.8337C162.892 57.8337 163.814 57.6362 164.762 57.2499C165.711 56.8636 166.624 56.3571 167.521 55.739C168.417 55.1209 169.227 54.4513 169.969 53.7387C170.71 53.0262 171.339 52.3308 171.856 51.6612C171.934 51.5582 172.029 51.4895 172.141 51.4809C172.253 51.4723 172.313 51.4809 172.348 51.541C172.451 51.5668 172.512 51.644 172.512 51.7642C172.512 51.8844 172.486 51.996 172.434 52.1076C171.675 53.155 170.77 54.1766 169.701 55.1724C168.633 56.1682 167.46 56.9924 166.176 57.6534C164.892 58.3144 163.564 58.6407 162.185 58.6407V58.6578Z" fill="#5C3A27"/>
<path d="M182.114 58.4604C181.631 58.4604 181.192 58.3574 180.821 58.1342C180.442 57.9196 180.157 57.5161 179.968 56.9237C179.942 56.7864 179.907 56.6318 179.864 56.4601C179.821 56.2885 179.804 56.0996 179.804 55.9193C179.804 55.2754 179.89 54.5457 180.071 53.7388C180.244 52.9318 180.442 52.2622 180.657 51.7213C180.545 51.7986 180.356 52.0733 180.088 52.5283C179.821 52.9833 179.476 53.5155 179.08 54.1251C178.675 54.7346 178.218 55.3355 177.718 55.9451C177.218 56.5546 176.675 57.0525 176.098 57.4388C175.52 57.8251 174.899 58.0226 174.253 58.0226C173.822 58.0226 173.305 57.9024 172.693 57.662C172.081 57.4217 171.65 57.0868 171.374 56.649C171.107 56.2198 170.969 55.6789 170.969 55.0351C170.969 54.2538 171.141 53.4039 171.495 52.4768C171.848 51.5496 172.288 50.6826 172.831 49.8756C173.02 49.6094 173.236 49.2832 173.477 48.9055C173.718 48.5278 173.96 48.2015 174.21 47.9182C174.46 47.6349 174.632 47.4804 174.736 47.4546C175.063 47.3516 175.434 47.2915 175.873 47.2915C176.33 47.2915 176.666 47.343 176.891 47.4546C177.08 47.5319 177.175 47.6349 177.175 47.7379C177.175 47.8753 177.063 48.047 176.847 48.2616C176.546 48.5278 176.141 48.9312 175.632 49.4721C175.115 50.0129 174.615 50.6568 174.115 51.4123C173.615 52.1677 173.201 53.0005 172.882 53.9105C172.615 54.6402 172.477 55.2669 172.477 55.8077C172.477 56.752 172.856 57.2156 173.615 57.2156C174.261 57.2156 174.951 56.9495 175.684 56.4086C176.416 55.8678 177.123 55.2153 177.813 54.4341C178.502 53.6529 179.123 52.8803 179.675 52.1162C180.226 51.3522 180.649 50.7341 180.95 50.2791C181.218 49.9013 181.528 49.4206 181.864 48.8282C182.2 48.2359 182.536 47.6607 182.855 47.0941C183.174 46.5275 183.433 46.1154 183.623 45.8407C183.812 45.8407 184.105 45.875 184.493 45.9437C184.881 46.0124 185.226 46.124 185.51 46.2871C185.795 46.4502 185.864 46.6477 185.734 46.8966C185.571 47.1628 185.321 47.5834 184.984 48.15C184.648 48.7166 184.312 49.2832 183.976 49.867C183.64 50.4422 183.373 50.9058 183.183 51.2577C182.536 52.494 182.114 53.8246 181.924 55.2497C181.899 55.3527 181.881 55.4557 181.881 55.5502V55.8506C181.881 56.9237 182.243 57.4646 182.976 57.4646C183.381 57.4646 183.924 57.2242 184.597 56.7349C185.269 56.2541 185.967 55.6703 186.683 55.0007C187.398 54.3311 188.044 53.6787 188.631 53.0434C189.208 52.4081 189.605 51.9359 189.829 51.6097C189.88 51.5324 189.967 51.4895 190.07 51.4895C190.174 51.4895 190.268 51.5324 190.337 51.6097C190.406 51.687 190.398 51.7986 190.32 51.9359C190.079 52.3909 189.665 52.9661 189.087 53.6529C188.51 54.3397 187.863 55.0265 187.165 55.7133C186.458 56.4001 185.777 56.9838 185.097 57.4646C184.743 57.7307 184.304 57.9711 183.76 58.1685C183.217 58.3746 182.683 58.469 182.14 58.469L182.114 58.4604Z" fill="#5C3A27"/>
<path d="M194.509 58.5377C194.052 58.5377 193.647 58.4347 193.294 58.2372C192.94 58.0312 192.699 57.6534 192.561 57.0868C192.484 56.795 192.44 56.4945 192.44 56.2026C192.44 55.3956 192.647 54.6058 193.07 53.8418C193.492 53.0777 193.983 52.3652 194.544 51.7041C195.113 51.0431 195.595 50.4851 196 50.0301C196.216 49.8155 196.466 49.5322 196.75 49.1802C197.035 48.8282 197.173 48.4848 197.173 48.1328C197.173 47.9182 197.061 47.7122 196.845 47.5062C196.63 47.3001 196.233 47.1628 195.673 47.0855C195.345 47.034 195.044 46.9825 194.759 46.9481C194.475 46.9138 194.182 46.888 193.889 46.888C193.13 47.9096 192.397 48.9398 191.682 49.9786C190.967 51.0174 190.199 52.0304 189.389 53.0262C189.199 53.2151 189.036 53.3095 188.906 53.3095C188.743 53.3095 188.665 53.2322 188.665 53.0691C188.665 52.906 188.743 52.7429 188.906 52.5884C190.363 50.8113 191.622 48.9141 192.673 46.8966C192.535 46.8966 192.337 46.8966 192.061 46.8795C191.785 46.8623 191.579 46.8451 191.415 46.8194C191.225 46.7679 191.079 46.682 190.967 46.579C190.854 46.476 190.803 46.3644 190.803 46.2528C190.803 46.0897 190.872 45.9952 191.01 45.9695C191.363 45.8665 191.742 45.7033 192.147 45.4887C192.553 45.2741 192.932 44.9908 193.285 44.6388C193.664 44.2611 194.018 43.8662 194.337 43.4455C194.664 43.0249 194.914 42.7158 195.104 42.5012C195.294 42.3638 195.492 42.3037 195.716 42.3037C195.854 42.3037 195.983 42.3467 196.104 42.4239C196.225 42.5012 196.285 42.63 196.285 42.7845C196.285 42.9734 196.207 43.2137 196.044 43.5142C195.802 43.8919 195.535 44.304 195.251 44.7676C194.966 45.2312 194.707 45.6432 194.458 46.021C194.94 46.0467 195.432 46.0725 195.914 46.0982C196.397 46.124 196.897 46.1412 197.414 46.1412C197.681 46.1412 197.949 46.1412 198.207 46.124C198.466 46.1068 198.724 46.1068 199 46.1068C199.81 46.1068 200.216 46.3129 200.216 46.7164C200.216 46.9825 200.069 47.3173 199.793 47.7036C199.509 48.0985 199.164 48.5192 198.759 48.9742C197.836 50.0215 197.061 51.129 196.406 52.2793C195.759 53.4383 195.328 54.3225 195.113 54.9406C194.897 55.5845 194.785 56.0738 194.785 56.3915C194.785 57.0353 195.044 57.3616 195.552 57.3616C196.009 57.3616 196.569 57.1298 197.233 56.6748C197.897 56.2198 198.578 55.6618 199.276 55.0007C199.974 54.3397 200.612 53.6958 201.181 53.0606C201.75 52.4253 202.155 51.9531 202.396 51.6269C202.448 51.5496 202.534 51.5067 202.638 51.5067C202.741 51.5067 202.836 51.5496 202.922 51.6441C203 51.7385 203 51.8501 202.922 51.9874C202.62 52.4424 202.189 53.0176 201.629 53.7044C201.06 54.3912 200.431 55.0694 199.724 55.739C199.026 56.4086 198.336 56.9924 197.655 57.4732C197.302 57.7393 196.828 57.9882 196.216 58.22C195.604 58.4518 195.035 58.5634 194.492 58.5634L194.509 58.5377Z" fill="#5C3A27"/>
<path d="M103.115 74.2307C102.149 74.2307 100.925 74.1191 99.6754 73.6984C96.9774 72.7884 95.2362 70.8225 95.1673 70.7453L94.6846 70.1958L95.4086 70.0499C95.5121 70.0241 98.098 69.5176 100.796 70.419C103.494 71.329 105.235 73.295 105.304 73.3722L105.787 73.9216L105.063 74.0676C105.002 74.0762 104.235 74.2307 103.123 74.2307H103.115ZM96.4171 70.771C97.1153 71.3891 98.3566 72.3506 99.9426 72.8829C101.537 73.4151 103.106 73.4066 104.037 73.3293C103.339 72.7112 102.098 71.7497 100.512 71.2174C98.9255 70.6852 97.3481 70.6937 96.4171 70.771Z" fill="#6B7A63"/>
<path d="M112.053 74.7973L111.329 74.6514C111.226 74.6342 108.838 74.1448 106.856 72.4021C104.873 70.6594 104.097 68.3501 104.063 68.2556L103.83 67.5603L104.554 67.7062C104.658 67.7234 107.045 68.2127 109.028 69.9554C111.01 71.6982 111.786 74.0075 111.821 74.1019L112.053 74.7973ZM105.218 68.7793C105.597 69.5605 106.304 70.771 107.425 71.7583C108.554 72.7541 109.847 73.3035 110.674 73.5697C110.295 72.7884 109.588 71.578 108.468 70.5907C107.347 69.6035 106.045 69.054 105.226 68.7793H105.218Z" fill="#6B7A63"/>
<path d="M118.664 75.7417L117.94 75.5957C117.863 75.5785 116.01 75.2008 114.467 73.853C112.932 72.5052 112.329 70.7109 112.303 70.6423L112.07 69.9469L112.794 70.0928C112.872 70.11 114.734 70.4791 116.268 71.8356C117.802 73.1834 118.406 74.9776 118.432 75.0549L118.664 75.7502V75.7417ZM113.484 71.1917C113.786 71.7755 114.294 72.5567 115.036 73.2177C115.785 73.8702 116.63 74.2736 117.242 74.5054C116.94 73.9303 116.432 73.1404 115.691 72.4794C114.941 71.827 114.096 71.4235 113.484 71.1917Z" fill="#6B7A63"/>
<path d="M103.83 82L104.063 81.3046C104.097 81.2102 104.873 78.9009 106.856 77.1581C108.838 75.4154 111.234 74.9347 111.329 74.9089L112.053 74.763L111.821 75.4583C111.786 75.5528 111.01 77.8621 109.028 79.6048C107.045 81.3475 104.649 81.8283 104.554 81.854L103.83 82ZM110.666 75.982C109.847 76.2567 108.545 76.8062 107.425 77.7934C106.304 78.7807 105.589 79.9997 105.218 80.7724C106.037 80.4976 107.338 79.9482 108.459 78.961C109.579 77.9737 110.295 76.7547 110.666 75.982Z" fill="#6B7A63"/>
<path d="M112.079 80.9698L112.312 80.2744C112.338 80.1972 112.941 78.4115 114.475 77.0637C116.01 75.7159 117.872 75.3381 117.949 75.321L118.673 75.175L118.44 75.8704C118.415 75.9477 117.811 77.7333 116.277 79.0897C114.743 80.4375 112.881 80.8153 112.803 80.8324L112.079 80.9784V80.9698ZM117.26 76.4198C116.648 76.643 115.794 77.0465 115.053 77.7076C114.303 78.36 113.803 79.1498 113.501 79.7336C114.113 79.5018 114.967 79.1069 115.708 78.4459C116.458 77.7934 116.958 77.0036 117.26 76.4198Z" fill="#6B7A63"/>
<path d="M121.32 76.1966C115.381 76.1966 104.899 73.9474 104.399 73.8443L104.537 73.2005C104.675 73.2348 118.717 76.2395 123.501 75.3896L123.621 76.0421C122.984 76.1537 122.208 76.2052 121.329 76.2052L121.32 76.1966Z" fill="#6B7A63"/>
<path d="M143.886 74.2307C142.766 74.2307 141.998 74.0762 141.947 74.0676L141.223 73.9216L141.705 73.3722C141.774 73.2863 143.516 71.3204 146.213 70.419C148.911 69.509 151.489 70.0241 151.601 70.0499L152.325 70.1958L151.842 70.7452C151.773 70.8311 150.032 72.797 147.334 73.6984C146.084 74.1191 144.86 74.2307 143.895 74.2307H143.886ZM142.964 73.3293C143.895 73.4065 145.472 73.4151 147.058 72.8829C148.644 72.3506 149.894 71.3977 150.584 70.771C149.653 70.6937 148.075 70.6851 146.489 71.2174C144.895 71.7497 143.653 72.7112 142.964 73.3293Z" fill="#6B7A63"/>
<path d="M134.947 74.7973L135.18 74.1019C135.214 74.0075 135.99 71.6982 137.973 69.9554C139.955 68.2127 142.352 67.732 142.446 67.7062L143.171 67.5603L142.938 68.2556C142.903 68.3501 142.128 70.6594 140.145 72.4021C138.162 74.1448 135.766 74.6256 135.671 74.6514L134.947 74.7973ZM141.791 68.7793C140.972 69.054 139.671 69.6035 138.542 70.5907C137.421 71.578 136.706 72.797 136.335 73.5697C137.163 73.295 138.456 72.7455 139.576 71.7583C140.705 70.7624 141.412 69.552 141.791 68.7793Z" fill="#6B7A63"/>
<path d="M128.336 75.7416L128.569 75.0463C128.595 74.969 129.198 73.1834 130.732 71.827C132.267 70.4791 134.128 70.1014 134.206 70.0842L134.93 69.9383L134.697 70.6337C134.671 70.7109 134.068 72.4966 132.534 73.8444C130.999 75.1922 129.138 75.57 129.06 75.5871L128.336 75.7331V75.7416ZM133.516 71.1917C132.904 71.4235 132.051 71.8184 131.31 72.4794C130.56 73.1319 130.06 73.9217 129.758 74.5054C130.37 74.2822 131.224 73.8787 131.965 73.2177C132.715 72.5653 133.215 71.7754 133.516 71.1917Z" fill="#6B7A63"/>
<path d="M143.171 82L142.446 81.854C142.343 81.8369 139.955 81.3475 137.973 79.6048C135.99 77.8621 135.214 75.5528 135.18 75.4583L134.947 74.763L135.671 74.9089C135.775 74.9261 138.162 75.4154 140.145 77.1581C142.128 78.9009 142.903 81.2102 142.938 81.3046L143.171 82ZM136.335 75.982C136.714 76.7632 137.421 77.9737 138.542 78.961C139.662 79.9482 140.964 80.4976 141.783 80.7724C141.403 79.9911 140.697 78.7807 139.576 77.7934C138.456 76.8062 137.154 76.2567 136.335 75.982Z" fill="#6B7A63"/>
<path d="M134.921 80.9698L134.197 80.8238C134.12 80.8067 132.258 80.4375 130.723 79.0811C129.189 77.7333 128.586 75.9391 128.56 75.8618L128.327 75.1664L129.051 75.3124C129.129 75.3295 130.982 75.7073 132.525 77.0551C134.059 78.4029 134.663 80.1971 134.689 80.2658L134.921 80.9612V80.9698ZM129.741 76.4198C130.042 76.995 130.551 77.7848 131.292 78.4458C132.042 79.0983 132.887 79.5018 133.499 79.7336C133.197 79.1498 132.689 78.3686 131.947 77.7075C131.198 77.0551 130.353 76.6516 129.741 76.4198Z" fill="#6B7A63"/>
<path d="M125.681 76.1966C131.62 76.1966 142.102 73.9474 142.602 73.8443L142.464 73.2005C142.326 73.2348 128.285 76.2395 123.501 75.3896L123.38 76.0421C124.018 76.1537 124.794 76.2052 125.673 76.2052L125.681 76.1966Z" fill="#6B7A63"/>
<path d="M122.448 40.2175C122.353 40.2175 122.267 40.2089 122.172 40.2175C120.189 40.5265 118.819 39.4277 117.552 38.1743C116.259 36.9037 115.793 35.3069 115.862 33.5213C115.879 32.9719 116.078 32.7658 116.621 32.7658C120.586 32.7658 124.551 32.7658 128.507 32.7658C129.024 32.7658 129.533 32.9118 130.05 32.9118C130.74 32.9118 131.36 33.0577 131.671 33.7102C132.007 34.4141 131.947 35.1782 131.421 35.7619C131.05 36.174 130.55 36.6548 130.042 36.7406C128.628 36.9724 127.697 37.8051 126.749 38.7752C125.568 39.9857 124.646 40.2089 122.439 40.2175H122.448ZM129.783 33.6586C129.68 33.7359 129.257 33.8904 129.154 34.1566C128.938 34.706 128.878 35.3241 128.8 35.925C128.783 36.0366 128.93 36.2684 129.033 36.2856C129.766 36.4144 130.826 35.719 131.041 34.9979C131.274 34.2338 130.878 33.693 129.783 33.6501V33.6586Z" fill="#5C3A27"/>
<path d="M120.12 19.8113C120.474 19.8113 120.827 19.7942 121.172 19.8113C121.741 19.8543 122.094 19.6396 122.241 19.073C122.318 18.7554 122.473 18.4635 122.654 17.9913C122.835 18.4206 122.999 18.6953 123.068 18.9958C123.232 19.6482 123.637 19.8714 124.275 19.8113C124.568 19.7856 124.878 19.8113 125.171 19.8113C125.206 19.8714 125.232 19.9315 125.266 20.0002C124.982 20.232 124.732 20.5153 124.422 20.6956C123.939 20.9703 123.818 21.3137 123.982 21.8202C124.094 22.155 124.146 22.5156 124.249 22.962C124.059 22.8761 123.947 22.8504 123.861 22.7903C123.057 22.258 122.232 22.2637 121.387 22.8074C121.318 22.8504 121.232 22.8675 121.103 22.9105C121.215 22.2838 121.525 21.6313 121.353 21.1506C121.198 20.6956 120.525 20.4294 120.077 20.0775C120.094 19.9916 120.112 19.9058 120.129 19.8199L120.12 19.8113Z" fill="#5C3A27"/>
<path d="M122.483 42.2264C120.448 42.1491 118.44 42.0375 116.475 41.5224C116.121 41.428 115.794 41.2648 115.466 41.1103C115.388 41.076 115.32 40.8957 115.345 40.8184C115.371 40.7412 115.526 40.6553 115.621 40.6639C115.828 40.6811 116.035 40.7583 116.25 40.7927C117.793 40.9901 119.328 41.2734 120.871 41.3421C123.646 41.4709 126.422 41.428 129.146 40.7412C129.327 40.6982 129.551 40.8356 129.758 40.8871C129.62 41.0331 129.516 41.2563 129.344 41.3078C128.853 41.4709 128.353 41.634 127.844 41.6941C126.06 41.9001 124.275 42.0547 122.483 42.2264Z" fill="#5C3A27"/>
<path d="M122.853 25.9409C122.698 26.4646 122.388 26.9883 122.448 27.4604C122.508 27.924 122.957 28.3361 123.198 28.7825C123.474 29.2976 123.413 29.7268 122.913 30.1303C122.396 30.551 121.75 30.903 121.75 31.8473C121.371 31.0747 121.448 30.6712 121.983 30.1132C122.494 29.5752 122.563 28.98 122.189 28.3275C121.664 27.4003 121.879 26.5762 122.845 25.9409H122.853Z" fill="#5C3A27"/>
</g>
<defs>
<clipPath id="clip0_21_50">
<rect width="159" height="64" fill="white" transform="translate(44 18)"/>
</clipPath>
</defs>
</svg>
