<svg width="173" height="70" viewBox="0 0 173 70" fill="none" xmlns="http://www.w3.org/2000/svg">
<g clip-path="url(#clip0_115_498)">
<path d="M32.1409 49.4465C31.0267 49.4465 29.8872 49.2944 28.7055 48.9901C27.5238 48.6859 26.4265 48.331 25.3967 47.9169C24.3669 47.5028 23.4637 47.1732 22.6956 46.9028C21.2944 46.3958 19.9861 45.9141 18.7706 45.4324C17.5551 44.9591 16.6942 44.6634 16.1877 44.562C13.6217 43.9028 11.8069 43.5732 10.7518 43.5732C10.5661 43.7084 10.3973 43.8183 10.2369 43.9113C10.0765 44.0042 9.90771 44.0634 9.72201 44.0887C9.64605 44.1141 9.51943 44.131 9.3675 44.131C8.89481 44.131 8.65002 43.9704 8.65002 43.6577C8.65002 43.4718 8.79352 43.2859 9.08895 43.1C9.29997 42.9901 9.54475 42.931 9.8233 42.9225C10.1019 42.9141 10.3888 42.8887 10.6758 42.8634C11.2836 42.331 11.8575 41.6549 12.3978 40.8352C12.938 40.0155 13.3347 39.3901 13.571 38.9676C13.7821 38.5958 13.9846 38.2324 14.1872 37.8775C14.3898 37.5225 14.5924 37.1676 14.8034 36.8211C14.3814 36.9225 13.9424 37.0239 13.4951 37.1169C13.0477 37.2098 12.6088 37.2521 12.1867 37.2521C11.4186 37.2521 10.7265 37.0915 10.1019 36.7789C9.47723 36.4577 9.17336 35.8746 9.17336 35.0296C9.17336 34.4718 9.41814 33.9563 9.90771 33.4831C10.3973 33.0098 10.9037 32.7648 11.4355 32.7648C11.7563 32.7648 11.9082 32.9 11.9082 33.162C11.9082 33.3225 11.79 33.3986 11.5537 33.3986C11.2582 33.3986 10.9966 33.576 10.7602 33.9141C10.5239 34.2606 10.4057 34.6155 10.4057 34.9873C10.4057 35.2493 10.4901 35.5113 10.6674 35.7648C10.8362 36.0183 11.1401 36.1704 11.5621 36.2211C11.9588 36.2972 12.3809 36.3394 12.8282 36.3394C13.5964 36.3394 14.3729 36.238 15.1664 36.0183C15.5378 35.2746 15.8838 34.5394 16.2215 33.8127C16.5507 33.0859 16.8799 32.3591 17.1922 31.6493C17.8506 30.1958 18.5258 28.776 19.218 27.3986C19.9017 26.0211 20.577 24.7873 21.2438 23.7056C21.9022 22.6239 22.5015 21.8127 23.0332 21.2803C24.0377 20.3253 25.0506 19.6493 26.0719 19.2521C27.0933 18.8549 28.0049 18.6521 28.8321 18.6521C28.9925 18.6521 29.1529 18.6521 29.3048 18.669C29.4652 18.6859 29.6087 18.7028 29.7437 18.7282C30.7229 18.8887 31.4066 19.2267 31.8033 19.7422C32.2 20.2577 32.4026 20.8746 32.4026 21.5929C32.4026 21.9648 32.3604 22.3451 32.2844 22.7422C31.9383 24.407 31.2462 25.9704 30.1995 27.4324C29.1529 28.8859 27.8952 30.2042 26.4096 31.3873C24.924 32.562 23.3456 33.5676 21.6658 34.3873C19.9861 35.207 18.357 35.807 16.7701 36.1789C16.4241 36.762 16.0611 37.3366 15.6813 37.9028C15.3014 38.469 14.8794 39.0352 14.432 39.5929C14.1703 39.9901 13.7821 40.4972 13.2841 41.1225C12.7776 41.7479 12.2627 42.3225 11.7394 42.8465C12.1108 42.8718 12.5159 42.9056 12.9464 42.9479C13.3853 42.9901 13.8496 43.0493 14.356 43.1253C16.5507 43.4718 18.7537 43.9789 20.9652 44.6549C23.1767 45.331 25.3629 45.9479 27.5322 46.5056C28.14 46.6662 29.0094 46.8605 30.132 47.1056C31.2546 47.3422 32.3097 47.4605 33.2889 47.4605C34.268 47.4605 34.9686 47.2915 35.4751 46.9451C35.8718 46.7084 36.0744 46.3789 36.0744 45.9563C36.0744 45.6352 35.9309 45.3732 35.6354 45.162C35.4751 45.0267 35.3991 44.9253 35.3991 44.8408C35.3991 44.5789 35.5595 44.5366 35.8718 44.7225C36.2179 44.9591 36.4626 45.238 36.6061 45.5591C36.7496 45.8803 36.8256 46.2098 36.8256 46.5479C36.8256 46.9451 36.7496 47.3084 36.6061 47.638C36.4626 47.9676 36.2854 48.2042 36.0744 48.331C34.9855 49.0746 33.694 49.4465 32.1831 49.4465H32.1409ZM17.3357 35.2662C20.2731 33.9986 22.8475 32.4436 25.0759 30.6183C27.2959 28.7929 29.06 26.3845 30.3515 23.3929C30.7735 22.4634 30.9845 21.6605 30.9845 20.9676C30.9845 20.4098 30.8157 19.9789 30.4696 19.6577C30.2839 19.4211 29.9801 19.3028 29.558 19.3028C28.6886 19.3028 27.7854 19.607 26.8569 20.2155C26.0635 20.7986 25.3123 21.5676 24.6117 22.5225C23.9111 23.4775 23.2527 24.4831 22.645 25.5394C22.0372 26.5958 21.497 27.6014 21.0412 28.5394C20.577 29.4775 20.1887 30.2296 19.8679 30.7873C19.6569 31.2098 19.3361 31.8352 18.8972 32.6549C18.4583 33.4746 17.935 34.3535 17.3272 35.2746L17.3357 35.2662Z" fill="#5C3A27"/>
<path d="M29.9969 43.5225C28.8068 43.5225 27.777 43.2436 26.8992 42.6859C26.0213 42.1281 25.5908 41.283 25.5908 40.1422C25.5908 39.5337 25.7765 38.7901 26.1479 37.9197C26.4096 37.3112 26.8992 36.6098 27.6166 35.8154C28.3341 35.0211 29.1613 34.2436 30.1151 33.4915C31.0689 32.7394 32.0312 32.114 33.0103 31.6239C33.9895 31.1337 34.8758 30.8887 35.6692 30.8887C35.9562 30.8887 36.2263 30.9309 36.4626 31.007C36.91 31.1675 37.2223 31.4211 37.3911 31.7591C37.5599 32.0971 37.6528 32.4605 37.6528 32.8323C37.6528 33.1788 37.6022 33.5084 37.4924 33.8211C37.3827 34.1422 37.2561 34.4211 37.0957 34.6577C36.623 35.376 35.9393 36.0098 35.053 36.5675C34.1667 37.1253 33.2636 37.5563 32.3519 37.8774C31.4403 38.1985 30.6891 38.3844 30.1067 38.4352H30.0307C29.6846 38.4352 29.5158 38.3337 29.5158 38.114C29.5158 37.9788 29.6171 37.9112 29.8366 37.9112C30.4696 37.8605 31.2715 37.5647 32.2338 37.0154C33.196 36.4746 34.0486 35.9084 34.7914 35.3253C35.1121 35.0633 35.4835 34.6915 35.9224 34.2098C36.3614 33.7366 36.5808 33.2718 36.5808 32.8239C36.5808 32.3506 36.3529 32.1056 35.9055 32.1056C35.6692 32.1056 35.4244 32.1563 35.1712 32.2661C34.918 32.376 34.7154 32.4521 34.555 32.5028C33.7869 32.8746 32.9428 33.4492 32.0143 34.2267C31.0858 35.0042 30.2502 35.883 29.4905 36.8464C28.7393 37.8098 28.2159 38.7901 27.9205 39.7704C27.8445 39.9816 27.7854 40.1844 27.7601 40.3873C27.7348 40.5816 27.7179 40.776 27.7179 40.9619C27.7179 41.5957 27.9205 42.0521 28.3341 42.314C28.7477 42.576 29.2373 42.7112 29.8197 42.7112C30.6891 42.7112 31.5923 42.5168 32.5208 42.1366C33.4493 41.7563 34.344 41.2577 35.2218 40.6492C36.0997 40.0408 36.8931 39.3816 37.619 38.6802C38.3449 37.9788 38.9611 37.2943 39.4676 36.6351C39.5435 36.5337 39.6364 36.4661 39.7461 36.4577C39.8559 36.4492 39.915 36.4577 39.9487 36.5168C40.05 36.5422 40.1091 36.6183 40.1091 36.7366C40.1091 36.8549 40.0838 36.9647 40.0331 37.0746C39.2903 38.1056 38.404 39.1112 37.3574 40.0915C36.3107 41.0718 35.1627 41.883 33.9051 42.5337C32.6474 43.1844 31.3475 43.5056 29.9969 43.5056V43.5225Z" fill="#5C3A27"/>
<path d="M60.7048 45.3565C59.1939 45.3565 57.9362 45.0691 56.9317 44.486C55.9272 43.9029 55.328 43.0072 55.1423 41.7818V41.5452C54.9312 41.841 54.6864 42.179 54.4079 42.5762C54.1293 42.9734 53.8424 43.3114 53.5385 43.5903C53.2346 43.8691 52.9223 44.0043 52.61 44.0043C52.5594 44.0043 52.4074 43.979 52.1542 43.9283C51.901 43.8776 51.6646 43.81 51.4367 43.7339C51.2088 43.6579 51.0822 43.5649 51.0569 43.455C50.9809 42.948 51.0991 42.2297 51.4367 41.2917C51.7659 40.3536 52.2048 39.3142 52.745 38.1734C53.2853 37.0325 53.8592 35.9001 54.4501 34.7593C55.0494 33.6184 55.5981 32.5959 56.0961 31.6832C56.5941 30.7705 56.957 30.0776 57.1681 29.5959C57.3284 29.3086 57.4297 29.0635 57.4888 28.8607C57.5395 28.6663 57.5648 28.5142 57.5648 28.4043C57.5648 28.2438 57.5395 28.117 57.4888 28.0072C57.5395 27.686 57.7336 27.2635 58.0628 26.7396C58.392 26.2072 58.8056 25.6832 59.312 25.1508C59.81 24.6184 60.3587 24.179 60.9411 23.8241C61.5235 23.4691 62.0638 23.2917 62.5702 23.2917C62.7306 23.2917 62.9754 23.3339 63.3046 23.4269C63.6337 23.5198 63.9545 23.6635 64.2584 23.841C64.5622 24.0269 64.7564 24.2888 64.8323 24.6353C64.8577 24.7114 64.8746 24.7959 64.8746 24.8719C64.8746 24.948 64.8492 24.9903 64.7986 24.9903C64.7479 24.9903 64.672 24.9734 64.5791 24.9311C64.4863 24.8888 64.4103 24.8719 64.3597 24.8719C63.7519 24.8719 63.0935 25.1677 62.3761 25.7424C61.6586 26.3255 60.9242 27.1029 60.173 28.0832C59.4218 29.0635 58.6874 30.1367 57.9699 31.3029C57.2525 32.4691 56.5772 33.6438 55.9272 34.8184C55.2773 35.9931 54.7202 37.0832 54.2391 38.0719C53.7664 39.0607 53.395 39.8635 53.1249 40.4719C52.9139 41.055 52.8041 41.4607 52.8041 41.7057C52.8041 42.0776 52.9476 42.2635 53.2431 42.2635C53.6145 42.2635 54.0112 42.01 54.4332 41.5114C54.7202 41.1649 54.9988 40.8438 55.2435 40.5396C55.4968 40.2353 55.7162 40.1086 55.9019 40.1593C56.2733 40.1593 56.5265 40.2607 56.6532 40.455C56.7882 40.6494 56.8642 40.886 56.8895 41.148C56.9148 41.41 56.9402 41.655 56.9655 41.8663C57.1512 42.686 57.5817 43.3705 58.2569 43.9114C58.9322 44.4522 59.8776 44.7226 61.0931 44.7226C62.3929 44.7226 63.5493 44.5114 64.5876 44.0888C65.6173 43.6663 66.4361 43.0748 67.0439 42.3226C67.6516 41.5705 67.9555 40.717 67.9555 39.7621C67.9555 39.1029 67.7951 38.41 67.4828 37.6748C67.1705 36.9396 66.664 36.2128 65.9719 35.4691C65.3895 34.7846 64.7395 34.1339 64.0305 33.5255C63.313 32.917 62.6968 32.3508 62.1819 31.8353C61.667 31.3198 61.4054 30.8804 61.4054 30.5086C61.4054 30.1874 61.6164 29.9086 62.0384 29.655C62.4605 29.4015 62.8065 29.2748 63.0682 29.2748C63.676 29.2748 64.4525 29.1565 65.3894 28.9198C66.3264 28.6832 67.2971 28.3536 68.31 27.948C69.3144 27.5339 70.2345 27.0776 71.0701 26.579C71.9058 26.0804 72.522 25.5734 72.9187 25.0663C73.155 24.779 73.3492 24.4663 73.4927 24.1367C73.6362 23.8072 73.7121 23.4776 73.7121 23.1649C73.7121 22.6579 73.4927 22.2015 73.0537 21.7959C72.6148 21.3818 71.8805 21.086 70.8507 20.9001C70.5637 20.8241 70.2176 20.7649 69.8209 20.7396C69.4242 20.7142 69.0021 20.6973 68.5548 20.6973C67.2042 20.6973 65.6427 20.8241 63.8701 21.0776C62.0975 21.3311 60.2996 21.6945 58.4764 22.1677C56.6532 22.641 54.9481 23.241 53.3612 23.9593C51.7744 24.6776 50.4745 25.5057 49.4531 26.4438C48.4318 27.3818 47.8578 28.4212 47.7312 29.5621C47.6805 30.2212 47.8325 30.7283 48.2039 31.0748C48.5753 31.4212 49.0142 31.6748 49.5122 31.8522C50.0102 32.0212 50.4069 32.1903 50.7024 32.3508C50.9387 32.4607 51.0569 32.5621 51.0569 32.6719C51.0569 32.8072 50.9134 32.8748 50.618 32.8748C50.2972 32.8748 49.9005 32.7987 49.4278 32.6381C48.9551 32.4776 48.4824 32.2325 48.0182 31.9029C47.5539 31.5734 47.1741 31.1677 46.8871 30.6945C46.6001 30.2212 46.4904 29.6635 46.5663 29.0297C46.5663 28.979 46.5495 28.8776 46.5241 28.7339C46.4988 28.5903 46.4819 28.4719 46.4819 28.3959C46.5579 27.5508 46.9209 26.7396 47.5708 25.9705C48.2208 25.2015 48.9889 24.5001 49.8752 23.8663C50.7614 23.2325 51.5886 22.7001 52.3568 22.2776C53.2009 21.8297 54.2222 21.4072 55.4124 21.0269C56.6025 20.6466 57.8771 20.3086 59.2445 20.0128C60.6035 19.7255 61.9878 19.4888 63.389 19.3198C64.7901 19.1508 66.0985 19.0579 67.314 19.0579C68.6054 19.0579 69.7449 19.1677 70.7241 19.379C72.0493 19.6663 73.0622 20.1903 73.7797 20.9255C74.4971 21.6691 74.8516 22.4888 74.8516 23.3846C74.8263 24.3649 74.5309 25.2184 73.9569 25.9452C73.3914 26.6719 72.657 27.2888 71.7539 27.7959C70.8507 28.3029 69.88 28.717 68.8418 29.0466C67.7951 29.3762 66.7737 29.6212 65.7693 29.7818C64.7648 29.9424 63.887 30.0353 63.1526 30.0607C64.2668 30.7198 65.3641 31.455 66.4614 32.2663C67.5587 33.0776 68.4704 33.9565 69.1963 34.9029C69.9222 35.8579 70.2851 36.9057 70.2851 38.0381C70.2851 38.6719 70.1416 39.3311 69.8715 40.0072C69.6014 40.6832 69.1541 41.4015 68.5463 42.1705C67.7529 43.1508 66.6471 43.9283 65.2375 44.5114C63.8194 45.0945 62.3085 45.3818 60.6963 45.3818L60.7048 45.3565Z" fill="#5C3A27"/>
<path d="M76.371 43.3705C75.6282 43.3705 74.9782 43.2014 74.4296 42.855C73.5011 42.2972 73.0453 41.2916 73.0453 39.8381C73.0453 39.2296 73.1466 38.5282 73.366 37.7338C73.5517 37.0747 73.8809 36.3479 74.3536 35.5705C74.8263 34.793 75.3918 34.0409 76.0418 33.3226C76.6917 32.6043 77.4008 32.0212 78.1604 31.5733C78.9286 31.1254 79.6967 30.8972 80.4648 30.8972C80.7856 30.8972 81.0641 30.9395 81.3004 31.0155C81.6212 31.1169 81.8913 31.3113 82.1108 31.5902C82.3387 31.8691 82.4484 32.224 82.4484 32.6465C82.4484 33.0944 82.3387 33.3479 82.1108 33.3986C81.8829 33.4493 81.7731 33.3986 81.7731 33.2381C81.7731 33.1874 81.7731 33.1367 81.79 33.0775C81.7985 33.0268 81.8069 32.9845 81.8069 32.9592C81.8069 32.7479 81.7478 32.5536 81.6296 32.3845C81.5115 32.2155 81.292 32.1226 80.9712 32.1226C80.5492 32.1226 80.0259 32.3507 79.4012 32.7986C78.7766 33.2465 78.1436 33.855 77.4936 34.6071C76.8437 35.3592 76.2781 36.1874 75.7886 37.0916C75.299 37.9958 74.9782 38.8916 74.8179 39.7958C74.7925 39.931 74.7672 40.0493 74.7588 40.1761C74.7419 40.2944 74.7419 40.4212 74.7419 40.5564C74.7419 41.1648 74.8854 41.6719 75.1555 42.086C75.434 42.5 75.873 42.7029 76.4807 42.7029C77.2235 42.7029 77.9325 42.4155 78.6247 41.8493C79.3084 41.2831 79.9246 40.5986 80.4732 39.8043C81.0135 39.0099 81.4186 38.3085 81.6803 37.7C81.8913 37.2268 82.0348 36.8127 82.1192 36.4662C82.2036 36.1198 82.2374 35.8324 82.2374 35.5958C82.2374 35.3845 82.2205 35.1986 82.1783 35.0381C82.1361 34.8775 82.0939 34.7507 82.0432 34.6409C81.9926 34.4803 81.9673 34.362 81.9673 34.286C81.9673 34.0747 82.0517 33.9057 82.2289 33.7705C82.3978 33.6352 82.5835 33.5676 82.7607 33.5676C82.9211 33.5676 83.0899 33.6183 83.2756 33.7282C83.4866 33.7789 83.7736 33.8212 84.145 33.8465C84.5164 33.8719 84.9131 33.8888 85.3352 33.8888C85.7825 33.8888 86.2383 33.8719 86.7026 33.8465C87.1668 33.8212 87.572 33.7705 87.9096 33.686C87.9603 33.6606 88.0447 33.6437 88.146 33.6437C88.3317 33.6437 88.4245 33.6944 88.4245 33.8043C88.4245 33.9141 88.3317 33.9986 88.146 34.0831C87.2175 34.5057 86.3903 34.7338 85.6644 34.7592C84.9384 34.7845 84.3054 34.8014 83.7821 34.8014C83.8327 35.4606 83.6892 36.1705 83.3431 36.9226C82.9971 37.6747 82.6425 38.3423 82.2711 38.9254C81.8238 39.5845 81.3089 40.2606 80.7265 40.9536C80.144 41.6465 79.4941 42.2212 78.7851 42.6775C78.0676 43.1423 77.2657 43.3705 76.3625 43.3705H76.371Z" fill="#5C3A27"/>
<path d="M85.2592 43.4466C85.0735 43.4466 85.0228 43.3536 85.0988 43.1677C85.1747 43.0071 85.3267 42.6437 85.5377 42.0775C85.7487 41.5114 85.9935 40.8268 86.2721 40.0325C86.5506 39.2381 86.8376 38.4184 87.1246 37.5733C87.4116 36.7283 87.6901 35.9339 87.9349 35.1902C88.1881 34.4466 88.3907 33.8635 88.5511 33.4409C88.6017 33.2804 88.6524 33.0522 88.7115 32.748C88.7621 32.4437 88.8803 32.1649 89.0491 31.9113C89.2179 31.6578 89.5218 31.5311 89.9438 31.5311C90.7373 31.5311 91.134 31.717 91.134 32.0888C91.134 32.224 91.0665 32.4437 90.9314 32.7649C90.6107 33.4832 90.273 34.3029 89.9016 35.2325C89.5302 36.1621 89.201 37.0325 88.914 37.8522C88.6186 38.6719 88.3992 39.3057 88.2388 39.7621C88.5004 39.3902 88.9309 38.8663 89.5302 38.1733C90.1295 37.4888 90.7964 36.7452 91.5307 35.9508C92.2651 35.1564 93.0416 34.3874 93.8519 33.6437C94.6623 32.9001 95.4135 32.3001 96.1141 31.8353C96.8147 31.3705 97.414 31.1423 97.9204 31.1423C98.5535 31.1423 98.8743 31.4888 98.8743 32.1733C98.8743 32.4099 98.8067 32.7733 98.6717 33.2466C98.4353 33.9057 98.1315 34.548 97.7601 35.1733C97.3887 35.7987 97.0595 36.4494 96.7725 37.1423C96.266 38.3846 95.979 39.3902 95.9031 40.1592C95.8778 40.2606 95.8609 40.3621 95.8609 40.455V40.7508C95.8609 41.8071 96.2154 42.3395 96.9329 42.3395C97.3296 42.3395 97.8614 42.1029 98.5197 41.6212C99.1781 41.148 99.8618 40.5733 100.562 39.9142C101.263 39.255 101.896 38.6128 102.445 37.9874C103.002 37.3621 103.382 36.8973 103.593 36.5761C103.669 36.5001 103.753 36.4578 103.829 36.4578C103.93 36.4578 104.023 36.5001 104.091 36.5761C104.158 36.6522 104.167 36.7621 104.108 36.8973C103.871 37.3452 103.466 37.9113 102.901 38.5874C102.335 39.2635 101.702 39.9395 101.018 40.6156C100.326 41.2916 99.6593 41.8663 98.9924 42.3395C98.5957 42.6015 98.1061 42.8466 97.5237 43.0578C96.9413 43.2691 96.3589 43.3621 95.7765 43.3367C95.0337 43.2606 94.5103 42.9987 94.1896 42.5592C93.8688 42.1198 93.7169 41.5959 93.7169 40.9874C93.7169 40.2691 93.8604 39.5085 94.1305 38.7057C94.409 37.8944 94.7214 37.1339 95.059 36.424C95.4051 35.7057 95.6836 35.1649 95.8946 34.793C96.1057 34.3705 96.2154 34.0409 96.2154 33.8043C96.2154 33.593 96.1225 33.4832 95.9368 33.4832C95.7511 33.4832 95.4726 33.6015 95.1012 33.8381C94.7298 34.0747 94.2318 34.4888 93.5903 35.0719C93.0079 35.579 92.3832 36.2297 91.7248 37.0409C91.0665 37.8522 90.425 38.6804 89.8003 39.5254C89.1757 40.3705 88.6355 41.0973 88.1713 41.7057C87.707 42.3142 87.3862 42.6691 87.2006 42.779C87.0655 42.855 86.7701 42.9902 86.3058 43.1761C85.8416 43.3621 85.4955 43.455 85.2507 43.455L85.2592 43.4466Z" fill="#5C3A27"/>
<path d="M103.154 43.4466C102.943 43.4466 102.892 43.3536 102.993 43.1677C103.044 43.0071 103.188 42.6099 103.407 41.9761C103.635 41.3423 103.905 40.5733 104.217 39.6691C104.538 38.7733 104.867 37.8522 105.205 36.9057C105.551 35.9677 105.863 35.1226 106.159 34.3874C105.973 34.624 105.686 34.9705 105.306 35.4184C104.926 35.8663 104.521 36.348 104.099 36.8465C103.677 37.3536 103.28 37.7846 102.909 38.1564C102.833 38.2325 102.774 38.2747 102.749 38.2747C102.673 38.2747 102.63 38.1987 102.63 38.0381C102.63 37.717 102.706 37.4296 102.867 37.1677C103.449 36.424 104.015 35.7311 104.555 35.0804C105.095 34.4296 105.593 33.8127 106.041 33.2296C105.779 33.0691 105.644 32.8747 105.644 32.6297C105.644 32.2578 105.83 32.0719 106.201 32.0719C106.361 32.0719 106.48 32.0973 106.555 32.148C106.581 32.1733 106.606 32.1902 106.631 32.1902C106.657 32.1902 106.682 32.2156 106.707 32.2663C106.842 32.0804 106.952 31.9113 107.045 31.7508C107.138 31.5902 107.222 31.4212 107.307 31.2353C107.408 30.9987 107.627 30.5423 107.965 29.8663C108.294 29.1902 108.708 28.3874 109.214 27.4663C109.712 26.5367 110.295 25.5818 110.936 24.5846C111.586 23.5958 112.287 22.6663 113.038 21.8043C113.789 20.9423 114.574 20.2494 115.376 19.717C116.187 19.1846 117.005 18.9226 117.858 18.9226C117.959 18.9226 118.069 18.9226 118.179 18.9395C118.28 18.9564 118.39 18.9733 118.499 18.9987C119.158 19.1339 119.622 19.362 119.884 19.6916C120.145 20.0212 120.28 20.4099 120.28 20.8663C120.28 21.1874 120.221 21.5254 120.103 21.8804C119.985 22.2353 119.816 22.5902 119.605 22.9367C119.073 23.8663 118.373 24.7958 117.503 25.7339C116.634 26.6719 115.655 27.6015 114.583 28.5142C113.511 29.4268 112.439 30.3142 111.367 31.1761C110.295 32.0381 109.299 32.8494 108.37 33.6184C107.737 34.9705 107.248 36.1705 106.902 37.2099C106.555 38.2578 106.294 39.0944 106.108 39.7282C106.395 39.3564 106.834 38.8325 107.416 38.1395C107.999 37.455 108.657 36.7113 109.4 35.917C110.143 35.1226 110.911 34.362 111.704 33.6353C112.498 32.9085 113.249 32.3085 113.967 31.8437C114.684 31.3789 115.292 31.1508 115.79 31.1508C116.423 31.1508 116.744 31.4804 116.744 32.1395C116.744 32.7987 116.516 33.4747 116.068 34.2437C115.621 35.0127 115.25 35.6635 114.954 36.1874C114.583 36.9564 114.287 37.6916 114.059 38.393C113.832 39.0944 113.696 39.6691 113.646 40.117C113.62 40.2184 113.604 40.3198 113.604 40.4127V40.7085C113.604 41.7649 113.975 42.2973 114.718 42.2973C115.115 42.2973 115.646 42.0606 116.305 41.5789C116.963 41.1057 117.638 40.5311 118.33 39.8719C119.023 39.2127 119.647 38.5705 120.213 37.9451C120.778 37.3198 121.167 36.855 121.386 36.5339C121.462 36.4578 121.555 36.4156 121.665 36.4156C121.774 36.4156 121.85 36.4578 121.901 36.5339C121.952 36.6099 121.952 36.7198 121.901 36.855C121.639 37.3029 121.226 37.8691 120.669 38.5451C120.112 39.2212 119.495 39.8973 118.803 40.5733C118.111 41.2494 117.444 41.824 116.777 42.2973C116.431 42.5592 115.992 42.7958 115.452 42.9902C114.912 43.193 114.372 43.286 113.848 43.286C113.426 43.286 113.013 43.1846 112.616 42.9649C112.219 42.7536 111.932 42.3564 111.747 41.7733C111.671 41.5367 111.628 41.2071 111.628 40.7846V40.3705C111.628 40.2268 111.645 40.0747 111.671 39.9142C111.772 39.0691 112.059 38.1733 112.523 37.2353C112.987 36.2973 113.418 35.4522 113.815 34.717C113.916 34.5057 114.009 34.3198 114.076 34.1592C114.144 33.9987 114.178 33.8719 114.178 33.762C114.178 33.5508 114.085 33.4409 113.899 33.4409C113.713 33.4409 113.426 33.5592 113.03 33.7958C112.633 34.0325 112.101 34.4466 111.443 35.0296C110.86 35.5367 110.244 36.1874 109.594 36.9987C108.944 37.8099 108.311 38.6381 107.687 39.4832C107.062 40.3282 106.522 41.055 106.057 41.6635C105.593 42.2719 105.272 42.6268 105.087 42.7367C104.952 42.8127 104.648 42.948 104.175 43.1339C103.702 43.3198 103.356 43.4127 103.145 43.4127L103.154 43.4466ZM109.147 31.8437C110.202 31.1254 111.358 30.2381 112.599 29.1649C113.84 28.0916 115.013 26.9423 116.111 25.7085C117.208 24.4747 118.043 23.3085 118.626 22.193C118.947 21.5846 119.099 21.0775 119.099 20.6804C119.099 20.2325 118.896 20.0043 118.499 20.0043C118.314 20.0043 118.103 20.055 117.866 20.148C117.63 20.2409 117.351 20.4099 117.031 20.6466C115.258 22.024 113.764 23.6635 112.548 25.5564C111.333 27.4494 110.194 29.5451 109.138 31.8522L109.147 31.8437Z" fill="#5C3A27"/>
<path d="M124.383 43.5225C123.192 43.5225 122.163 43.2436 121.285 42.6859C120.407 42.1281 119.976 41.283 119.976 40.1422C119.976 39.5337 120.162 38.7901 120.534 37.9197C120.795 37.3112 121.285 36.6098 122.002 35.8154C122.72 35.0211 123.547 34.2436 124.501 33.4915C125.455 32.7394 126.417 32.114 127.396 31.6239C128.375 31.1337 129.261 30.8887 130.055 30.8887C130.342 30.8887 130.612 30.9309 130.848 31.007C131.296 31.1675 131.608 31.4211 131.777 31.7591C131.946 32.0971 132.038 32.4605 132.038 32.8323C132.038 33.1788 131.988 33.5084 131.878 33.8211C131.768 34.1422 131.642 34.4211 131.481 34.6577C131.009 35.376 130.325 36.0098 129.439 36.5675C128.552 37.1253 127.649 37.5563 126.738 37.8774C125.826 38.1985 125.075 38.3844 124.492 38.4352H124.416C124.07 38.4352 123.901 38.3337 123.901 38.114C123.901 37.9788 124.003 37.9112 124.222 37.9112C124.855 37.8605 125.657 37.5647 126.619 37.0154C127.582 36.4746 128.434 35.9084 129.177 35.3253C129.498 35.0633 129.869 34.6915 130.308 34.2098C130.747 33.7366 130.966 33.2718 130.966 32.8239C130.966 32.3506 130.739 32.1056 130.291 32.1056C130.055 32.1056 129.81 32.1563 129.557 32.2661C129.304 32.376 129.101 32.4521 128.941 32.5028C128.173 32.8746 127.328 33.4492 126.4 34.2267C125.471 35.0042 124.636 35.883 123.876 36.8464C123.125 37.8098 122.602 38.7901 122.306 39.7704C122.23 39.9816 122.171 40.1844 122.146 40.3873C122.12 40.5816 122.104 40.776 122.104 40.9619C122.104 41.5957 122.306 42.0521 122.72 42.314C123.133 42.576 123.623 42.7112 124.205 42.7112C125.075 42.7112 125.978 42.5168 126.906 42.1366C127.835 41.7563 128.73 41.2577 129.607 40.6492C130.485 40.0408 131.279 39.3816 132.005 38.6802C132.731 37.9788 133.347 37.2943 133.853 36.6351C133.929 36.5337 134.022 36.4661 134.132 36.4577C134.241 36.4492 134.301 36.4577 134.334 36.5168C134.436 36.5422 134.495 36.6183 134.495 36.7366C134.495 36.8549 134.469 36.9647 134.419 37.0746C133.676 38.1056 132.79 39.1112 131.743 40.0915C130.696 41.0718 129.548 41.883 128.291 42.5337C127.033 43.1844 125.733 43.5056 124.383 43.5056V43.5225Z" fill="#5C3A27"/>
<path d="M143.898 43.3283C143.425 43.3283 142.995 43.2269 142.632 43.0072C142.26 42.7959 141.982 42.3987 141.796 41.8156C141.771 41.6804 141.737 41.5283 141.695 41.3593C141.653 41.1903 141.636 41.0044 141.636 40.8269C141.636 40.1931 141.72 39.4748 141.897 38.6804C142.066 37.886 142.26 37.2269 142.471 36.6945C142.362 36.7705 142.176 37.041 141.914 37.4889C141.653 37.9367 141.315 38.4607 140.927 39.0607C140.53 39.6607 140.083 40.2522 139.593 40.8522C139.103 41.4522 138.572 41.9424 138.006 42.3227C137.441 42.7029 136.833 42.8973 136.2 42.8973C135.778 42.8973 135.271 42.779 134.672 42.5424C134.073 42.3058 133.651 41.9762 133.38 41.5452C133.119 41.1227 132.984 40.5903 132.984 39.9565C132.984 39.1875 133.153 38.3508 133.499 37.4382C133.845 36.5255 134.275 35.672 134.807 34.8776C134.993 34.6156 135.204 34.2945 135.44 33.9227C135.676 33.5508 135.913 33.2297 136.158 32.9508C136.402 32.672 136.571 32.5198 136.672 32.4945C136.993 32.3931 137.356 32.3339 137.787 32.3339C138.234 32.3339 138.563 32.3846 138.783 32.4945C138.968 32.5706 139.061 32.672 139.061 32.7734C139.061 32.9086 138.951 33.0776 138.74 33.2889C138.445 33.5508 138.048 33.948 137.55 34.4804C137.044 35.0128 136.554 35.6466 136.065 36.3903C135.575 37.1339 135.17 37.9537 134.858 38.8494C134.596 39.5677 134.461 40.1846 134.461 40.717C134.461 41.6466 134.832 42.1029 135.575 42.1029C136.208 42.1029 136.883 41.841 137.601 41.3086C138.318 40.7762 139.011 40.1339 139.686 39.3649C140.361 38.5959 140.969 37.8353 141.509 37.0832C142.049 36.3311 142.463 35.7227 142.758 35.2748C143.02 34.9029 143.324 34.4297 143.653 33.8466C143.982 33.2635 144.311 32.6973 144.624 32.1396C144.936 31.5818 145.189 31.1762 145.375 30.9058C145.561 30.9058 145.848 30.9396 146.227 31.0072C146.607 31.0748 146.945 31.1846 147.223 31.3452C147.502 31.5058 147.57 31.7001 147.443 31.9452C147.283 32.2072 147.038 32.6213 146.709 33.179C146.379 33.7367 146.05 34.2945 145.721 34.8691C145.392 35.4353 145.13 35.8917 144.944 36.2382C144.311 37.4551 143.898 38.7649 143.712 40.1677C143.687 40.2691 143.67 40.3706 143.67 40.4635V40.7593C143.67 41.8156 144.024 42.348 144.742 42.348C145.139 42.348 145.67 42.1114 146.329 41.6297C146.987 41.1565 147.671 40.5818 148.371 39.9227C149.072 39.2635 149.705 38.6213 150.279 37.9959C150.845 37.3706 151.233 36.9058 151.452 36.5846C151.503 36.5086 151.587 36.4663 151.689 36.4663C151.79 36.4663 151.883 36.5086 151.95 36.5846C152.018 36.6607 152.009 36.7705 151.933 36.9058C151.697 37.3536 151.292 37.9198 150.726 38.5959C150.161 39.272 149.528 39.948 148.844 40.6241C148.152 41.3001 147.485 41.8748 146.818 42.348C146.472 42.61 146.042 42.8466 145.51 43.041C144.978 43.2438 144.455 43.3367 143.923 43.3367L143.898 43.3283Z" fill="#5C3A27"/>
<path d="M156.036 43.4044C155.588 43.4044 155.192 43.3029 154.846 43.1086C154.5 42.9058 154.263 42.5339 154.128 41.9762C154.052 41.6889 154.01 41.3931 154.01 41.1058C154.01 40.3114 154.213 39.5339 154.626 38.7818C155.04 38.0297 155.521 37.3283 156.07 36.6776C156.627 36.0269 157.099 35.4776 157.496 35.0297C157.707 34.8184 157.952 34.5396 158.23 34.1931C158.509 33.8466 158.644 33.5086 158.644 33.1621C158.644 32.9508 158.534 32.748 158.323 32.5452C158.112 32.3424 157.724 32.2072 157.175 32.1311C156.855 32.0804 156.559 32.0297 156.281 31.9959C156.002 31.9621 155.715 31.9367 155.428 31.9367C154.685 32.9424 153.968 33.9565 153.267 34.979C152.567 36.0015 151.815 36.9987 151.022 37.979C150.836 38.1649 150.676 38.2579 150.549 38.2579C150.389 38.2579 150.313 38.1818 150.313 38.0213C150.313 37.8607 150.389 37.7001 150.549 37.548C151.976 35.7987 153.208 33.9311 154.238 31.9452C154.103 31.9452 153.909 31.9452 153.639 31.9283C153.368 31.9114 153.166 31.8945 153.006 31.8691C152.82 31.8184 152.676 31.7339 152.567 31.6325C152.457 31.5311 152.406 31.4213 152.406 31.3114C152.406 31.1508 152.474 31.0579 152.609 31.0325C152.955 30.9311 153.326 30.7706 153.723 30.5593C154.12 30.348 154.491 30.0691 154.837 29.7227C155.209 29.3508 155.555 28.9621 155.867 28.548C156.188 28.1339 156.432 27.8297 156.618 27.6184C156.804 27.4832 156.998 27.4241 157.217 27.4241C157.353 27.4241 157.479 27.4663 157.597 27.5424C157.715 27.6184 157.775 27.7452 157.775 27.8973C157.775 28.0832 157.699 28.3198 157.538 28.6156C157.302 28.9875 157.04 29.3931 156.762 29.8494C156.483 30.3058 156.23 30.7114 155.985 31.0832C156.458 31.1086 156.939 31.1339 157.412 31.1593C157.884 31.1846 158.374 31.2015 158.88 31.2015C159.142 31.2015 159.404 31.2015 159.657 31.1846C159.91 31.1677 160.163 31.1677 160.433 31.1677C161.227 31.1677 161.624 31.3706 161.624 31.7677C161.624 32.0297 161.48 32.3593 161.21 32.7396C160.931 33.1283 160.594 33.5424 160.197 33.9903C159.294 35.0213 158.534 36.1114 157.893 37.2438C157.26 38.3846 156.838 39.2551 156.627 39.8635C156.416 40.4973 156.306 40.979 156.306 41.2917C156.306 41.9255 156.559 42.2466 157.057 42.2466C157.504 42.2466 158.053 42.0184 158.703 41.5706C159.353 41.1227 160.02 40.5734 160.704 39.9227C161.387 39.272 162.012 38.6382 162.569 38.0128C163.126 37.3875 163.523 36.9227 163.759 36.6015C163.81 36.5255 163.894 36.4832 163.995 36.4832C164.097 36.4832 164.19 36.5255 164.274 36.6184C164.35 36.7114 164.35 36.8213 164.274 36.9565C163.979 37.4044 163.557 37.9706 163.008 38.6466C162.451 39.3227 161.835 39.9903 161.142 40.6494C160.459 41.3086 159.783 41.8832 159.117 42.3565C158.771 42.6184 158.306 42.8635 157.707 43.0917C157.108 43.3198 156.551 43.4297 156.019 43.4297L156.036 43.4044Z" fill="#5C3A27"/>
<path d="M66.5374 58.8521C65.592 58.8521 64.3934 58.7422 63.1695 58.3281C60.5275 57.4323 58.8224 55.4971 58.7549 55.4211L58.2822 54.8802L58.9913 54.7366C59.0925 54.7112 61.6248 54.2126 64.2668 55.1C66.9088 55.9957 68.6138 57.9309 68.6814 58.007L69.154 58.5478L68.445 58.6915C68.3859 58.7 67.6347 58.8521 66.5458 58.8521H66.5374ZM59.9788 55.4464C60.6625 56.0549 61.878 57.0014 63.4311 57.5253C64.9927 58.0492 66.5289 58.0408 67.4406 57.9647C66.7568 57.3563 65.5414 56.4098 63.9882 55.8859C62.4351 55.3619 60.8905 55.3704 59.9788 55.4464Z" fill="#6B7A63"/>
<path d="M75.2905 59.4098L74.5815 59.2662C74.4802 59.2493 72.142 58.7676 70.2006 57.0521C68.2593 55.3366 67.4996 53.0634 67.4658 52.9704L67.2379 52.2859L67.9469 52.4296C68.0482 52.4465 70.3864 52.9281 72.3277 54.6436C74.2691 56.3591 75.0288 58.6324 75.0626 58.7253L75.2905 59.4098ZM68.5969 53.4859C68.9683 54.2549 69.6604 55.4465 70.7577 56.4183C71.8635 57.3986 73.1296 57.9394 73.9399 58.2014C73.5686 57.4324 72.8764 56.2408 71.7791 55.269C70.6818 54.2972 69.4072 53.7563 68.6053 53.4859H68.5969Z" fill="#6B7A63"/>
<path d="M81.7646 60.3395L81.0556 60.1958C80.9796 60.1789 79.1648 59.8071 77.6539 58.4803C76.1515 57.1536 75.5606 55.3874 75.5353 55.3198L75.3074 54.6353L76.0164 54.7789C76.0924 54.7958 77.9156 55.1592 79.4181 56.4944C80.9205 57.8212 81.5114 59.5874 81.5367 59.6634L81.7646 60.3479V60.3395ZM76.6917 55.8606C76.9871 56.4353 77.4851 57.2043 78.211 57.855C78.9454 58.4972 79.7726 58.8944 80.3719 59.1226C80.0765 58.5564 79.5784 57.7789 78.8525 57.1282C78.1182 56.486 77.291 56.0888 76.6917 55.8606Z" fill="#6B7A63"/>
<path d="M67.2379 66.4999L67.4658 65.8154C67.4996 65.7225 68.2593 63.4492 70.2006 61.7337C72.142 60.0182 74.4886 59.545 74.5815 59.5196L75.2905 59.376L75.0626 60.0605C75.0288 60.1534 74.2691 62.4267 72.3277 64.1422C70.3864 65.8577 68.0398 66.3309 67.9469 66.3563L67.2379 66.4999ZM73.9315 60.576C73.1296 60.8464 71.8551 61.3872 70.7577 62.3591C69.6604 63.3309 68.9598 64.5309 68.5969 65.2915C69.3988 65.021 70.6733 64.4802 71.7706 63.5084C72.868 62.5365 73.5685 61.3365 73.9315 60.576Z" fill="#6B7A63"/>
<path d="M75.3158 65.486L75.5437 64.8015C75.569 64.7254 76.1599 62.9677 77.6624 61.6409C79.1648 60.3141 80.988 59.9423 81.064 59.9254L81.773 59.7817L81.5451 60.4662C81.5198 60.5423 80.929 62.3001 79.4265 63.6353C77.924 64.962 76.1008 65.3339 76.0248 65.3508L75.3158 65.4944V65.486ZM80.3887 61.0071C79.7894 61.2268 78.9538 61.624 78.2279 62.2747C77.4935 62.917 77.004 63.6944 76.7085 64.2691C77.3078 64.0409 78.1435 63.6522 78.8694 63.0015C79.6037 62.3592 80.0933 61.5817 80.3887 61.0071Z" fill="#6B7A63"/>
<path d="M84.3644 60.7872C78.5487 60.7872 68.2846 58.5731 67.795 58.4717L67.9301 57.8379C68.0652 57.8717 81.8153 60.8294 86.5 59.9928L86.6182 60.6351C85.9935 60.7449 85.2338 60.7956 84.3729 60.7956L84.3644 60.7872Z" fill="#6B7A63"/>
<path d="M106.463 58.852C105.365 58.852 104.614 58.6999 104.563 58.6915L103.854 58.5478L104.327 58.007C104.395 57.9224 106.1 55.9872 108.742 55.0999C111.384 54.2041 113.907 54.7112 114.017 54.7365L114.726 54.8802L114.254 55.421C114.186 55.5055 112.481 57.4408 109.839 58.3281C108.615 58.7422 107.416 58.852 106.471 58.852H106.463ZM105.559 57.9647C106.471 58.0408 108.016 58.0492 109.569 57.5253C111.122 57.0013 112.346 56.0633 113.021 55.4464C112.11 55.3703 110.565 55.3619 109.012 55.8858C107.45 56.4098 106.235 57.3562 105.559 57.9647Z" fill="#6B7A63"/>
<path d="M97.7095 59.4098L97.9374 58.7253C97.9711 58.6324 98.7308 56.3591 100.672 54.6436C102.614 52.9281 104.96 52.4549 105.053 52.4296L105.762 52.2859L105.534 52.9704C105.5 53.0634 104.741 55.3366 102.799 57.0521C100.858 58.7676 98.5114 59.2408 98.4185 59.2662L97.7095 59.4098ZM104.412 53.4859C103.61 53.7563 102.335 54.2972 101.229 55.269C100.132 56.2408 99.4314 57.4408 99.0685 58.2014C99.8788 57.931 101.145 57.3901 102.242 56.4183C103.348 55.438 104.04 54.2465 104.412 53.4859Z" fill="#6B7A63"/>
<path d="M91.2352 60.3394L91.4631 59.6549C91.4885 59.5788 92.0793 57.8211 93.5818 56.4859C95.0843 55.1591 96.9075 54.7873 96.9835 54.7704L97.6925 54.6267L97.4646 55.3112C97.4393 55.3873 96.8484 57.145 95.3459 58.4718C93.8435 59.7985 92.0202 60.1704 91.9443 60.1873L91.2352 60.3309V60.3394ZM96.3082 55.8605C95.7089 56.0887 94.8732 56.4774 94.1473 57.1281C93.413 57.7704 92.9234 58.5478 92.628 59.1225C93.2273 58.9028 94.0629 58.5056 94.7888 57.8549C95.5232 57.2126 96.0128 56.4352 96.3082 55.8605Z" fill="#6B7A63"/>
<path d="M105.762 66.4999L105.053 66.3563C104.952 66.3394 102.614 65.8577 100.672 64.1422C98.7308 62.4267 97.9711 60.1534 97.9374 60.0605L97.7095 59.376L98.4185 59.5196C98.5198 59.5365 100.858 60.0182 102.799 61.7337C104.741 63.4492 105.5 65.7225 105.534 65.8154L105.762 66.4999ZM99.0685 60.576C99.4398 61.345 100.132 62.5365 101.229 63.5084C102.327 64.4802 103.601 65.021 104.403 65.2915C104.032 64.5225 103.34 63.3309 102.242 62.3591C101.145 61.3872 99.8703 60.8464 99.0685 60.576Z" fill="#6B7A63"/>
<path d="M97.6842 65.4859L96.9751 65.3422C96.8992 65.3253 95.076 64.9619 93.5735 63.6267C92.071 62.3 91.4802 60.5338 91.4548 60.4577L91.2269 59.7732L91.936 59.9169C92.0119 59.9338 93.8267 60.3056 95.3376 61.6324C96.8401 62.9591 97.431 64.7253 97.4563 64.7929L97.6842 65.4774V65.4859ZM92.6112 61.007C92.9067 61.5732 93.4047 62.3507 94.1306 63.0014C94.8649 63.6436 95.6921 64.0408 96.2914 64.269C95.996 63.6943 95.498 62.9253 94.7721 62.2746C94.0377 61.6324 93.2105 61.2352 92.6112 61.007Z" fill="#6B7A63"/>
<path d="M88.6355 60.7872C94.4513 60.7872 104.715 58.5731 105.205 58.4717L105.07 57.8379C104.935 57.8717 91.1847 60.8294 86.5 59.9928L86.3818 60.6351C87.0065 60.7449 87.7661 60.7956 88.6271 60.7956L88.6355 60.7872Z" fill="#6B7A63"/>
<path d="M85.4702 25.3704C85.3773 25.3704 85.2929 25.3619 85.2001 25.3704C83.2587 25.6746 81.9166 24.5929 80.6758 23.3591C79.4096 22.1084 78.9538 20.5366 79.0214 18.7788C79.0382 18.238 79.2324 18.0352 79.7641 18.0352C83.6469 18.0352 87.5297 18.0352 91.4041 18.0352C91.9105 18.0352 92.4085 18.1788 92.915 18.1788C93.5903 18.1788 94.198 18.3225 94.5019 18.9647C94.8311 19.6577 94.772 20.4098 94.2571 20.9845C93.8941 21.3901 93.4046 21.8633 92.9066 21.9478C91.5223 22.176 90.6106 22.9957 89.6821 23.9506C88.5258 25.1422 87.6226 25.3619 85.4617 25.3704H85.4702ZM92.6533 18.914C92.552 18.9901 92.1384 19.1422 92.0371 19.4042C91.8261 19.945 91.767 20.5535 91.6911 21.145C91.6742 21.2549 91.8177 21.483 91.919 21.4999C92.6364 21.6267 93.6747 20.9422 93.8857 20.2323C94.1136 19.4802 93.7253 18.9478 92.6533 18.9056V18.914Z" fill="#5C3A27"/>
<path d="M83.1911 5.283C83.5372 5.283 83.8833 5.2661 84.2209 5.283C84.778 5.32526 85.1241 5.11399 85.2676 4.55624C85.3435 4.24357 85.4955 3.95624 85.6727 3.49146C85.85 3.91399 86.0104 4.18441 86.0779 4.48019C86.2383 5.12244 86.635 5.34216 87.2596 5.283C87.5466 5.25765 87.8505 5.283 88.1375 5.283C88.1712 5.34216 88.1966 5.40131 88.2303 5.46892C87.9518 5.69709 87.707 5.97596 87.4031 6.15343C86.9304 6.42385 86.8123 6.76188 86.9726 7.26047C87.0824 7.59005 87.133 7.94498 87.2343 8.38441C87.0486 8.29991 86.9389 8.27455 86.8545 8.2154C86.0666 7.69146 85.2591 7.69709 84.4319 8.2323C84.3644 8.27455 84.28 8.29146 84.1534 8.33371C84.2631 7.71681 84.567 7.07455 84.3982 6.60131C84.2462 6.15343 83.5879 5.89146 83.1489 5.54498C83.1658 5.46047 83.1827 5.37596 83.1996 5.29146L83.1911 5.283Z" fill="#5C3A27"/>
<path d="M85.504 27.3477C83.5119 27.2716 81.5452 27.1618 79.6207 26.6547C79.2746 26.5618 78.9539 26.4012 78.6331 26.2491C78.5571 26.2153 78.4896 26.0378 78.5149 25.9618C78.5403 25.8857 78.6922 25.8012 78.785 25.8097C78.9876 25.8266 79.1902 25.9026 79.4012 25.9364C80.9121 26.1308 82.4146 26.4097 83.9255 26.4773C86.6435 26.604 89.3614 26.5618 92.0287 25.8857C92.206 25.8435 92.4255 25.9787 92.628 26.0294C92.493 26.173 92.3917 26.3928 92.2229 26.4435C91.7418 26.604 91.2522 26.7646 90.7542 26.8238C89.0069 27.0266 87.2597 27.1787 85.504 27.3477Z" fill="#5C3A27"/>
<path d="M85.867 11.3169C85.715 11.8324 85.4112 12.3479 85.4703 12.8127C85.5293 13.269 85.9683 13.6746 86.2046 14.1141C86.4747 14.6211 86.4156 15.0437 85.9261 15.4408C85.4196 15.8549 84.7865 16.2014 84.7865 17.131C84.4151 16.3704 84.4911 15.9732 85.0145 15.4239C85.5153 14.8944 85.5828 14.3084 85.217 13.6662C84.7021 12.7535 84.9132 11.9422 85.8585 11.3169H85.867Z" fill="#5C3A27"/>
</g>
<defs>
<clipPath id="clip0_115_498">
<rect width="155.7" height="63" fill="white" transform="translate(8.65002 3.5)"/>
</clipPath>
</defs>
</svg>
