<svg width="243" height="110" viewBox="0 0 243 110" fill="none" xmlns="http://www.w3.org/2000/svg">
<g clip-path="url(#clip0_71_2026)">
<path d="M51.4301 73.5741C49.9939 73.5741 48.5251 73.3785 47.0018 72.9874C45.4786 72.5962 44.0641 72.1399 42.7367 71.6075C41.4093 71.0751 40.2451 70.6513 39.255 70.3037C37.4488 69.6517 35.7624 69.0324 34.1956 68.4131C32.6288 67.8047 31.519 67.4244 30.8662 67.294C27.5585 66.4465 25.2192 66.0228 23.8592 66.0228C23.6198 66.1966 23.4022 66.3379 23.1955 66.4574C22.9888 66.5769 22.7712 66.6529 22.5318 66.6855C22.4339 66.7181 22.2707 66.7399 22.0748 66.7399C21.4655 66.7399 21.15 66.5334 21.15 66.1314C21.15 65.8924 21.3349 65.6534 21.7158 65.4143C21.9878 65.2731 22.3033 65.197 22.6624 65.1861C23.0214 65.1753 23.3913 65.1427 23.7613 65.1101C24.5447 64.4256 25.2845 63.5564 25.9809 62.5024C26.6772 61.4485 27.1886 60.6445 27.4933 60.1012C27.7653 59.6232 28.0264 59.156 28.2875 58.6996C28.5487 58.2433 28.8098 57.787 29.0818 57.3415C28.5378 57.4719 27.972 57.6022 27.3953 57.7218C26.8187 57.8413 26.2529 57.8956 25.7089 57.8956C24.7187 57.8956 23.8266 57.6892 23.0214 57.2872C22.2163 56.8743 21.8246 56.1246 21.8246 55.0381C21.8246 54.321 22.1401 53.6582 22.7712 53.0497C23.4022 52.4413 24.055 52.1262 24.7405 52.1262C25.154 52.1262 25.3498 52.3 25.3498 52.6369C25.3498 52.8433 25.1975 52.9411 24.8928 52.9411C24.512 52.9411 24.1747 53.1693 23.8701 53.6039C23.5654 54.0493 23.4131 54.5057 23.4131 54.9837C23.4131 55.3206 23.5219 55.6574 23.7504 55.9833C23.968 56.3093 24.3597 56.5049 24.9037 56.5701C25.4151 56.6678 25.9591 56.7222 26.5358 56.7222C27.5259 56.7222 28.5269 56.5918 29.5496 56.3093C30.0284 55.3532 30.4745 54.4079 30.9097 53.4735C31.334 52.5391 31.7584 51.6047 32.1609 50.692C33.0096 48.8232 33.8801 46.9978 34.7722 45.2268C35.6536 43.4558 36.524 41.8695 37.3835 40.4787C38.2322 39.088 39.0047 38.0449 39.6902 37.3604C40.985 36.1326 42.2906 35.2634 43.6071 34.7528C44.9237 34.2421 46.0987 33.9813 47.165 33.9813C47.3718 33.9813 47.5785 33.9813 47.7743 34.0031C47.9811 34.0248 48.166 34.0465 48.3401 34.0791C49.6022 34.2855 50.4836 34.7202 50.9949 35.3829C51.5063 36.0457 51.7674 36.8389 51.7674 37.7624C51.7674 38.2405 51.713 38.7294 51.6151 39.2401C51.169 41.3805 50.2768 43.3906 48.9277 45.2703C47.5785 47.1391 45.9573 48.834 44.0424 50.3552C42.1274 51.8654 40.0928 53.1584 37.9276 54.2123C35.7624 55.2662 33.6624 56.0377 31.6169 56.5157C31.1708 57.2654 30.703 58.0043 30.2134 58.7322C29.7237 59.4602 29.1797 60.1882 28.6031 60.9053C28.2658 61.4159 27.7653 62.0678 27.1233 62.8719C26.4705 63.6759 25.8068 64.4147 25.1322 65.0884C25.6109 65.121 26.1332 65.1644 26.6881 65.2187C27.2539 65.2731 27.8523 65.3491 28.5051 65.4469C31.334 65.8924 34.1738 66.5443 37.0245 67.4135C39.8752 68.2827 42.6932 69.0759 45.4894 69.793C46.2728 69.9994 47.3935 70.2493 48.8406 70.5644C50.2877 70.8686 51.6478 71.0208 52.9099 71.0208C54.172 71.0208 55.0751 70.8035 55.7279 70.358C56.2393 70.0538 56.5004 69.63 56.5004 69.0868C56.5004 68.6739 56.3154 68.3371 55.9346 68.0654C55.7279 67.8916 55.63 67.7612 55.63 67.6525C55.63 67.3157 55.8367 67.2614 56.2393 67.5004C56.6854 67.8047 57.0009 68.1632 57.1859 68.5761C57.3708 68.989 57.4688 69.4127 57.4688 69.8473C57.4688 70.358 57.3708 70.8252 57.1859 71.2489C57.0009 71.6727 56.7724 71.9769 56.5004 72.1399C55.0968 73.096 53.4321 73.5741 51.4845 73.5741H51.4301ZM32.3459 55.3423C36.1323 53.7125 39.4508 51.7133 42.3232 49.3664C45.1848 47.0196 47.4588 43.923 49.1235 40.0767C49.6675 38.8815 49.9395 37.8493 49.9395 36.9584C49.9395 36.2413 49.7219 35.6872 49.2758 35.2743C49.0365 34.9701 48.6448 34.8179 48.1007 34.8179C46.9801 34.8179 45.8159 35.2091 44.619 35.9914C43.5963 36.7411 42.6279 37.7298 41.7248 38.9576C40.8218 40.1853 39.9731 41.4783 39.1897 42.8365C38.4063 44.1946 37.71 45.4876 37.1224 46.6936C36.524 47.8996 36.0235 48.8666 35.61 49.5837C35.338 50.127 34.9246 50.931 34.3588 51.9849C33.793 53.0389 33.1184 54.1688 32.335 55.3531L32.3459 55.3423Z" fill="#5C3A27"/>
<path d="M48.6665 65.9576C47.1324 65.9576 45.805 65.599 44.6734 64.8819C43.5418 64.1648 42.9869 63.0783 42.9869 61.6115C42.9869 60.8292 43.2263 59.8731 43.705 58.754C44.0423 57.9717 44.6734 57.0698 45.5982 56.0485C46.5231 55.0272 47.5893 54.0276 48.8188 53.0606C50.0483 52.0936 51.2887 51.2896 52.5508 50.6594C53.8129 50.0292 54.9554 49.7141 55.9781 49.7141C56.3481 49.7141 56.6962 49.7684 57.0009 49.8662C57.5776 50.0727 57.9801 50.3986 58.1977 50.8332C58.4153 51.2678 58.535 51.735 58.535 52.2131C58.535 52.6586 58.4697 53.0823 58.3283 53.4843C58.1869 53.8972 58.0237 54.2558 57.8169 54.56C57.2076 55.4835 56.3263 56.2984 55.1839 57.0155C54.0414 57.7326 52.8772 58.2867 51.7021 58.6996C50.5271 59.1125 49.5587 59.3515 48.8079 59.4167H48.71C48.2639 59.4167 48.0463 59.2863 48.0463 59.0038C48.0463 58.83 48.1769 58.7431 48.4598 58.7431C49.2758 58.6779 50.3094 58.2976 51.5498 57.5914C52.7902 56.896 53.8891 56.168 54.8466 55.4183C55.26 55.0815 55.7388 54.6034 56.3046 53.9841C56.8703 53.3757 57.1532 52.7781 57.1532 52.2022C57.1532 51.5938 56.8595 51.2787 56.2828 51.2787C55.9781 51.2787 55.6626 51.3439 55.3362 51.4851C55.0098 51.6264 54.7487 51.7242 54.5419 51.7894C53.5518 52.2674 52.4638 53.0063 51.2669 54.0059C50.0701 55.0055 48.9929 56.1354 48.0137 57.3741C47.0453 58.6127 46.3707 59.8731 45.9899 61.1334C45.892 61.4051 45.8158 61.6658 45.7832 61.9266C45.7506 62.1765 45.7288 62.4264 45.7288 62.6654C45.7288 63.4803 45.9899 64.067 46.5231 64.4039C47.0562 64.7407 47.6873 64.9145 48.438 64.9145C49.5587 64.9145 50.7229 64.6646 51.9197 64.1757C53.1166 63.6867 54.2699 63.0457 55.4015 62.2634C56.533 61.4811 57.5558 60.6336 58.4915 59.7318C59.4272 58.83 60.2215 57.9499 60.8743 57.1024C60.9722 56.9721 61.0919 56.8851 61.2334 56.8743C61.3748 56.8634 61.451 56.8743 61.4945 56.9503C61.6251 56.9829 61.7012 57.0807 61.7012 57.2328C61.7012 57.3849 61.6686 57.5262 61.6033 57.6674C60.6458 58.993 59.5034 60.2859 58.1542 61.5463C56.805 62.8067 55.3253 63.8497 53.7041 64.6863C52.083 65.523 50.4074 65.9358 48.6665 65.9358V65.9576Z" fill="#5C3A27"/>
<path d="M88.2494 68.3154C86.3018 68.3154 84.6807 67.946 83.3859 67.1963C82.0911 66.4466 81.3186 65.2949 81.0792 63.7194V63.4152C80.8072 63.7955 80.4917 64.2301 80.1326 64.7408C79.7736 65.2514 79.4037 65.686 79.012 66.0446C78.6203 66.4031 78.2177 66.577 77.8151 66.577C77.7498 66.577 77.554 66.5444 77.2276 66.4792C76.9012 66.414 76.5965 66.3271 76.3027 66.2293C76.009 66.1315 75.8458 66.012 75.8131 65.8707C75.7152 65.2188 75.8675 64.2953 76.3027 63.0892C76.7271 61.8832 77.2929 60.5468 77.9892 59.08C78.6856 57.6132 79.4254 56.1573 80.187 54.6905C80.9596 53.2237 81.6668 51.909 82.3087 50.7355C82.9507 49.5621 83.4185 48.6711 83.6905 48.0518C83.8973 47.6824 84.0278 47.3673 84.104 47.1066C84.1693 46.8567 84.2019 46.6611 84.2019 46.5198C84.2019 46.3134 84.1693 46.1504 84.104 46.0092C84.1693 45.5963 84.4195 45.053 84.8439 44.3794C85.2682 43.6949 85.8013 43.0212 86.4542 42.3367C87.0961 41.6522 87.8033 41.0872 88.5541 40.6309C89.3048 40.1746 90.0012 39.9464 90.654 39.9464C90.8607 39.9464 91.1763 40.0007 91.6006 40.1202C92.0249 40.2398 92.4384 40.4245 92.8301 40.6526C93.2218 40.8917 93.472 41.2285 93.5699 41.674C93.6026 41.7717 93.6244 41.8804 93.6244 41.9782C93.6244 42.076 93.5917 42.1303 93.5264 42.1303C93.4611 42.1303 93.3632 42.1086 93.2435 42.0542C93.1239 41.9999 93.0259 41.9782 92.9606 41.9782C92.1773 41.9782 91.3286 42.3585 90.4038 43.0973C89.4789 43.847 88.5323 44.8466 87.564 46.107C86.5956 47.3673 85.649 48.7472 84.7242 50.2466C83.7993 51.746 82.9289 53.2563 82.0911 54.7665C81.2533 56.2768 80.5352 57.6784 79.915 58.9496C79.3057 60.2208 78.827 61.253 78.4788 62.0353C78.2068 62.785 78.0654 63.3066 78.0654 63.6216C78.0654 64.0997 78.2503 64.3387 78.6312 64.3387C79.1099 64.3387 79.6213 64.0128 80.1653 63.3717C80.5352 62.9263 80.8943 62.5134 81.2098 62.1222C81.5362 61.7311 81.8191 61.5681 82.0585 61.6333C82.5372 61.6333 82.8636 61.7637 83.0268 62.0136C83.2009 62.2635 83.2988 62.5677 83.3315 62.9045C83.3641 63.2414 83.3968 63.5565 83.4294 63.8281C83.6688 64.882 84.2237 65.7621 85.0941 66.4575C85.9645 67.1528 87.1832 67.5005 88.7499 67.5005C90.4255 67.5005 91.9161 67.2289 93.2544 66.6856C94.5818 66.1424 95.6372 65.3818 96.4206 64.4148C97.204 63.4478 97.5957 62.3504 97.5957 61.1226C97.5957 60.2752 97.389 59.3842 96.9864 58.4389C96.5838 57.4937 95.931 56.5593 95.0388 55.6031C94.2881 54.7231 93.4503 53.8864 92.5363 53.1041C91.6115 52.3218 90.8172 51.5939 90.1535 50.9311C89.4898 50.2683 89.1525 49.7033 89.1525 49.2253C89.1525 48.8124 89.4245 48.4538 89.9685 48.1279C90.5126 47.8019 90.9587 47.6389 91.2959 47.6389C92.0793 47.6389 93.0803 47.4868 94.2881 47.1826C95.4958 46.8784 96.747 46.4546 98.0527 45.9331C99.3474 45.4007 100.533 44.814 101.611 44.1729C102.688 43.5319 103.482 42.88 103.993 42.2281C104.298 41.8587 104.548 41.4567 104.733 41.0329C104.918 40.6092 105.016 40.1854 105.016 39.7834C105.016 39.1315 104.733 38.5448 104.167 38.0233C103.602 37.4909 102.655 37.1106 101.328 36.8715C100.958 36.7738 100.512 36.6977 100 36.6651C99.4889 36.6325 98.9449 36.6108 98.3682 36.6108C96.6273 36.6108 94.6145 36.7738 92.3296 37.0997C90.0447 37.4257 87.7272 37.8929 85.377 38.5013C83.0268 39.1098 80.829 39.8812 78.7835 40.8047C76.738 41.7283 75.0624 42.7931 73.7458 43.9991C72.4293 45.2051 71.6894 46.5416 71.5262 48.0084C71.461 48.8558 71.6568 49.5078 72.1355 49.9532C72.6143 50.3987 73.1801 50.7247 73.822 50.9528C74.464 51.1701 74.9753 51.3874 75.3561 51.5939C75.6608 51.7351 75.8131 51.8655 75.8131 52.0068C75.8131 52.1806 75.6282 52.2675 75.2473 52.2675C74.8339 52.2675 74.3225 52.1697 73.7132 51.9633C73.1039 51.7569 72.4946 51.4418 71.8962 51.018C71.2978 50.5943 70.8081 50.0727 70.4382 49.4643C70.0683 48.8558 69.9268 48.1387 70.0247 47.3239C70.0247 47.2587 70.003 47.1283 69.9703 46.9436C69.9377 46.7589 69.9159 46.6068 69.9159 46.509C70.0139 45.4224 70.4817 44.3794 71.3195 43.3907C72.1573 42.4019 73.1474 41.5001 74.2899 40.6852C75.4323 39.8703 76.4986 39.1858 77.4887 38.6426C78.5767 38.0667 79.8933 37.5235 81.4274 37.0345C82.9616 36.5456 84.6045 36.111 86.3671 35.7307C88.1189 35.3613 89.9032 35.0571 91.7094 34.8398C93.5155 34.6224 95.202 34.5029 96.7688 34.5029C98.4335 34.5029 99.9023 34.6442 101.164 34.9158C102.873 35.2852 104.178 35.9589 105.103 36.9041C106.028 37.8603 106.485 38.9142 106.485 40.0659C106.452 41.3263 106.072 42.4237 105.332 43.3581C104.603 44.2925 103.656 45.0856 102.492 45.7375C101.328 46.3894 100.076 46.9218 98.7381 47.3456C97.389 47.7693 96.0724 48.0844 94.7777 48.2909C93.4829 48.4973 92.3513 48.6168 91.4047 48.6494C92.841 49.4969 94.2554 50.4422 95.6699 51.4852C97.0843 52.5283 98.2594 53.6583 99.1951 54.8752C100.131 56.1029 100.599 57.4502 100.599 58.9061C100.599 59.721 100.414 60.5685 100.066 61.4377C99.7174 62.307 99.1407 63.2305 98.3573 64.2192C97.3346 65.4796 95.9092 66.4792 94.0922 67.2289C92.2643 67.9786 90.3167 68.348 88.2385 68.348L88.2494 68.3154Z" fill="#5C3A27"/>
<path d="M108.443 65.762C107.486 65.762 106.648 65.5447 105.941 65.0992C104.744 64.3821 104.157 63.0892 104.157 61.2204C104.157 60.4381 104.287 59.5362 104.57 58.5149C104.809 57.6674 105.234 56.733 105.843 55.7334C106.452 54.7338 107.181 53.7668 108.019 52.8433C108.857 51.9197 109.771 51.17 110.75 50.5942C111.74 50.0183 112.73 49.725 113.72 49.725C114.134 49.725 114.493 49.7793 114.798 49.8771C115.211 50.0075 115.559 50.2574 115.842 50.6159C116.136 50.9745 116.277 51.4308 116.277 51.9741C116.277 52.5499 116.136 52.8759 115.842 52.9411C115.548 53.0063 115.407 52.9411 115.407 52.7346C115.407 52.6694 115.407 52.6043 115.429 52.5282C115.44 52.463 115.45 52.4087 115.45 52.3761C115.45 52.1045 115.374 51.8546 115.222 51.6373C115.07 51.4199 114.787 51.3004 114.373 51.3004C113.829 51.3004 113.155 51.5938 112.349 52.1696C111.544 52.7455 110.728 53.5278 109.891 54.4948C109.053 55.4618 108.324 56.5266 107.693 57.6892C107.062 58.8517 106.648 60.0035 106.441 61.166C106.409 61.3399 106.376 61.492 106.365 61.655C106.344 61.8071 106.344 61.97 106.344 62.1439C106.344 62.9262 106.528 63.5781 106.877 64.1105C107.236 64.6429 107.801 64.9037 108.585 64.9037C109.542 64.9037 110.456 64.5342 111.349 63.8063C112.23 63.0783 113.024 62.1982 113.731 61.1769C114.428 60.1556 114.95 59.2538 115.287 58.4715C115.559 57.863 115.744 57.3306 115.853 56.8851C115.962 56.4397 116.005 56.0702 116.005 55.766C116.005 55.4944 115.984 55.2554 115.929 55.0489C115.875 54.8425 115.82 54.6795 115.755 54.5383C115.69 54.3318 115.657 54.1797 115.657 54.0819C115.657 53.8103 115.766 53.593 115.994 53.4191C116.212 53.2453 116.451 53.1584 116.68 53.1584C116.887 53.1584 117.104 53.2236 117.344 53.3648C117.616 53.43 117.986 53.4843 118.464 53.5169C118.943 53.5495 119.454 53.5713 119.998 53.5713C120.575 53.5713 121.163 53.5495 121.761 53.5169C122.359 53.4843 122.882 53.4191 123.317 53.3105C123.382 53.2779 123.491 53.2562 123.622 53.2562C123.861 53.2562 123.981 53.3214 123.981 53.4626C123.981 53.6039 123.861 53.7125 123.622 53.8212C122.425 54.3644 121.358 54.6578 120.423 54.6904C119.487 54.723 118.671 54.7447 117.996 54.7447C118.062 55.5922 117.877 56.5049 117.431 57.4719C116.985 58.4389 116.528 59.2972 116.049 60.0469C115.472 60.8944 114.808 61.7636 114.058 62.6546C113.307 63.5455 112.469 64.2843 111.555 64.8711C110.63 65.4686 109.597 65.762 108.433 65.762H108.443Z" fill="#5C3A27"/>
<path d="M119.901 65.8599C119.661 65.8599 119.596 65.7404 119.694 65.5013C119.792 65.2949 119.988 64.8277 120.26 64.0997C120.532 63.3718 120.847 62.4917 121.206 61.4703C121.565 60.449 121.935 59.3951 122.305 58.3086C122.675 57.2221 123.034 56.2007 123.35 55.2446C123.676 54.2885 123.937 53.5388 124.144 52.9955C124.209 52.7891 124.274 52.4957 124.351 52.1045C124.416 51.7134 124.568 51.3548 124.786 51.0289C125.003 50.7029 125.395 50.54 125.939 50.54C126.962 50.54 127.473 50.779 127.473 51.2571C127.473 51.4309 127.386 51.7134 127.212 52.1263C126.799 53.0498 126.364 54.1037 125.885 55.2989C125.406 56.4941 124.982 57.6132 124.612 58.6671C124.231 59.721 123.948 60.5359 123.741 61.1227C124.079 60.6446 124.634 59.9709 125.406 59.08C126.179 58.1999 127.038 57.2438 127.985 56.2225C128.931 55.2011 129.932 54.2124 130.977 53.2563C132.021 52.3001 132.99 51.5287 133.893 50.9311C134.796 50.3335 135.568 50.0402 136.221 50.0402C137.037 50.0402 137.451 50.4856 137.451 51.3657C137.451 51.6699 137.364 52.1371 137.19 52.7456C136.885 53.5931 136.493 54.4188 136.014 55.2229C135.536 56.0269 135.111 56.8635 134.741 57.7544C134.089 59.3516 133.719 60.6446 133.621 61.6333C133.588 61.7637 133.566 61.8941 133.566 62.0136V62.3939C133.566 63.752 134.023 64.4365 134.948 64.4365C135.46 64.4365 136.145 64.1323 136.994 63.513C137.842 62.9045 138.724 62.1657 139.627 61.3182C140.53 60.4707 141.346 59.645 142.053 58.841C142.771 58.0369 143.261 57.4394 143.533 57.0265C143.631 56.9287 143.74 56.8744 143.837 56.8744C143.968 56.8744 144.088 56.9287 144.175 57.0265C144.262 57.1243 144.273 57.2655 144.196 57.4394C143.892 58.0152 143.37 58.7432 142.641 59.6124C141.912 60.4816 141.096 61.3508 140.214 62.22C139.322 63.0893 138.463 63.8281 137.603 64.4365C137.092 64.7734 136.461 65.0885 135.71 65.3601C134.959 65.6317 134.208 65.7512 133.458 65.7186C132.5 65.6208 131.825 65.284 131.412 64.719C130.999 64.154 130.803 63.4804 130.803 62.6981C130.803 61.7746 130.988 60.7967 131.336 59.7645C131.695 58.7214 132.097 57.7436 132.533 56.8309C132.979 55.9074 133.338 55.212 133.61 54.7339C133.882 54.1907 134.023 53.7669 134.023 53.4627C134.023 53.1911 133.904 53.0498 133.664 53.0498C133.425 53.0498 133.066 53.2019 132.587 53.5062C132.108 53.8104 131.466 54.3428 130.639 55.0925C129.889 55.7444 129.084 56.581 128.235 57.6241C127.386 58.6671 126.559 59.7319 125.754 60.8184C124.949 61.905 124.253 62.8394 123.654 63.6216C123.056 64.4039 122.642 64.8603 122.403 65.0015C122.229 65.0993 121.848 65.2732 121.25 65.5122C120.651 65.7512 120.205 65.8707 119.89 65.8707L119.901 65.8599Z" fill="#5C3A27"/>
<path d="M142.967 65.8598C142.695 65.8598 142.63 65.7402 142.76 65.5012C142.826 65.2948 143.01 64.7841 143.293 63.9692C143.587 63.1543 143.935 62.1656 144.338 61.003C144.751 59.8513 145.176 58.667 145.611 57.4501C146.057 56.2441 146.46 55.1576 146.84 54.2123C146.601 54.5165 146.231 54.962 145.741 55.5378C145.252 56.1137 144.73 56.733 144.186 57.374C143.642 58.026 143.13 58.5801 142.651 59.0582C142.554 59.1559 142.477 59.2103 142.445 59.2103C142.347 59.2103 142.292 59.1125 142.292 58.906C142.292 58.4932 142.39 58.1237 142.597 57.7869C143.348 56.8308 144.077 55.9398 144.773 55.1032C145.469 54.2666 146.111 53.4734 146.688 52.7237C146.351 52.5173 146.177 52.2674 146.177 51.9523C146.177 51.4743 146.416 51.2352 146.895 51.2352C147.102 51.2352 147.254 51.2678 147.352 51.333C147.384 51.3656 147.417 51.3873 147.45 51.3873C147.482 51.3873 147.515 51.4199 147.548 51.4851C147.722 51.2461 147.863 51.0288 147.983 50.8223C148.103 50.6159 148.211 50.3986 148.32 50.1596C148.451 49.8553 148.734 49.2686 149.169 48.3994C149.593 47.5302 150.126 46.498 150.779 45.3137C151.421 44.1185 152.172 42.8908 152.999 41.6087C153.836 40.3374 154.74 39.1423 155.708 38.034C156.676 36.9258 157.688 36.0348 158.722 35.3503C159.766 34.6658 160.822 34.329 161.921 34.329C162.051 34.329 162.193 34.329 162.334 34.3507C162.465 34.3724 162.606 34.3942 162.748 34.4268C163.596 34.6006 164.195 34.894 164.532 35.3177C164.869 35.7415 165.043 36.2413 165.043 36.828C165.043 37.2408 164.967 37.6755 164.815 38.1318C164.662 38.5881 164.445 39.0445 164.173 39.4899C163.487 40.6851 162.584 41.8803 161.464 43.0863C160.343 44.2924 159.081 45.4875 157.699 46.661C156.317 47.8344 154.935 48.9753 153.554 50.0835C152.172 51.1918 150.888 52.2348 149.691 53.2235C148.875 54.962 148.244 56.5048 147.798 57.8413C147.352 59.1885 147.014 60.2642 146.775 61.0791C147.145 60.601 147.711 59.9274 148.462 59.0364C149.212 58.1563 150.061 57.2002 151.018 56.1789C151.976 55.1576 152.966 54.1797 153.989 53.2453C155.012 52.3109 155.98 51.5394 156.905 50.9419C157.83 50.3443 158.613 50.0509 159.255 50.0509C160.071 50.0509 160.484 50.4747 160.484 51.3221C160.484 52.1696 160.191 53.0388 159.614 54.0276C159.037 55.0163 158.559 55.8529 158.178 56.5266C157.699 57.5153 157.318 58.4606 157.024 59.3624C156.731 60.2642 156.557 61.003 156.491 61.5789C156.459 61.7093 156.437 61.8396 156.437 61.9592V62.3394C156.437 63.6976 156.916 64.3821 157.873 64.3821C158.385 64.3821 159.07 64.0779 159.919 63.4586C160.767 62.8501 161.638 62.1113 162.53 61.2638C163.422 60.4163 164.227 59.5905 164.956 58.7865C165.685 57.9825 166.186 57.3849 166.469 56.972C166.567 56.8743 166.686 56.8199 166.828 56.8199C166.969 56.8199 167.067 56.8743 167.132 56.972C167.198 57.0698 167.198 57.2111 167.132 57.3849C166.795 57.9608 166.262 58.6887 165.544 59.558C164.826 60.4272 164.031 61.2964 163.139 62.1656C162.247 63.0348 161.387 63.7736 160.528 64.3821C160.082 64.7189 159.516 65.0231 158.82 65.273C158.123 65.5338 157.427 65.6533 156.752 65.6533C156.208 65.6533 155.675 65.5229 155.164 65.2404C154.653 64.9688 154.283 64.4582 154.043 63.7085C153.945 63.4042 153.891 62.9805 153.891 62.4372V61.9048C153.891 61.7201 153.913 61.5246 153.945 61.3181C154.076 60.2316 154.446 59.0799 155.044 57.8738C155.643 56.6678 156.198 55.5813 156.709 54.636C156.839 54.3644 156.959 54.1254 157.046 53.9189C157.133 53.7125 157.177 53.5495 157.177 53.4083C157.177 53.1366 157.057 52.9954 156.818 52.9954C156.578 52.9954 156.208 53.1475 155.697 53.4517C155.186 53.7559 154.5 54.2883 153.652 55.038C152.901 55.6899 152.106 56.5266 151.269 57.5696C150.431 58.6127 149.615 59.6775 148.81 60.764C148.005 61.8505 147.308 62.7849 146.71 63.5672C146.111 64.3495 145.698 64.8058 145.459 64.9471C145.284 65.0449 144.893 65.2187 144.283 65.4578C143.674 65.6968 143.228 65.8163 142.956 65.8163L142.967 65.8598ZM150.692 50.9419C152.052 50.0183 153.543 48.8775 155.142 47.4976C156.742 46.1177 158.254 44.64 159.668 43.0537C161.083 41.4674 162.16 39.968 162.911 38.5338C163.324 37.7515 163.52 37.0996 163.52 36.5889C163.52 36.0131 163.259 35.7197 162.748 35.7197C162.508 35.7197 162.236 35.7849 161.932 35.9044C161.627 36.024 161.268 36.2413 160.854 36.5455C158.569 38.3165 156.644 40.4244 155.077 42.8582C153.51 45.292 152.041 47.9865 150.681 50.9527L150.692 50.9419Z" fill="#5C3A27"/>
<path d="M170.331 65.9576C168.797 65.9576 167.47 65.599 166.338 64.8819C165.207 64.1648 164.652 63.0783 164.652 61.6115C164.652 60.8292 164.891 59.8731 165.37 58.754C165.707 57.9717 166.338 57.0698 167.263 56.0485C168.188 55.0272 169.254 54.0276 170.484 53.0606C171.713 52.0936 172.953 51.2896 174.216 50.6594C175.478 50.0292 176.62 49.7141 177.643 49.7141C178.013 49.7141 178.361 49.7684 178.666 49.8662C179.242 50.0727 179.645 50.3986 179.862 50.8332C180.08 51.2678 180.2 51.735 180.2 52.2131C180.2 52.6586 180.134 53.0823 179.993 53.4843C179.852 53.8972 179.688 54.2558 179.482 54.56C178.872 55.4835 177.991 56.2984 176.849 57.0155C175.706 57.7326 174.542 58.2867 173.367 58.6996C172.192 59.1125 171.223 59.3515 170.473 59.4167H170.375C169.929 59.4167 169.711 59.2863 169.711 59.0038C169.711 58.83 169.842 58.7431 170.125 58.7431C170.941 58.6779 171.974 58.2976 173.215 57.5914C174.455 56.896 175.554 56.168 176.511 55.4183C176.925 55.0815 177.404 54.6034 177.969 53.9841C178.535 53.3757 178.818 52.7781 178.818 52.2022C178.818 51.5938 178.524 51.2787 177.948 51.2787C177.643 51.2787 177.327 51.3439 177.001 51.4851C176.675 51.6264 176.413 51.7242 176.207 51.7894C175.217 52.2674 174.128 53.0063 172.932 54.0059C171.735 55.0055 170.658 56.1354 169.678 57.3741C168.71 58.6127 168.035 59.8731 167.655 61.1334C167.557 61.4051 167.481 61.6658 167.448 61.9266C167.415 62.1765 167.394 62.4264 167.394 62.6654C167.394 63.4803 167.655 64.067 168.188 64.4039C168.721 64.7407 169.352 64.9145 170.103 64.9145C171.223 64.9145 172.388 64.6646 173.584 64.1757C174.781 63.6867 175.935 63.0457 177.066 62.2634C178.198 61.4811 179.221 60.6336 180.156 59.7318C181.092 58.83 181.886 57.9499 182.539 57.1024C182.637 56.9721 182.757 56.8851 182.898 56.8743C183.04 56.8634 183.116 56.8743 183.159 56.9503C183.29 56.9829 183.366 57.0807 183.366 57.2328C183.366 57.3849 183.333 57.5262 183.268 57.6674C182.311 58.993 181.168 60.2859 179.819 61.5463C178.47 62.8067 176.99 63.8497 175.369 64.6863C173.748 65.523 172.072 65.9358 170.331 65.9358V65.9576Z" fill="#5C3A27"/>
<path d="M195.487 65.7078C194.877 65.7078 194.322 65.5774 193.855 65.2949C193.376 65.0233 193.017 64.5126 192.777 63.7629C192.745 63.5891 192.701 63.3935 192.647 63.1762C192.593 62.9589 192.571 62.7199 192.571 62.4917C192.571 61.6768 192.68 60.7533 192.908 59.7319C193.126 58.7106 193.376 57.8631 193.648 57.1786C193.506 57.2764 193.267 57.6241 192.93 58.1999C192.593 58.7758 192.157 59.4494 191.657 60.2209C191.145 60.9923 190.569 61.7529 189.938 62.5243C189.307 63.2957 188.621 63.9259 187.892 64.4148C187.163 64.9038 186.38 65.1537 185.564 65.1537C185.02 65.1537 184.367 65.0016 183.594 64.6973C182.822 64.3931 182.278 63.9694 181.93 63.4152C181.592 62.872 181.418 62.1875 181.418 61.3726C181.418 60.3838 181.636 59.3082 182.082 58.1348C182.528 56.9613 183.083 55.8639 183.769 54.8426C184.008 54.5058 184.28 54.0929 184.585 53.6148C184.889 53.1368 185.194 52.7239 185.509 52.3653C185.825 52.0068 186.043 51.8112 186.173 51.7786C186.587 51.6482 187.054 51.5722 187.609 51.5722C188.186 51.5722 188.61 51.6374 188.893 51.7786C189.133 51.8764 189.252 52.0068 189.252 52.1372C189.252 52.311 189.111 52.5283 188.839 52.7999C188.458 53.1368 187.947 53.6474 187.305 54.3319C186.652 55.0164 186.021 55.8313 185.39 56.7875C184.759 57.7436 184.236 58.7975 183.834 59.9492C183.496 60.8728 183.322 61.6659 183.322 62.3504C183.322 63.5456 183.801 64.1323 184.759 64.1323C185.575 64.1323 186.445 63.7955 187.37 63.111C188.295 62.4265 189.187 61.6007 190.057 60.612C190.928 59.6233 191.711 58.6454 192.408 57.6784C193.104 56.7114 193.637 55.9291 194.018 55.3533C194.355 54.8752 194.747 54.2667 195.171 53.517C195.596 52.7673 196.02 52.0394 196.422 51.3223C196.825 50.6052 197.151 50.0836 197.391 49.736C197.63 49.736 198 49.7794 198.49 49.8663C198.979 49.9533 199.415 50.0945 199.774 50.301C200.133 50.5074 200.22 50.7573 200.056 51.0724C199.85 51.4092 199.534 51.9416 199.11 52.6587C198.686 53.3758 198.261 54.0929 197.837 54.8317C197.413 55.5597 197.075 56.1464 196.836 56.5919C196.02 58.1565 195.487 59.8406 195.247 61.6442C195.215 61.7746 195.193 61.905 195.193 62.0245V62.4048C195.193 63.7629 195.65 64.4474 196.575 64.4474C197.086 64.4474 197.772 64.1432 198.62 63.5239C199.469 62.9154 200.35 62.1766 201.253 61.3291C202.156 60.4816 202.972 59.6559 203.712 58.8519C204.441 58.0478 204.942 57.4502 205.225 57.0374C205.29 56.9396 205.399 56.8853 205.529 56.8853C205.66 56.8853 205.78 56.9396 205.867 57.0374C205.954 57.1352 205.943 57.2764 205.845 57.4502C205.54 58.0261 205.018 58.7541 204.289 59.6233C203.56 60.4925 202.744 61.3617 201.863 62.2309C200.97 63.1001 200.111 63.839 199.251 64.4474C198.805 64.7843 198.25 65.0885 197.565 65.3384C196.879 65.5991 196.205 65.7187 195.519 65.7187L195.487 65.7078Z" fill="#5C3A27"/>
<path d="M211.133 65.8055C210.556 65.8055 210.045 65.6751 209.599 65.4252C209.153 65.1644 208.848 64.6864 208.674 63.9693C208.576 63.5998 208.521 63.2196 208.521 62.8501C208.521 61.8288 208.783 60.8292 209.316 59.8622C209.849 58.8952 210.469 57.9934 211.176 57.1568C211.894 56.3202 212.504 55.6139 213.015 55.0381C213.287 54.7664 213.603 54.4079 213.962 53.9624C214.321 53.5169 214.495 53.0823 214.495 52.6369C214.495 52.3652 214.353 52.1045 214.081 51.8437C213.809 51.5829 213.309 51.4091 212.602 51.3113C212.188 51.2461 211.807 51.1809 211.448 51.1375C211.089 51.094 210.719 51.0614 210.349 51.0614C209.392 52.3544 208.467 53.6582 207.564 54.9729C206.661 56.2876 205.693 57.5697 204.67 58.83C204.43 59.0691 204.224 59.1886 204.061 59.1886C203.854 59.1886 203.756 59.0908 203.756 58.8843C203.756 58.6779 203.854 58.4715 204.061 58.2759C205.899 56.0268 207.488 53.6256 208.815 51.0723C208.641 51.0723 208.391 51.0723 208.043 51.0505C207.695 51.0288 207.433 51.0071 207.227 50.9745C206.987 50.9093 206.802 50.8006 206.661 50.6703C206.519 50.5399 206.454 50.3986 206.454 50.2574C206.454 50.0509 206.541 49.9314 206.715 49.8988C207.161 49.7685 207.64 49.562 208.152 49.2904C208.663 49.0188 209.142 48.6602 209.588 48.2147C210.066 47.7367 210.513 47.2369 210.915 46.7045C211.329 46.1721 211.644 45.7809 211.884 45.5093C212.123 45.3355 212.373 45.2594 212.656 45.2594C212.83 45.2594 212.993 45.3137 213.146 45.4115C213.298 45.5093 213.374 45.6723 213.374 45.8679C213.374 46.1069 213.276 46.4111 213.069 46.7914C212.765 47.2695 212.428 47.791 212.068 48.3777C211.709 48.9644 211.383 49.486 211.067 49.964C211.677 49.9966 212.297 50.0292 212.906 50.0618C213.516 50.0944 214.147 50.1161 214.799 50.1161C215.137 50.1161 215.474 50.1161 215.8 50.0944C216.127 50.0727 216.453 50.0727 216.801 50.0727C217.824 50.0727 218.336 50.3334 218.336 50.8441C218.336 51.1809 218.151 51.6047 217.802 52.0936C217.443 52.5934 217.008 53.1258 216.497 53.7017C215.333 55.0272 214.353 56.4288 213.526 57.8848C212.71 59.3516 212.166 60.4707 211.894 61.253C211.622 62.0679 211.481 62.6872 211.481 63.0892C211.481 63.9041 211.807 64.3169 212.449 64.3169C213.026 64.3169 213.733 64.0236 214.571 63.4477C215.409 62.8719 216.268 62.1656 217.15 61.329C218.031 60.4924 218.836 59.6775 219.554 58.8735C220.272 58.0695 220.784 57.4719 221.088 57.059C221.154 56.9612 221.262 56.9069 221.393 56.9069C221.524 56.9069 221.643 56.9612 221.752 57.0807C221.85 57.2002 221.85 57.3415 221.752 57.5153C221.371 58.0912 220.827 58.8192 220.12 59.6884C219.402 60.5576 218.608 61.4159 217.715 62.2634C216.834 63.1109 215.964 63.8497 215.104 64.4582C214.658 64.795 214.06 65.1101 213.287 65.4035C212.515 65.6968 211.796 65.8381 211.111 65.8381L211.133 65.8055Z" fill="#5C3A27"/>
<path d="M95.7678 85.6671C94.5492 85.6671 93.0041 85.5258 91.4265 84.9934C88.0209 83.8417 85.8231 81.3536 85.736 81.2558L85.1267 80.5604L86.0407 80.3757C86.1713 80.3431 89.4354 79.7021 92.8409 80.8429C96.2465 81.9946 98.4444 84.4828 98.5314 84.5806L99.1407 85.2759L98.2267 85.4606C98.1506 85.4715 97.1822 85.6671 95.7787 85.6671H95.7678ZM87.3137 81.2884C88.195 82.0707 89.7618 83.2876 91.7638 83.9612C93.7767 84.6349 95.7569 84.624 96.932 84.5262C96.0507 83.7439 94.4839 82.527 92.4819 81.8534C90.4799 81.1798 88.4888 81.1906 87.3137 81.2884Z" fill="#6B7A63"/>
<path d="M107.051 86.3841L106.137 86.1994C106.006 86.1776 102.992 85.5583 100.49 83.3527C97.9874 81.1471 97.0081 78.2243 96.9646 78.1048L96.6708 77.2247L97.5848 77.4094C97.7153 77.4312 100.729 78.0505 103.232 80.2561C105.734 82.4618 106.713 85.3845 106.757 85.504L107.051 86.3841ZM98.4226 78.7676C98.9013 79.7563 99.7935 81.2883 101.208 82.5378C102.633 83.7982 104.265 84.4935 105.31 84.8304C104.831 83.8416 103.939 82.3096 102.524 81.0601C101.11 79.8106 99.4671 79.1153 98.4335 78.7676H98.4226Z" fill="#6B7A63"/>
<path d="M115.396 87.5794L114.482 87.3947C114.384 87.3729 112.045 86.8949 110.097 85.189C108.161 83.4832 107.399 81.2124 107.366 81.1254L107.073 80.2454L107.986 80.4301C108.084 80.4518 110.435 80.919 112.371 82.6357C114.308 84.3415 115.07 86.6124 115.102 86.7102L115.396 87.5902V87.5794ZM108.857 81.8208C109.238 82.5596 109.88 83.5484 110.815 84.385C111.762 85.2108 112.828 85.7214 113.601 86.0148C113.22 85.2868 112.578 84.2872 111.642 83.4506C110.696 82.6248 109.629 82.1142 108.857 81.8208Z" fill="#6B7A63"/>
<path d="M96.6708 95.5001L96.9646 94.62C97.0081 94.5005 97.9874 91.5777 100.49 89.3721C102.992 87.1665 106.017 86.558 106.137 86.5254L107.051 86.3407L106.757 87.2208C106.713 87.3403 105.734 90.263 103.232 92.4687C100.729 94.6743 97.7045 95.2827 97.5848 95.3153L96.6708 95.5001ZM105.299 87.8836C104.265 88.2312 102.622 88.9266 101.208 90.1761C99.7935 91.4256 98.8904 92.9685 98.4226 93.9463C99.4562 93.5986 101.099 92.9033 102.514 91.6538C103.928 90.4043 104.831 88.8614 105.299 87.8836Z" fill="#6B7A63"/>
<path d="M107.083 94.1962L107.377 93.3161C107.41 93.2183 108.171 90.9584 110.108 89.2525C112.045 87.5467 114.395 87.0686 114.493 87.0469L115.407 86.8622L115.113 87.7423C115.08 87.8401 114.319 90.1 112.382 91.8167C110.445 93.5226 108.095 94.0006 107.997 94.0223L107.083 94.2071V94.1962ZM113.623 88.4376C112.85 88.7201 111.773 89.2308 110.837 90.0674C109.891 90.8932 109.259 91.8928 108.879 92.6316C109.651 92.3382 110.728 91.8384 111.664 91.0018C112.611 90.1761 113.242 89.1765 113.623 88.4376Z" fill="#6B7A63"/>
<path d="M118.747 88.1551C111.251 88.1551 98.02 85.3084 97.389 85.178L97.5631 84.3632C97.7372 84.4066 115.461 88.2094 121.5 87.1338L121.652 87.9595C120.847 88.1008 119.868 88.166 118.758 88.166L118.747 88.1551Z" fill="#6B7A63"/>
<path d="M147.232 85.667C145.818 85.667 144.849 85.4715 144.784 85.4606L143.87 85.2759L144.479 84.5805C144.566 84.4719 146.764 81.9837 150.17 80.8429C153.575 79.6912 156.829 80.3431 156.97 80.3757L157.884 80.5604L157.275 81.2558C157.188 81.3644 154.99 83.8525 151.584 84.9934C150.007 85.5258 148.462 85.667 147.243 85.667H147.232ZM146.068 84.5262C147.243 84.624 149.234 84.6348 151.236 83.9612C153.238 83.2876 154.816 82.0815 155.686 81.2884C154.511 81.1906 152.52 81.1797 150.518 81.8533C148.505 82.527 146.938 83.7439 146.068 84.5262Z" fill="#6B7A63"/>
<path d="M135.949 86.3841L136.243 85.504C136.286 85.3845 137.266 82.4618 139.768 80.2561C142.271 78.0505 145.295 77.442 145.415 77.4094L146.329 77.2247L146.035 78.1048C145.992 78.2243 145.013 81.1471 142.51 83.3527C140.008 85.5583 136.983 86.1668 136.863 86.1994L135.949 86.3841ZM144.588 78.7676C143.555 79.1153 141.912 79.8106 140.486 81.0601C139.072 82.3096 138.169 83.8525 137.701 84.8304C138.745 84.4827 140.377 83.7873 141.792 82.5378C143.217 81.2774 144.109 79.7455 144.588 78.7676Z" fill="#6B7A63"/>
<path d="M127.604 87.5794L127.898 86.6993C127.93 86.6015 128.692 84.3415 130.629 82.6248C132.565 80.919 134.915 80.4409 135.013 80.4192L135.927 80.2345L135.634 81.1146C135.601 81.2124 134.839 83.4723 132.903 85.1782C130.966 86.884 128.616 87.3621 128.518 87.3838L127.604 87.5685V87.5794ZM134.143 81.8208C133.37 82.1142 132.293 82.614 131.358 83.4506C130.411 84.2763 129.78 85.2759 129.399 86.0148C130.172 85.7323 131.249 85.2216 132.184 84.385C133.131 83.5592 133.762 82.5596 134.143 81.8208Z" fill="#6B7A63"/>
<path d="M146.329 95.5001L145.415 95.3153C145.285 95.2936 142.271 94.6743 139.768 92.4687C137.266 90.263 136.286 87.3403 136.243 87.2208L135.949 86.3407L136.863 86.5254C136.994 86.5471 140.008 87.1665 142.51 89.3721C145.013 91.5777 145.992 94.5005 146.035 94.62L146.329 95.5001ZM137.701 87.8836C138.18 88.8723 139.072 90.4043 140.486 91.6538C141.901 92.9033 143.544 93.5986 144.577 93.9463C144.099 92.9576 143.206 91.4256 141.792 90.1761C140.377 88.9266 138.735 88.2312 137.701 87.8836Z" fill="#6B7A63"/>
<path d="M135.917 94.1962L135.003 94.0115C134.905 93.9898 132.554 93.5226 130.618 91.8059C128.681 90.1 127.919 87.8292 127.887 87.7314L127.593 86.8513L128.507 87.036C128.605 87.0578 130.944 87.5358 132.892 89.2417C134.828 90.9475 135.59 93.2183 135.623 93.3052L135.917 94.1853V94.1962ZM129.377 88.4376C129.758 89.1656 130.4 90.1652 131.336 91.0018C132.282 91.8276 133.349 92.3382 134.121 92.6316C133.74 91.8928 133.098 90.904 132.163 90.0674C131.216 89.2417 130.15 88.731 129.377 88.4376Z" fill="#6B7A63"/>
<path d="M124.253 88.1551C131.749 88.1551 144.98 85.3084 145.611 85.178L145.437 84.3632C145.263 84.4066 127.539 88.2094 121.5 87.1338L121.348 87.9595C122.153 88.1008 123.132 88.166 124.242 88.166L124.253 88.1551Z" fill="#6B7A63"/>
<path d="M120.173 42.6191C120.053 42.6191 119.944 42.6082 119.824 42.6191C117.322 43.0102 115.592 41.6195 113.992 40.0332C112.36 38.4251 111.773 36.4042 111.86 34.1442C111.882 33.4489 112.132 33.1881 112.817 33.1881C117.822 33.1881 122.827 33.1881 127.821 33.1881C128.474 33.1881 129.116 33.3728 129.769 33.3728C130.639 33.3728 131.423 33.5575 131.815 34.3833C132.239 35.2742 132.163 36.2412 131.499 36.9801C131.031 37.5016 130.4 38.11 129.758 38.2187C127.974 38.5121 126.799 39.566 125.602 40.7937C124.111 42.3257 122.947 42.6082 120.162 42.6191H120.173ZM129.432 34.3181C129.301 34.4159 128.768 34.6114 128.637 34.9483C128.365 35.6436 128.289 36.4259 128.191 37.1865C128.17 37.3277 128.355 37.6211 128.485 37.6428C129.41 37.8058 130.748 36.9257 131.02 36.0131C131.314 35.0461 130.814 34.3615 129.432 34.3072V34.3181Z" fill="#5C3A27"/>
<path d="M117.235 16.7926C117.681 16.7926 118.127 16.7708 118.562 16.7926C119.28 16.8469 119.726 16.5753 119.911 15.8581C120.009 15.4561 120.205 15.0867 120.434 14.4891C120.662 15.0324 120.869 15.3801 120.956 15.7604C121.163 16.5861 121.674 16.8686 122.479 16.7926C122.849 16.76 123.241 16.7926 123.611 16.7926C123.654 16.8686 123.687 16.9447 123.73 17.0316C123.371 17.325 123.056 17.6835 122.664 17.9117C122.055 18.2594 121.902 18.694 122.109 19.335C122.251 19.7588 122.316 20.2151 122.446 20.7801C122.207 20.6714 122.066 20.6388 121.957 20.5628C120.941 19.8891 119.9 19.8964 118.834 20.5845C118.747 20.6388 118.638 20.6606 118.475 20.7149C118.617 19.9217 119.008 19.096 118.791 18.4875C118.595 17.9117 117.746 17.5749 117.18 17.1294C117.202 17.0207 117.224 16.9121 117.246 16.8034L117.235 16.7926Z" fill="#5C3A27"/>
<path d="M120.216 45.1616C117.648 45.0638 115.113 44.9225 112.632 44.2706C112.186 44.1511 111.773 43.9447 111.359 43.7491C111.261 43.7056 111.174 43.4775 111.207 43.3797C111.24 43.2819 111.436 43.1732 111.555 43.1841C111.816 43.2058 112.077 43.3036 112.35 43.3471C114.297 43.597 116.234 43.9555 118.181 44.0425C121.685 44.2054 125.188 44.1511 128.627 43.2819C128.855 43.2276 129.138 43.4014 129.399 43.4666C129.225 43.6513 129.094 43.9338 128.877 43.999C128.257 44.2054 127.626 44.4119 126.984 44.4879C124.731 44.7487 122.479 44.9443 120.216 45.1616Z" fill="#5C3A27"/>
<path d="M120.684 24.5503C120.488 25.2131 120.096 25.8758 120.173 26.4734C120.249 27.0602 120.814 27.5817 121.119 28.1467C121.467 28.7986 121.391 29.3418 120.76 29.8525C120.107 30.3849 119.291 30.8304 119.291 32.0255C118.812 31.0477 118.91 30.537 119.585 29.8308C120.231 29.1499 120.318 28.3966 119.846 27.5708C119.182 26.3974 119.454 25.3543 120.673 24.5503H120.684Z" fill="#5C3A27"/>
</g>
<defs>
<clipPath id="clip0_71_2026">
<rect width="200.7" height="81" fill="white" transform="translate(21.15 14.5)"/>
</clipPath>
</defs>
</svg>
